{"glyphs":{"0":{"ha":911,"x_min":81,"x_max":829,"o":"m 81 693 q 118 830 81 768 q 217 928 155 891 q 355 964 279 964 l 542 964 q 687 928 621 964 q 791 830 752 891 q 829 693 829 768 l 829 270 q 791 134 829 195 q 687 36 752 73 q 543 0 623 0 l 369 0 q 224 36 290 0 q 120 134 159 73 q 81 270 81 195 l 81 693 m 224 270 q 267 180 224 218 q 369 143 309 143 l 543 143 q 645 180 603 143 q 687 270 687 218 l 687 693 q 645 784 687 747 q 542 822 602 822 l 355 822 q 263 784 301 822 q 224 693 224 747 l 224 270 z "},"1":{"ha":452,"x_min":47,"x_max":357,"o":"m 47 964 l 357 964 l 357 0 l 215 0 l 215 822 l 47 822 l 47 964 z "},"2":{"ha":909,"x_min":81,"x_max":828,"o":"m 81 326 q 118 441 81 404 q 249 496 155 479 l 608 566 q 663 600 642 572 q 685 665 685 628 l 685 727 q 657 794 685 766 q 591 822 630 822 l 130 822 l 130 964 l 591 964 q 710 933 656 964 q 796 848 764 901 q 828 731 828 795 l 828 662 q 806 556 828 605 q 747 474 785 507 q 661 432 709 441 l 258 355 q 231 346 238 351 q 224 326 224 340 l 224 142 l 827 142 l 827 0 l 81 0 l 81 326 z "},"3":{"ha":905,"x_min":81,"x_max":823,"o":"m 81 143 l 587 143 q 653 171 626 143 q 681 236 681 198 l 681 327 q 644 402 681 371 q 554 433 606 433 l 334 433 l 334 576 l 554 576 q 630 607 599 576 q 662 682 662 638 l 662 727 q 634 794 662 766 q 568 822 607 822 l 81 822 l 81 964 l 568 964 q 687 932 633 964 q 773 847 741 901 q 805 727 805 793 l 805 679 q 724 512 805 572 q 800 436 776 481 q 823 326 823 392 l 823 235 q 791 116 823 170 q 706 32 760 63 q 587 0 652 0 l 81 0 l 81 143 z "},"4":{"ha":888,"x_min":81,"x_max":793,"o":"m 81 964 l 224 964 l 224 633 q 252 567 224 594 q 319 539 279 539 l 651 539 l 651 964 l 793 964 l 793 0 l 651 0 l 651 397 l 319 397 q 200 429 254 397 q 114 514 146 460 q 81 632 81 567 l 81 964 z "},"5":{"ha":901,"x_min":81,"x_max":819,"o":"m 224 252 q 250 173 224 203 q 319 143 276 143 l 582 143 q 649 170 621 143 q 677 236 677 197 l 677 368 q 649 442 677 412 q 583 473 622 473 l 87 473 l 87 964 l 784 964 l 784 822 l 229 822 l 229 612 l 583 612 q 702 578 648 612 q 787 490 755 545 q 819 366 819 434 l 819 235 q 787 116 819 170 q 701 32 755 63 q 582 0 648 0 l 319 0 q 197 33 251 0 q 112 121 143 65 q 81 250 81 178 l 224 252 z "},"6":{"ha":895,"x_min":81,"x_max":814,"o":"m 81 727 q 113 847 81 793 q 199 932 145 901 q 319 964 253 964 l 768 964 l 768 822 l 319 822 q 252 794 279 822 q 224 727 224 766 l 224 609 l 578 609 q 697 580 644 609 q 782 502 751 551 q 814 393 814 452 l 814 235 q 782 117 814 170 q 697 32 751 64 q 578 0 644 0 l 319 0 q 200 32 254 0 q 114 117 146 64 q 81 235 81 170 l 81 727 m 224 235 q 252 170 224 197 q 319 143 279 143 l 578 143 q 644 170 617 143 q 671 235 671 197 l 671 393 q 644 453 671 429 q 578 478 617 478 l 224 478 l 224 235 z "},"7":{"ha":896,"x_min":81,"x_max":814,"o":"m 81 964 l 814 964 l 814 861 l 293 0 l 128 0 l 627 822 l 81 822 l 81 964 z "},"8":{"ha":889,"x_min":78,"x_max":811,"o":"m 78 339 q 107 438 78 392 q 186 511 136 484 q 96 667 96 562 l 96 727 q 129 846 96 793 q 215 932 161 900 q 334 964 269 964 l 555 964 q 675 932 621 964 q 761 846 728 900 q 793 727 793 793 l 793 667 q 704 511 793 561 q 783 438 754 484 q 811 339 811 393 l 811 248 q 779 123 811 180 q 694 34 747 67 q 574 0 640 0 l 315 0 q 196 34 250 0 q 110 123 142 67 q 78 248 78 180 l 78 339 m 239 667 q 269 602 239 627 q 344 576 298 576 l 546 576 q 621 602 592 576 q 650 667 650 627 l 650 727 q 620 794 650 766 q 546 821 589 821 l 334 821 q 267 794 295 821 q 239 727 239 766 l 239 667 m 221 247 q 252 174 221 204 q 327 143 283 143 l 566 143 q 638 173 608 143 q 669 246 669 203 l 669 339 q 642 406 669 378 q 576 433 614 433 l 315 433 q 249 403 276 433 q 221 329 221 372 l 221 247 z "},"9":{"ha":895,"x_min":81,"x_max":814,"o":"m 81 729 q 113 848 81 794 q 199 933 145 901 q 317 964 252 964 l 577 964 q 696 933 643 964 q 782 848 750 901 q 814 729 814 794 l 814 237 q 782 118 814 172 q 696 32 750 64 q 577 0 643 0 l 127 0 l 127 143 l 577 143 q 644 171 616 143 q 671 237 671 198 l 671 356 l 317 356 q 199 385 252 356 q 113 464 145 414 q 81 572 81 513 l 81 729 m 224 574 q 252 512 224 538 q 317 487 279 487 l 671 487 l 671 729 q 644 794 671 767 q 577 822 616 822 l 317 822 q 252 795 279 822 q 224 729 224 768 l 224 574 z "},"A":{"ha":923,"x_min":27,"x_max":896,"o":"m 372 964 l 551 964 l 896 0 l 743 0 l 638 290 l 369 290 l 420 433 l 587 433 l 462 777 l 180 0 l 27 0 l 372 964 z "},"Á":{"ha":923,"x_min":27,"x_max":896,"o":"m 472 1333 l 596 1274 l 462 1047 l 385 1083 l 472 1333 m 372 964 l 551 964 l 896 0 l 743 0 l 638 290 l 369 290 l 420 433 l 587 433 l 462 777 l 180 0 l 27 0 l 372 964 z "},"Ă":{"ha":923,"x_min":27,"x_max":896,"o":"m 351 1251 q 384 1172 351 1205 q 462 1139 416 1139 q 541 1172 508 1139 q 573 1251 573 1205 l 664 1251 q 636 1149 664 1195 q 563 1076 609 1103 q 462 1048 517 1048 q 360 1076 406 1048 q 287 1149 315 1103 q 260 1251 260 1195 l 351 1251 m 372 964 l 551 964 l 896 0 l 743 0 l 638 290 l 369 290 l 420 433 l 587 433 l 462 777 l 180 0 l 27 0 l 372 964 z "},"Â":{"ha":923,"x_min":27,"x_max":896,"o":"m 410 1256 l 515 1256 l 673 1046 l 578 1046 l 462 1163 l 347 1046 l 251 1046 l 410 1256 m 372 964 l 551 964 l 896 0 l 743 0 l 638 290 l 369 290 l 420 433 l 587 433 l 462 777 l 180 0 l 27 0 l 372 964 z "},"Ä":{"ha":923,"x_min":27,"x_max":896,"o":"m 272 1122 q 294 1176 272 1154 q 347 1198 315 1198 q 400 1176 378 1198 q 422 1122 422 1154 q 400 1069 422 1091 q 347 1048 378 1048 q 294 1069 315 1048 q 272 1122 272 1091 m 503 1122 q 524 1176 503 1154 q 577 1198 546 1198 q 631 1176 609 1198 q 652 1122 652 1154 q 631 1069 652 1091 q 577 1048 609 1048 q 524 1069 546 1048 q 503 1122 503 1091 m 372 964 l 551 964 l 896 0 l 743 0 l 638 290 l 369 290 l 420 433 l 587 433 l 462 777 l 180 0 l 27 0 l 372 964 z "},"À":{"ha":923,"x_min":27,"x_max":896,"o":"m 452 1333 l 539 1083 l 462 1047 l 328 1274 l 452 1333 m 372 964 l 551 964 l 896 0 l 743 0 l 638 290 l 369 290 l 420 433 l 587 433 l 462 777 l 180 0 l 27 0 l 372 964 z "},"Ā":{"ha":923,"x_min":27,"x_max":896,"o":"m 259 1147 l 664 1147 l 664 1047 l 259 1047 l 259 1147 m 372 964 l 551 964 l 896 0 l 743 0 l 638 290 l 369 290 l 420 433 l 587 433 l 462 777 l 180 0 l 27 0 l 372 964 z "},"Ą":{"ha":923,"x_min":27,"x_max":944,"o":"m 739 -120 q 766 0 739 -72 l 743 0 l 638 290 l 369 290 l 420 433 l 587 433 l 462 777 l 180 0 l 27 0 l 372 964 l 551 964 l 896 0 l 867 0 q 846 -59 851 -43 q 842 -85 842 -75 q 869 -106 842 -106 q 890 -105 878 -106 q 944 -97 903 -104 l 944 -197 q 879 -206 899 -204 q 842 -208 859 -208 q 739 -120 739 -208 z "},"Å":{"ha":923,"x_min":27,"x_max":896,"o":"m 333 1191 q 367 1272 333 1239 q 448 1305 401 1305 l 475 1305 q 557 1272 524 1305 q 591 1191 591 1239 l 591 1162 q 557 1081 591 1114 q 475 1047 524 1047 l 448 1047 q 367 1081 401 1047 q 333 1162 333 1114 l 333 1191 m 413 1162 q 423 1137 413 1147 q 448 1127 433 1127 l 475 1127 q 500 1137 490 1127 q 511 1162 511 1147 l 511 1191 q 500 1215 511 1205 q 475 1225 490 1225 l 448 1225 q 423 1215 433 1225 q 413 1191 413 1205 l 413 1162 m 372 964 l 551 964 l 896 0 l 743 0 l 638 290 l 369 290 l 420 433 l 587 433 l 462 777 l 180 0 l 27 0 l 372 964 z "},"Ã":{"ha":923,"x_min":27,"x_max":896,"o":"m 238 1053 q 276 1160 239 1118 q 370 1202 313 1202 q 405 1197 385 1202 q 458 1177 424 1192 q 514 1157 496 1162 q 547 1152 532 1152 q 578 1199 578 1152 l 684 1199 q 646 1092 684 1136 q 554 1047 608 1047 q 519 1053 538 1047 q 464 1074 500 1059 q 408 1096 426 1090 q 374 1102 389 1102 q 343 1053 343 1102 l 238 1053 m 372 964 l 551 964 l 896 0 l 743 0 l 638 290 l 369 290 l 420 433 l 587 433 l 462 777 l 180 0 l 27 0 l 372 964 z "},"Æ":{"ha":1386,"x_min":27,"x_max":1305,"o":"m 361 964 l 1305 964 l 1305 822 l 698 822 l 698 143 l 1305 143 l 1305 0 l 555 0 l 555 290 l 361 290 l 411 433 l 555 433 l 555 822 l 465 822 l 179 0 l 27 0 l 361 964 m 781 573 l 1304 573 l 1304 431 l 781 431 l 781 573 z "},"Ǽ":{"ha":1386,"x_min":27,"x_max":1305,"o":"m 703 1333 l 827 1274 l 693 1047 l 616 1083 l 703 1333 m 361 964 l 1305 964 l 1305 822 l 698 822 l 698 143 l 1305 143 l 1305 0 l 555 0 l 555 290 l 361 290 l 411 433 l 555 433 l 555 822 l 465 822 l 179 0 l 27 0 l 361 964 m 781 573 l 1304 573 l 1304 431 l 781 431 l 781 573 z "},"B":{"ha":955,"x_min":95,"x_max":880,"o":"m 95 964 l 603 964 q 724 932 670 964 q 811 847 779 901 q 843 727 843 793 l 843 664 q 789 521 843 570 q 859 447 837 490 q 880 339 880 404 l 880 233 q 848 116 880 169 q 762 32 816 63 q 642 0 707 0 l 95 0 l 95 964 m 643 143 q 710 170 682 143 q 738 235 738 197 l 738 341 q 710 406 738 379 q 642 433 682 433 l 319 433 l 319 576 l 603 576 q 672 602 643 576 q 701 665 701 628 l 701 727 q 672 794 701 766 q 603 822 643 822 l 238 822 l 238 143 l 643 143 z "},"C":{"ha":937,"x_min":81,"x_max":862,"o":"m 81 693 q 119 830 81 768 q 218 928 156 891 q 357 964 281 964 l 862 964 l 862 822 l 357 822 q 263 784 302 822 q 224 693 224 747 l 224 269 q 263 180 224 217 q 357 143 302 143 l 862 143 l 862 0 l 357 0 q 218 36 281 0 q 119 133 156 72 q 81 267 81 193 l 81 693 z "},"Ć":{"ha":937,"x_min":81,"x_max":862,"o":"m 478 1333 l 602 1274 l 468 1047 l 391 1083 l 478 1333 m 81 693 q 119 830 81 768 q 218 928 156 891 q 357 964 281 964 l 862 964 l 862 822 l 357 822 q 263 784 302 822 q 224 693 224 747 l 224 269 q 263 180 224 217 q 357 143 302 143 l 862 143 l 862 0 l 357 0 q 218 36 281 0 q 119 133 156 72 q 81 267 81 193 l 81 693 z "},"Č":{"ha":937,"x_min":81,"x_max":862,"o":"m 352 1257 l 467 1140 l 583 1257 l 679 1257 l 520 1047 l 415 1047 l 256 1257 l 352 1257 m 81 693 q 119 830 81 768 q 218 928 156 891 q 357 964 281 964 l 862 964 l 862 822 l 357 822 q 263 784 302 822 q 224 693 224 747 l 224 269 q 263 180 224 217 q 357 143 302 143 l 862 143 l 862 0 l 357 0 q 218 36 281 0 q 119 133 156 72 q 81 267 81 193 l 81 693 z "},"Ç":{"ha":937,"x_min":81,"x_max":862,"o":"m 341 -97 q 395 -105 383 -104 q 416 -106 407 -106 q 444 -85 444 -106 q 439 -59 444 -75 q 418 0 434 -42 l 357 0 q 218 36 281 0 q 119 133 156 72 q 81 267 81 193 l 81 693 q 119 830 81 768 q 218 928 156 891 q 357 964 281 964 l 862 964 l 862 822 l 357 822 q 263 784 302 822 q 224 693 224 747 l 224 269 q 263 180 224 217 q 357 143 302 143 l 862 143 l 862 0 l 519 0 q 546 -120 546 -73 q 443 -208 546 -208 q 406 -206 426 -208 q 341 -197 386 -204 l 341 -97 z "},"Ĉ":{"ha":937,"x_min":81,"x_max":862,"o":"m 416 1256 l 521 1256 l 680 1046 l 584 1046 l 468 1163 l 353 1046 l 257 1046 l 416 1256 m 81 693 q 119 830 81 768 q 218 928 156 891 q 357 964 281 964 l 862 964 l 862 822 l 357 822 q 263 784 302 822 q 224 693 224 747 l 224 269 q 263 180 224 217 q 357 143 302 143 l 862 143 l 862 0 l 357 0 q 218 36 281 0 q 119 133 156 72 q 81 267 81 193 l 81 693 z "},"Ċ":{"ha":937,"x_min":81,"x_max":862,"o":"m 393 1122 q 415 1175 393 1154 q 468 1197 437 1197 q 521 1175 499 1197 q 543 1122 543 1154 q 521 1069 543 1090 q 468 1047 499 1047 q 415 1069 437 1047 q 393 1122 393 1090 m 81 693 q 119 830 81 768 q 218 928 156 891 q 357 964 281 964 l 862 964 l 862 822 l 357 822 q 263 784 302 822 q 224 693 224 747 l 224 269 q 263 180 224 217 q 357 143 302 143 l 862 143 l 862 0 l 357 0 q 218 36 281 0 q 119 133 156 72 q 81 267 81 193 l 81 693 z "},"D":{"ha":962,"x_min":95,"x_max":880,"o":"m 95 964 l 608 964 q 745 928 683 964 q 844 830 807 891 q 880 693 880 768 l 880 269 q 844 134 880 195 q 745 36 807 73 q 608 0 683 0 l 95 0 l 95 964 m 608 143 q 700 180 662 143 q 738 271 738 218 l 738 693 q 700 784 738 747 q 608 822 662 822 l 238 822 l 238 143 l 608 143 z "},"Ð":{"ha":994,"x_min":61,"x_max":912,"o":"m 61 556 l 127 556 l 127 964 l 639 964 q 776 928 714 964 q 875 830 838 891 q 912 693 912 768 l 912 269 q 875 134 912 195 q 776 36 838 73 q 639 0 714 0 l 127 0 l 127 441 l 61 441 l 61 556 m 639 143 q 731 180 693 143 q 770 271 770 218 l 770 693 q 731 784 770 747 q 639 822 693 822 l 269 822 l 269 556 l 588 556 l 588 441 l 269 441 l 269 143 l 639 143 z "},"Ď":{"ha":962,"x_min":95,"x_max":880,"o":"m 365 1257 l 480 1140 l 596 1257 l 692 1257 l 533 1047 l 428 1047 l 269 1257 l 365 1257 m 95 964 l 608 964 q 745 928 683 964 q 844 830 807 891 q 880 693 880 768 l 880 269 q 844 134 880 195 q 745 36 807 73 q 608 0 683 0 l 95 0 l 95 964 m 608 143 q 700 180 662 143 q 738 271 738 218 l 738 693 q 700 784 738 747 q 608 822 662 822 l 238 822 l 238 143 l 608 143 z "},"Đ":{"ha":994,"x_min":61,"x_max":912,"o":"m 61 556 l 127 556 l 127 964 l 639 964 q 776 928 714 964 q 875 830 838 891 q 912 693 912 768 l 912 269 q 875 134 912 195 q 776 36 838 73 q 639 0 714 0 l 127 0 l 127 441 l 61 441 l 61 556 m 639 143 q 731 180 693 143 q 770 271 770 218 l 770 693 q 731 784 770 747 q 639 822 693 822 l 269 822 l 269 556 l 588 556 l 588 441 l 269 441 l 269 143 l 639 143 z "},"Ḋ":{"ha":962,"x_min":95,"x_max":880,"o":"m 406 1122 q 428 1175 406 1154 q 481 1197 450 1197 q 534 1175 512 1197 q 555 1122 555 1154 q 534 1069 555 1090 q 481 1047 512 1047 q 428 1069 450 1047 q 406 1122 406 1090 m 95 964 l 608 964 q 745 928 683 964 q 844 830 807 891 q 880 693 880 768 l 880 269 q 844 134 880 195 q 745 36 807 73 q 608 0 683 0 l 95 0 l 95 964 m 608 143 q 700 180 662 143 q 738 271 738 218 l 738 693 q 700 784 738 747 q 608 822 662 822 l 238 822 l 238 143 l 608 143 z "},"E":{"ha":924,"x_min":95,"x_max":843,"o":"m 95 964 l 843 964 l 843 822 l 238 822 l 238 143 l 843 143 l 843 0 l 95 0 l 95 964 m 319 573 l 843 573 l 843 431 l 319 431 l 319 573 z "},"É":{"ha":924,"x_min":95,"x_max":843,"o":"m 470 1333 l 594 1274 l 460 1047 l 382 1083 l 470 1333 m 95 964 l 843 964 l 843 822 l 238 822 l 238 143 l 843 143 l 843 0 l 95 0 l 95 964 m 319 573 l 843 573 l 843 431 l 319 431 l 319 573 z "},"Ĕ":{"ha":924,"x_min":95,"x_max":843,"o":"m 349 1251 q 381 1172 349 1205 q 460 1139 414 1139 q 538 1172 506 1139 q 571 1251 571 1205 l 662 1251 q 634 1149 662 1195 q 561 1076 607 1103 q 460 1048 515 1048 q 358 1076 404 1048 q 285 1149 313 1103 q 258 1251 258 1195 l 349 1251 m 95 964 l 843 964 l 843 822 l 238 822 l 238 143 l 843 143 l 843 0 l 95 0 l 95 964 m 319 573 l 843 573 l 843 431 l 319 431 l 319 573 z "},"Ě":{"ha":924,"x_min":95,"x_max":843,"o":"m 344 1257 l 459 1140 l 575 1257 l 671 1257 l 512 1047 l 407 1047 l 248 1257 l 344 1257 m 95 964 l 843 964 l 843 822 l 238 822 l 238 143 l 843 143 l 843 0 l 95 0 l 95 964 m 319 573 l 843 573 l 843 431 l 319 431 l 319 573 z "},"Ê":{"ha":924,"x_min":95,"x_max":843,"o":"m 408 1256 l 513 1256 l 671 1046 l 576 1046 l 460 1163 l 345 1046 l 249 1046 l 408 1256 m 95 964 l 843 964 l 843 822 l 238 822 l 238 143 l 843 143 l 843 0 l 95 0 l 95 964 m 319 573 l 843 573 l 843 431 l 319 431 l 319 573 z "},"Ë":{"ha":924,"x_min":95,"x_max":843,"o":"m 270 1122 q 292 1176 270 1154 q 345 1198 313 1198 q 398 1176 376 1198 q 420 1122 420 1154 q 398 1069 420 1091 q 345 1048 376 1048 q 292 1069 313 1048 q 270 1122 270 1091 m 500 1122 q 522 1176 500 1154 q 575 1198 544 1198 q 629 1176 607 1198 q 650 1122 650 1154 q 629 1069 650 1091 q 575 1048 607 1048 q 522 1069 544 1048 q 500 1122 500 1091 m 95 964 l 843 964 l 843 822 l 238 822 l 238 143 l 843 143 l 843 0 l 95 0 l 95 964 m 319 573 l 843 573 l 843 431 l 319 431 l 319 573 z "},"Ė":{"ha":924,"x_min":95,"x_max":843,"o":"m 385 1122 q 407 1175 385 1154 q 460 1197 429 1197 q 513 1175 491 1197 q 534 1122 534 1154 q 513 1069 534 1090 q 460 1047 491 1047 q 407 1069 429 1047 q 385 1122 385 1090 m 95 964 l 843 964 l 843 822 l 238 822 l 238 143 l 843 143 l 843 0 l 95 0 l 95 964 m 319 573 l 843 573 l 843 431 l 319 431 l 319 573 z "},"È":{"ha":924,"x_min":95,"x_max":843,"o":"m 450 1333 l 537 1083 l 460 1047 l 326 1274 l 450 1333 m 95 964 l 843 964 l 843 822 l 238 822 l 238 143 l 843 143 l 843 0 l 95 0 l 95 964 m 319 573 l 843 573 l 843 431 l 319 431 l 319 573 z "},"Ē":{"ha":924,"x_min":95,"x_max":843,"o":"m 257 1147 l 662 1147 l 662 1047 l 257 1047 l 257 1147 m 95 964 l 843 964 l 843 822 l 238 822 l 238 143 l 843 143 l 843 0 l 95 0 l 95 964 m 319 573 l 843 573 l 843 431 l 319 431 l 319 573 z "},"Ę":{"ha":924,"x_min":95,"x_max":843,"o":"m 382 -120 q 410 0 382 -72 l 95 0 l 95 964 l 843 964 l 843 822 l 238 822 l 238 143 l 843 143 l 843 0 l 510 0 q 490 -59 494 -43 q 485 -85 485 -75 q 513 -106 485 -106 q 534 -105 522 -106 q 587 -97 546 -104 l 587 -197 q 523 -206 543 -204 q 486 -208 503 -208 q 382 -120 382 -208 m 319 573 l 843 573 l 843 431 l 319 431 l 319 573 z "},"F":{"ha":822,"x_min":95,"x_max":741,"o":"m 95 964 l 741 964 l 741 822 l 238 822 l 238 0 l 95 0 l 95 964 m 319 573 l 741 573 l 741 431 l 319 431 l 319 573 z "},"G":{"ha":964,"x_min":81,"x_max":882,"o":"m 81 693 q 120 830 81 768 q 224 928 159 891 q 369 964 290 964 l 825 964 l 825 822 l 369 822 q 267 784 309 822 q 224 694 224 747 l 224 271 q 267 180 224 218 q 369 142 309 142 l 595 142 q 697 180 655 142 q 739 271 739 218 l 739 397 l 477 397 l 477 539 l 882 539 l 882 271 q 844 135 882 197 q 740 37 805 73 q 595 0 674 0 l 369 0 q 224 37 290 0 q 120 135 159 73 q 81 271 81 197 l 81 693 z "},"Ğ":{"ha":964,"x_min":81,"x_max":882,"o":"m 370 1251 q 403 1172 370 1205 q 481 1139 436 1139 q 560 1172 528 1139 q 593 1251 593 1205 l 684 1251 q 656 1149 684 1195 q 583 1076 629 1103 q 481 1048 537 1048 q 380 1076 426 1048 q 307 1149 334 1103 q 279 1251 279 1195 l 370 1251 m 81 693 q 120 830 81 768 q 224 928 159 891 q 369 964 290 964 l 825 964 l 825 822 l 369 822 q 267 784 309 822 q 224 694 224 747 l 224 271 q 267 180 224 218 q 369 142 309 142 l 595 142 q 697 180 655 142 q 739 271 739 218 l 739 397 l 477 397 l 477 539 l 882 539 l 882 271 q 844 135 882 197 q 740 37 805 73 q 595 0 674 0 l 369 0 q 224 37 290 0 q 120 135 159 73 q 81 271 81 197 l 81 693 z "},"Ĝ":{"ha":964,"x_min":81,"x_max":882,"o":"m 429 1257 l 534 1257 l 693 1047 l 597 1047 l 481 1164 l 366 1047 l 271 1047 l 429 1257 m 81 693 q 120 830 81 768 q 224 928 159 891 q 369 964 290 964 l 825 964 l 825 822 l 369 822 q 267 784 309 822 q 224 694 224 747 l 224 271 q 267 180 224 218 q 369 142 309 142 l 595 142 q 697 180 655 142 q 739 271 739 218 l 739 397 l 477 397 l 477 539 l 882 539 l 882 271 q 844 135 882 197 q 740 37 805 73 q 595 0 674 0 l 369 0 q 224 37 290 0 q 120 135 159 73 q 81 271 81 197 l 81 693 z "},"Ġ":{"ha":964,"x_min":81,"x_max":882,"o":"m 406 1122 q 428 1175 406 1154 q 481 1197 450 1197 q 534 1175 513 1197 q 556 1122 556 1154 q 534 1069 556 1090 q 481 1047 513 1047 q 428 1069 450 1047 q 406 1122 406 1090 m 81 693 q 120 830 81 768 q 224 928 159 891 q 369 964 290 964 l 825 964 l 825 822 l 369 822 q 267 784 309 822 q 224 694 224 747 l 224 271 q 267 180 224 218 q 369 142 309 142 l 595 142 q 697 180 655 142 q 739 271 739 218 l 739 397 l 477 397 l 477 539 l 882 539 l 882 271 q 844 135 882 197 q 740 37 805 73 q 595 0 674 0 l 369 0 q 224 37 290 0 q 120 135 159 73 q 81 271 81 197 l 81 693 z "},"H":{"ha":975,"x_min":95,"x_max":880,"o":"m 95 964 l 238 964 l 238 573 l 738 573 l 738 964 l 880 964 l 880 0 l 738 0 l 738 431 l 238 431 l 238 0 l 95 0 l 95 964 z "},"Ħ":{"ha":1084,"x_min":41,"x_max":1043,"o":"m 41 884 l 149 884 l 149 964 l 292 964 l 292 884 l 792 884 l 792 964 l 935 964 l 935 884 l 1043 884 l 1043 784 l 935 784 l 935 0 l 792 0 l 792 431 l 292 431 l 292 0 l 149 0 l 149 784 l 41 784 l 41 884 m 792 573 l 792 784 l 292 784 l 292 573 l 792 573 z "},"Ĥ":{"ha":975,"x_min":95,"x_max":880,"o":"m 435 1256 l 541 1256 l 699 1046 l 604 1046 l 488 1163 l 372 1046 l 277 1046 l 435 1256 m 95 964 l 238 964 l 238 573 l 738 573 l 738 964 l 880 964 l 880 0 l 738 0 l 738 431 l 238 431 l 238 0 l 95 0 l 95 964 z "},"I":{"ha":333,"x_min":95,"x_max":238,"o":"m 95 964 l 238 964 l 238 0 l 95 0 l 95 964 z "},"Ĳ":{"ha":886,"x_min":95,"x_max":791,"o":"m 347 142 l 519 142 q 610 180 572 142 q 648 270 648 217 l 648 964 l 791 964 l 791 268 q 754 133 791 194 q 656 36 718 73 q 519 0 594 0 l 347 0 l 347 142 m 95 964 l 238 964 l 238 0 l 95 0 l 95 964 z "},"Í":{"ha":333,"x_min":89,"x_max":300,"o":"m 176 1333 l 300 1274 l 166 1047 l 89 1083 l 176 1333 m 95 964 l 238 964 l 238 0 l 95 0 l 95 964 z "},"Ĭ":{"ha":333,"x_min":-36,"x_max":368,"o":"m 55 1249 q 88 1171 55 1204 q 166 1138 121 1138 q 245 1171 212 1138 q 277 1249 277 1204 l 368 1249 q 341 1148 368 1194 q 268 1075 313 1102 q 166 1047 222 1047 q 65 1075 111 1047 q -8 1148 19 1102 q -36 1249 -36 1194 l 55 1249 m 95 964 l 238 964 l 238 0 l 95 0 l 95 964 z "},"Î":{"ha":333,"x_min":-45,"x_max":378,"o":"m 114 1256 l 219 1256 l 378 1046 l 282 1046 l 166 1163 l 51 1046 l -45 1046 l 114 1256 m 95 964 l 238 964 l 238 0 l 95 0 l 95 964 z "},"Ï":{"ha":333,"x_min":-24,"x_max":357,"o":"m -24 1122 q -2 1176 -24 1154 q 51 1198 20 1198 q 104 1176 83 1198 q 126 1122 126 1154 q 104 1069 126 1091 q 51 1048 83 1048 q -2 1069 20 1048 q -24 1122 -24 1091 m 207 1122 q 229 1176 207 1154 q 281 1198 250 1198 q 335 1176 313 1198 q 357 1122 357 1154 q 335 1069 357 1091 q 281 1048 313 1048 q 229 1069 250 1048 q 207 1122 207 1091 m 95 964 l 238 964 l 238 0 l 95 0 l 95 964 z "},"İ":{"ha":306,"x_min":81,"x_max":232,"o":"m 82 1111 q 104 1164 82 1142 q 157 1186 126 1186 q 210 1164 189 1186 q 232 1111 232 1142 q 210 1058 232 1080 q 157 1036 189 1036 q 104 1058 126 1036 q 82 1111 82 1080 m 81 964 l 224 964 l 224 0 l 81 0 l 81 964 z "},"Ì":{"ha":333,"x_min":32,"x_max":243,"o":"m 156 1333 l 243 1083 l 166 1047 l 32 1274 l 156 1333 m 95 964 l 238 964 l 238 0 l 95 0 l 95 964 z "},"Ī":{"ha":333,"x_min":-37,"x_max":368,"o":"m -37 1147 l 368 1147 l 368 1047 l -37 1047 l -37 1147 m 95 964 l 238 964 l 238 0 l 95 0 l 95 964 z "},"Į":{"ha":333,"x_min":90,"x_max":294,"o":"m 90 -120 q 117 0 90 -72 l 95 0 l 95 964 l 238 964 l 238 0 l 217 0 q 197 -59 201 -43 q 192 -85 192 -75 q 220 -106 192 -106 q 241 -105 229 -106 q 294 -97 253 -104 l 294 -197 q 230 -206 250 -204 q 193 -208 210 -208 q 90 -120 90 -208 z "},"Ĩ":{"ha":333,"x_min":-58,"x_max":389,"o":"m -58 1053 q -20 1160 -57 1118 q 74 1202 17 1202 q 109 1197 90 1202 q 163 1177 128 1192 q 218 1157 200 1162 q 252 1152 236 1152 q 282 1199 282 1152 l 389 1199 q 351 1092 389 1136 q 258 1047 313 1047 q 223 1053 243 1047 q 168 1074 204 1059 q 112 1096 130 1090 q 78 1102 94 1102 q 47 1053 47 1102 l -58 1053 m 95 964 l 238 964 l 238 0 l 95 0 l 95 964 z "},"J":{"ha":566,"x_min":27,"x_max":471,"o":"m 27 142 l 199 142 q 291 180 253 142 q 329 270 329 217 l 329 964 l 471 964 l 471 268 q 435 133 471 194 q 336 36 398 73 q 199 0 275 0 l 27 0 l 27 142 z "},"Ĵ":{"ha":566,"x_min":27,"x_max":612,"o":"m 348 1256 l 453 1256 l 612 1046 l 516 1046 l 400 1163 l 285 1046 l 189 1046 l 348 1256 m 27 142 l 199 142 q 291 180 253 142 q 329 270 329 217 l 329 964 l 471 964 l 471 268 q 435 133 471 194 q 336 36 398 73 q 199 0 275 0 l 27 0 l 27 142 z "},"K":{"ha":945,"x_min":95,"x_max":918,"o":"m 95 964 l 238 964 l 238 574 l 309 574 l 692 964 l 889 964 l 422 488 l 918 0 l 718 0 l 280 431 l 238 431 l 238 0 l 95 0 l 95 964 z "},"L":{"ha":869,"x_min":95,"x_max":842,"o":"m 95 964 l 237 964 l 237 270 q 275 180 237 217 q 364 142 312 142 l 842 142 l 842 0 l 364 0 q 229 36 290 0 q 131 134 168 73 q 95 270 95 195 l 95 964 z "},"Ĺ":{"ha":869,"x_min":89,"x_max":842,"o":"m 176 1333 l 300 1274 l 166 1047 l 89 1083 l 176 1333 m 95 964 l 237 964 l 237 270 q 275 180 237 217 q 364 142 312 142 l 842 142 l 842 0 l 364 0 q 229 36 290 0 q 131 134 168 73 q 95 270 95 195 l 95 964 z "},"Ľ":{"ha":1151,"x_min":95,"x_max":1178,"o":"m 1054 964 l 1178 905 l 1044 678 l 966 714 l 1054 964 m 95 964 l 237 964 l 237 270 q 275 180 237 217 q 364 142 312 142 l 842 142 l 842 0 l 364 0 q 229 36 290 0 q 131 134 168 73 q 95 270 95 195 l 95 964 z "},"Ŀ":{"ha":869,"x_min":95,"x_max":842,"o":"m 95 964 l 237 964 l 237 270 q 275 180 237 217 q 364 142 312 142 l 842 142 l 842 0 l 364 0 q 229 36 290 0 q 131 134 168 73 q 95 270 95 195 l 95 964 m 394 483 q 416 536 394 514 q 469 557 437 557 q 522 536 500 557 q 544 483 544 514 q 522 430 544 452 q 469 408 500 408 q 416 430 437 408 q 394 483 394 452 z "},"Ł":{"ha":958,"x_min":41,"x_max":918,"o":"m 170 499 l 170 964 l 313 964 l 313 581 l 391 627 l 441 541 l 313 466 l 313 270 q 350 180 313 217 q 439 142 387 142 l 918 142 l 918 0 l 439 0 q 304 36 366 0 q 207 134 243 73 q 170 270 170 195 l 170 384 l 91 338 l 41 425 l 170 499 z "},"M":{"ha":1074,"x_min":95,"x_max":979,"o":"m 95 964 l 226 964 l 537 584 l 848 964 l 979 964 l 979 0 l 836 0 l 836 721 l 597 431 l 478 431 l 238 721 l 238 0 l 95 0 l 95 964 z "},"Ṁ":{"ha":1074,"x_min":95,"x_max":979,"o":"m 463 1122 q 485 1175 463 1154 q 538 1197 507 1197 q 591 1175 569 1197 q 612 1122 612 1154 q 591 1069 612 1090 q 538 1047 569 1047 q 485 1069 507 1047 q 463 1122 463 1090 m 95 964 l 226 964 l 537 584 l 848 964 l 979 964 l 979 0 l 836 0 l 836 721 l 597 431 l 478 431 l 238 721 l 238 0 l 95 0 l 95 964 z "},"N":{"ha":939,"x_min":95,"x_max":844,"o":"m 95 964 l 281 964 l 701 207 l 701 964 l 844 964 l 844 0 l 658 0 l 238 747 l 238 0 l 95 0 l 95 964 z "},"Ń":{"ha":939,"x_min":95,"x_max":844,"o":"m 479 1333 l 604 1274 l 469 1047 l 392 1083 l 479 1333 m 95 964 l 281 964 l 701 207 l 701 964 l 844 964 l 844 0 l 658 0 l 238 747 l 238 0 l 95 0 l 95 964 z "},"Ň":{"ha":939,"x_min":95,"x_max":844,"o":"m 353 1257 l 469 1140 l 585 1257 l 680 1257 l 522 1047 l 416 1047 l 258 1257 l 353 1257 m 95 964 l 281 964 l 701 207 l 701 964 l 844 964 l 844 0 l 658 0 l 238 747 l 238 0 l 95 0 l 95 964 z "},"Ñ":{"ha":939,"x_min":95,"x_max":844,"o":"m 245 1053 q 283 1160 246 1118 q 377 1202 320 1202 q 412 1197 393 1202 q 466 1177 431 1192 q 521 1157 503 1162 q 555 1152 539 1152 q 585 1199 585 1152 l 692 1199 q 654 1092 692 1136 q 562 1047 616 1047 q 527 1053 546 1047 q 471 1074 507 1059 q 415 1096 433 1090 q 381 1102 397 1102 q 351 1053 351 1102 l 245 1053 m 95 964 l 281 964 l 701 207 l 701 964 l 844 964 l 844 0 l 658 0 l 238 747 l 238 0 l 95 0 l 95 964 z "},"Ŋ":{"ha":939,"x_min":95,"x_max":844,"o":"m 95 964 l 281 964 l 701 207 l 701 964 l 844 964 l 844 -41 q 821 -175 844 -126 q 744 -245 798 -224 q 593 -265 689 -265 l 593 -122 q 666 -117 643 -122 q 694 -95 688 -113 q 701 -41 701 -78 l 701 0 l 658 0 l 238 747 l 238 0 l 95 0 l 95 964 z "},"O":{"ha":991,"x_min":95,"x_max":896,"o":"m 95 693 q 134 830 95 768 q 238 928 173 891 q 382 964 303 964 l 608 964 q 753 928 688 964 q 857 830 819 891 q 896 693 896 768 l 896 271 q 857 135 896 197 q 753 37 819 73 q 608 0 688 0 l 382 0 q 238 37 303 0 q 134 135 173 73 q 95 271 95 197 l 95 693 m 238 271 q 280 180 238 218 q 382 142 323 142 l 608 142 q 711 180 669 142 q 753 271 753 218 l 753 694 q 711 784 753 747 q 608 822 669 822 l 382 822 q 280 784 323 822 q 238 694 238 747 l 238 271 z "},"Ó":{"ha":991,"x_min":95,"x_max":896,"o":"m 506 1333 l 630 1274 l 496 1047 l 418 1083 l 506 1333 m 95 693 q 134 830 95 768 q 238 928 173 891 q 382 964 303 964 l 608 964 q 753 928 688 964 q 857 830 819 891 q 896 693 896 768 l 896 271 q 857 135 896 197 q 753 37 819 73 q 608 0 688 0 l 382 0 q 238 37 303 0 q 134 135 173 73 q 95 271 95 197 l 95 693 m 238 271 q 280 180 238 218 q 382 142 323 142 l 608 142 q 711 180 669 142 q 753 271 753 218 l 753 694 q 711 784 753 747 q 608 822 669 822 l 382 822 q 280 784 323 822 q 238 694 238 747 l 238 271 z "},"Ŏ":{"ha":991,"x_min":95,"x_max":896,"o":"m 385 1251 q 417 1172 385 1205 q 496 1139 450 1139 q 574 1172 542 1139 q 607 1251 607 1205 l 698 1251 q 670 1149 698 1195 q 597 1076 643 1103 q 496 1048 551 1048 q 394 1076 440 1048 q 321 1149 349 1103 q 294 1251 294 1195 l 385 1251 m 95 693 q 134 830 95 768 q 238 928 173 891 q 382 964 303 964 l 608 964 q 753 928 688 964 q 857 830 819 891 q 896 693 896 768 l 896 271 q 857 135 896 197 q 753 37 819 73 q 608 0 688 0 l 382 0 q 238 37 303 0 q 134 135 173 73 q 95 271 95 197 l 95 693 m 238 271 q 280 180 238 218 q 382 142 323 142 l 608 142 q 711 180 669 142 q 753 271 753 218 l 753 694 q 711 784 753 747 q 608 822 669 822 l 382 822 q 280 784 323 822 q 238 694 238 747 l 238 271 z "},"Ô":{"ha":991,"x_min":95,"x_max":896,"o":"m 444 1256 l 549 1256 l 707 1046 l 612 1046 l 496 1163 l 380 1046 l 285 1046 l 444 1256 m 95 693 q 134 830 95 768 q 238 928 173 891 q 382 964 303 964 l 608 964 q 753 928 688 964 q 857 830 819 891 q 896 693 896 768 l 896 271 q 857 135 896 197 q 753 37 819 73 q 608 0 688 0 l 382 0 q 238 37 303 0 q 134 135 173 73 q 95 271 95 197 l 95 693 m 238 271 q 280 180 238 218 q 382 142 323 142 l 608 142 q 711 180 669 142 q 753 271 753 218 l 753 694 q 711 784 753 747 q 608 822 669 822 l 382 822 q 280 784 323 822 q 238 694 238 747 l 238 271 z "},"Ö":{"ha":991,"x_min":95,"x_max":896,"o":"m 306 1122 q 328 1176 306 1154 q 380 1198 349 1198 q 434 1176 412 1198 q 456 1122 456 1154 q 434 1069 456 1091 q 380 1048 412 1048 q 328 1069 349 1048 q 306 1122 306 1091 m 536 1122 q 558 1176 536 1154 q 611 1198 580 1198 q 665 1176 643 1198 q 686 1122 686 1154 q 665 1069 686 1091 q 611 1048 643 1048 q 558 1069 580 1048 q 536 1122 536 1091 m 95 693 q 134 830 95 768 q 238 928 173 891 q 382 964 303 964 l 608 964 q 753 928 688 964 q 857 830 819 891 q 896 693 896 768 l 896 271 q 857 135 896 197 q 753 37 819 73 q 608 0 688 0 l 382 0 q 238 37 303 0 q 134 135 173 73 q 95 271 95 197 l 95 693 m 238 271 q 280 180 238 218 q 382 142 323 142 l 608 142 q 711 180 669 142 q 753 271 753 218 l 753 694 q 711 784 753 747 q 608 822 669 822 l 382 822 q 280 784 323 822 q 238 694 238 747 l 238 271 z "},"Ò":{"ha":991,"x_min":95,"x_max":896,"o":"m 486 1333 l 573 1083 l 496 1047 l 361 1274 l 486 1333 m 95 693 q 134 830 95 768 q 238 928 173 891 q 382 964 303 964 l 608 964 q 753 928 688 964 q 857 830 819 891 q 896 693 896 768 l 896 271 q 857 135 896 197 q 753 37 819 73 q 608 0 688 0 l 382 0 q 238 37 303 0 q 134 135 173 73 q 95 271 95 197 l 95 693 m 238 271 q 280 180 238 218 q 382 142 323 142 l 608 142 q 711 180 669 142 q 753 271 753 218 l 753 694 q 711 784 753 747 q 608 822 669 822 l 382 822 q 280 784 323 822 q 238 694 238 747 l 238 271 z "},"Ő":{"ha":991,"x_min":95,"x_max":896,"o":"m 377 1333 l 501 1274 l 367 1047 l 290 1083 l 377 1333 m 635 1333 l 759 1274 l 625 1047 l 547 1083 l 635 1333 m 95 693 q 134 830 95 768 q 238 928 173 891 q 382 964 303 964 l 608 964 q 753 928 688 964 q 857 830 819 891 q 896 693 896 768 l 896 271 q 857 135 896 197 q 753 37 819 73 q 608 0 688 0 l 382 0 q 238 37 303 0 q 134 135 173 73 q 95 271 95 197 l 95 693 m 238 271 q 280 180 238 218 q 382 142 323 142 l 608 142 q 711 180 669 142 q 753 271 753 218 l 753 694 q 711 784 753 747 q 608 822 669 822 l 382 822 q 280 784 323 822 q 238 694 238 747 l 238 271 z "},"Ō":{"ha":991,"x_min":95,"x_max":896,"o":"m 293 1147 l 698 1147 l 698 1047 l 293 1047 l 293 1147 m 95 693 q 134 830 95 768 q 238 928 173 891 q 382 964 303 964 l 608 964 q 753 928 688 964 q 857 830 819 891 q 896 693 896 768 l 896 271 q 857 135 896 197 q 753 37 819 73 q 608 0 688 0 l 382 0 q 238 37 303 0 q 134 135 173 73 q 95 271 95 197 l 95 693 m 238 271 q 280 180 238 218 q 382 142 323 142 l 608 142 q 711 180 669 142 q 753 271 753 218 l 753 694 q 711 784 753 747 q 608 822 669 822 l 382 822 q 280 784 323 822 q 238 694 238 747 l 238 271 z "},"Ø":{"ha":991,"x_min":71,"x_max":920,"o":"m 152 112 q 97 271 97 182 l 97 693 q 136 830 97 768 q 240 928 175 891 q 385 964 305 964 l 611 964 q 731 939 673 964 l 816 1061 l 920 988 l 834 864 q 899 693 899 789 l 899 271 q 860 135 899 197 q 756 37 821 73 q 611 0 690 0 l 385 0 q 251 31 317 0 l 176 -75 l 71 -3 l 152 112 m 241 271 q 243 243 241 254 l 646 818 q 611 822 629 822 l 385 822 q 283 785 325 822 q 241 694 241 747 l 241 271 m 334 151 q 385 142 358 142 l 611 142 q 713 180 671 142 q 755 271 755 217 l 755 694 q 746 739 755 720 l 334 151 z "},"Ǿ":{"ha":991,"x_min":71,"x_max":920,"o":"m 506 1333 l 630 1274 l 496 1047 l 418 1083 l 506 1333 m 152 112 q 97 271 97 182 l 97 693 q 136 830 97 768 q 240 928 175 891 q 385 964 305 964 l 611 964 q 731 939 673 964 l 816 1061 l 920 988 l 834 864 q 899 693 899 789 l 899 271 q 860 135 899 197 q 756 37 821 73 q 611 0 690 0 l 385 0 q 251 31 317 0 l 176 -75 l 71 -3 l 152 112 m 241 271 q 243 243 241 254 l 646 818 q 611 822 629 822 l 385 822 q 283 785 325 822 q 241 694 241 747 l 241 271 m 334 151 q 385 142 358 142 l 611 142 q 713 180 671 142 q 755 271 755 217 l 755 694 q 746 739 755 720 l 334 151 z "},"Õ":{"ha":991,"x_min":95,"x_max":896,"o":"m 272 1053 q 310 1160 273 1118 q 404 1202 347 1202 q 438 1197 419 1202 q 492 1177 458 1192 q 548 1157 530 1162 q 581 1152 566 1152 q 612 1199 612 1152 l 718 1199 q 680 1092 718 1136 q 588 1047 642 1047 q 553 1053 572 1047 q 498 1074 534 1059 q 441 1096 460 1090 q 408 1102 423 1102 q 377 1053 377 1102 l 272 1053 m 95 693 q 134 830 95 768 q 238 928 173 891 q 382 964 303 964 l 608 964 q 753 928 688 964 q 857 830 819 891 q 896 693 896 768 l 896 271 q 857 135 896 197 q 753 37 819 73 q 608 0 688 0 l 382 0 q 238 37 303 0 q 134 135 173 73 q 95 271 95 197 l 95 693 m 238 271 q 280 180 238 218 q 382 142 323 142 l 608 142 q 711 180 669 142 q 753 271 753 218 l 753 694 q 711 784 753 747 q 608 822 669 822 l 382 822 q 280 784 323 822 q 238 694 238 747 l 238 271 z "},"Œ":{"ha":1582,"x_min":95,"x_max":1501,"o":"m 95 693 q 134 830 95 768 q 238 928 173 891 q 382 964 303 964 l 608 964 q 753 928 686 964 l 753 964 l 1501 964 l 1501 822 l 896 822 l 896 143 l 1501 143 l 1501 0 l 753 0 l 753 37 q 608 0 686 0 l 382 0 q 238 37 303 0 q 134 135 173 73 q 95 271 95 197 l 95 693 m 238 271 q 280 180 238 218 q 382 142 323 142 l 608 142 q 711 180 669 142 q 753 271 753 218 l 753 694 q 711 784 753 747 q 608 822 669 822 l 382 822 q 280 784 323 822 q 238 694 238 747 l 238 271 m 977 573 l 1501 573 l 1501 431 l 977 431 l 977 573 z "},"P":{"ha":914,"x_min":95,"x_max":843,"o":"m 95 964 l 605 964 q 725 932 671 964 q 811 846 779 900 q 843 727 843 793 l 843 631 q 811 513 843 566 q 725 428 779 460 q 605 397 671 397 l 319 397 l 319 539 l 605 539 q 673 566 645 539 q 701 633 701 593 l 701 727 q 673 794 701 766 q 605 822 645 822 l 238 822 l 238 0 l 95 0 l 95 964 z "},"Ṗ":{"ha":914,"x_min":95,"x_max":843,"o":"m 382 1122 q 404 1175 382 1154 q 457 1197 426 1197 q 510 1175 488 1197 q 532 1122 532 1154 q 510 1069 532 1090 q 457 1047 488 1047 q 404 1069 426 1047 q 382 1122 382 1090 m 95 964 l 605 964 q 725 932 671 964 q 811 846 779 900 q 843 727 843 793 l 843 631 q 811 513 843 566 q 725 428 779 460 q 605 397 671 397 l 319 397 l 319 539 l 605 539 q 673 566 645 539 q 701 633 701 593 l 701 727 q 673 794 701 766 q 605 822 645 822 l 238 822 l 238 0 l 95 0 l 95 964 z "},"Þ":{"ha":810,"x_min":81,"x_max":743,"o":"m 81 964 l 224 964 l 224 805 q 336 831 280 831 l 489 831 q 616 797 559 831 q 708 705 674 762 q 743 577 743 647 l 743 382 q 708 254 743 312 q 616 162 674 197 q 489 128 559 128 l 336 128 q 224 154 280 128 l 224 0 l 81 0 l 81 964 m 225 383 q 258 304 225 337 q 336 271 290 271 l 489 271 q 567 304 535 271 q 600 383 600 337 l 600 576 q 567 655 600 622 q 489 688 535 688 l 336 688 q 258 655 290 688 q 225 576 225 622 l 225 383 z "},"Q":{"ha":991,"x_min":95,"x_max":896,"o":"m 95 693 q 134 830 95 768 q 238 928 173 891 q 382 964 303 964 l 608 964 q 753 928 688 964 q 857 830 819 891 q 896 693 896 768 l 896 271 q 863 145 896 203 q 773 49 830 87 q 645 2 717 11 l 730 -83 l 629 -185 l 444 0 l 382 0 q 238 37 303 0 q 134 135 173 73 q 95 271 95 197 l 95 693 m 238 271 q 280 180 238 218 q 382 142 323 142 l 608 142 q 711 180 669 142 q 753 271 753 218 l 753 694 q 711 784 753 747 q 608 822 669 822 l 382 822 q 280 784 323 822 q 238 694 238 747 l 238 271 z "},"R":{"ha":932,"x_min":95,"x_max":892,"o":"m 95 964 l 605 964 q 725 932 671 964 q 811 846 779 900 q 843 727 843 793 l 843 631 q 811 512 843 565 q 726 428 780 459 q 604 397 671 397 l 892 0 l 718 0 l 430 397 l 319 397 l 319 539 l 605 539 q 673 567 645 539 q 701 633 701 594 l 701 727 q 673 794 701 766 q 605 822 645 822 l 238 822 l 238 0 l 95 0 l 95 964 z "},"Ŕ":{"ha":932,"x_min":95,"x_max":892,"o":"m 504 1333 l 628 1274 l 494 1047 l 416 1083 l 504 1333 m 95 964 l 605 964 q 725 932 671 964 q 811 846 779 900 q 843 727 843 793 l 843 631 q 811 512 843 565 q 726 428 780 459 q 604 397 671 397 l 892 0 l 718 0 l 430 397 l 319 397 l 319 539 l 605 539 q 673 567 645 539 q 701 633 701 594 l 701 727 q 673 794 701 766 q 605 822 645 822 l 238 822 l 238 0 l 95 0 l 95 964 z "},"Ř":{"ha":932,"x_min":95,"x_max":892,"o":"m 350 1257 l 465 1140 l 581 1257 l 677 1257 l 518 1047 l 413 1047 l 254 1257 l 350 1257 m 95 964 l 605 964 q 725 932 671 964 q 811 846 779 900 q 843 727 843 793 l 843 631 q 811 512 843 565 q 726 428 780 459 q 604 397 671 397 l 892 0 l 718 0 l 430 397 l 319 397 l 319 539 l 605 539 q 673 567 645 539 q 701 633 701 594 l 701 727 q 673 794 701 766 q 605 822 645 822 l 238 822 l 238 0 l 95 0 l 95 964 z "},"S":{"ha":949,"x_min":81,"x_max":867,"o":"m 81 731 q 114 848 81 795 q 200 933 146 901 q 321 964 255 964 l 820 964 l 820 822 l 321 822 q 253 794 281 822 q 224 727 224 766 l 224 661 q 253 599 224 625 q 321 573 281 573 l 628 573 q 749 542 694 573 q 835 457 803 510 q 867 339 867 404 l 867 234 q 835 116 867 170 q 749 32 803 63 q 628 0 694 0 l 82 0 l 82 143 l 628 143 q 696 170 668 143 q 724 235 724 197 l 724 338 q 696 404 724 376 q 628 431 668 431 l 321 431 q 200 461 255 431 q 114 545 146 492 q 81 660 81 597 l 81 731 z "},"Ś":{"ha":949,"x_min":81,"x_max":867,"o":"m 485 1333 l 609 1274 l 475 1047 l 397 1083 l 485 1333 m 81 731 q 114 848 81 795 q 200 933 146 901 q 321 964 255 964 l 820 964 l 820 822 l 321 822 q 253 794 281 822 q 224 727 224 766 l 224 661 q 253 599 224 625 q 321 573 281 573 l 628 573 q 749 542 694 573 q 835 457 803 510 q 867 339 867 404 l 867 234 q 835 116 867 170 q 749 32 803 63 q 628 0 694 0 l 82 0 l 82 143 l 628 143 q 696 170 668 143 q 724 235 724 197 l 724 338 q 696 404 724 376 q 628 431 668 431 l 321 431 q 200 461 255 431 q 114 545 146 492 q 81 660 81 597 l 81 731 z "},"Š":{"ha":949,"x_min":81,"x_max":867,"o":"m 359 1257 l 474 1140 l 590 1257 l 686 1257 l 527 1047 l 422 1047 l 263 1257 l 359 1257 m 81 731 q 114 848 81 795 q 200 933 146 901 q 321 964 255 964 l 820 964 l 820 822 l 321 822 q 253 794 281 822 q 224 727 224 766 l 224 661 q 253 599 224 625 q 321 573 281 573 l 628 573 q 749 542 694 573 q 835 457 803 510 q 867 339 867 404 l 867 234 q 835 116 867 170 q 749 32 803 63 q 628 0 694 0 l 82 0 l 82 143 l 628 143 q 696 170 668 143 q 724 235 724 197 l 724 338 q 696 404 724 376 q 628 431 668 431 l 321 431 q 200 461 255 431 q 114 545 146 492 q 81 660 81 597 l 81 731 z "},"Ş":{"ha":949,"x_min":81,"x_max":867,"o":"m 348 -97 q 402 -105 390 -104 q 422 -106 414 -106 q 450 -85 450 -106 q 446 -59 450 -75 q 425 0 441 -42 l 82 0 l 82 143 l 628 143 q 696 170 668 143 q 724 235 724 197 l 724 338 q 696 404 724 376 q 628 431 668 431 l 321 431 q 200 461 255 431 q 114 545 146 492 q 81 660 81 597 l 81 731 q 114 848 81 795 q 200 933 146 901 q 321 964 255 964 l 820 964 l 820 822 l 321 822 q 253 794 281 822 q 224 727 224 766 l 224 661 q 253 599 224 625 q 321 573 281 573 l 628 573 q 749 542 694 573 q 835 457 803 510 q 867 339 867 404 l 867 234 q 835 116 867 170 q 749 32 803 63 q 628 0 694 0 l 526 0 q 553 -120 553 -73 q 450 -208 553 -208 q 413 -206 433 -208 q 348 -197 393 -204 l 348 -97 z "},"Ŝ":{"ha":949,"x_min":81,"x_max":867,"o":"m 422 1256 l 528 1256 l 686 1046 l 591 1046 l 475 1163 l 359 1046 l 264 1046 l 422 1256 m 81 731 q 114 848 81 795 q 200 933 146 901 q 321 964 255 964 l 820 964 l 820 822 l 321 822 q 253 794 281 822 q 224 727 224 766 l 224 661 q 253 599 224 625 q 321 573 281 573 l 628 573 q 749 542 694 573 q 835 457 803 510 q 867 339 867 404 l 867 234 q 835 116 867 170 q 749 32 803 63 q 628 0 694 0 l 82 0 l 82 143 l 628 143 q 696 170 668 143 q 724 235 724 197 l 724 338 q 696 404 724 376 q 628 431 668 431 l 321 431 q 200 461 255 431 q 114 545 146 492 q 81 660 81 597 l 81 731 z "},"Ș":{"ha":949,"x_min":81,"x_max":867,"o":"m 81 731 q 114 848 81 795 q 200 933 146 901 q 321 964 255 964 l 820 964 l 820 822 l 321 822 q 253 794 281 822 q 224 727 224 766 l 224 661 q 253 599 224 625 q 321 573 281 573 l 628 573 q 749 542 694 573 q 835 457 803 510 q 867 339 867 404 l 867 234 q 835 116 867 170 q 749 32 803 63 q 628 0 694 0 l 545 0 l 459 -277 l 352 -277 l 402 0 l 82 0 l 82 143 l 628 143 q 696 170 668 143 q 724 235 724 197 l 724 338 q 696 404 724 376 q 628 431 668 431 l 321 431 q 200 461 255 431 q 114 545 146 492 q 81 660 81 597 l 81 731 z "},"Ṡ":{"ha":949,"x_min":81,"x_max":867,"o":"m 399 1122 q 421 1175 399 1154 q 475 1197 444 1197 q 528 1175 506 1197 q 549 1122 549 1154 q 528 1069 549 1090 q 475 1047 506 1047 q 421 1069 444 1047 q 399 1122 399 1090 m 81 731 q 114 848 81 795 q 200 933 146 901 q 321 964 255 964 l 820 964 l 820 822 l 321 822 q 253 794 281 822 q 224 727 224 766 l 224 661 q 253 599 224 625 q 321 573 281 573 l 628 573 q 749 542 694 573 q 835 457 803 510 q 867 339 867 404 l 867 234 q 835 116 867 170 q 749 32 803 63 q 628 0 694 0 l 82 0 l 82 143 l 628 143 q 696 170 668 143 q 724 235 724 197 l 724 338 q 696 404 724 376 q 628 431 668 431 l 321 431 q 200 461 255 431 q 114 545 146 492 q 81 660 81 597 l 81 731 z "},"ẞ":{"ha":979,"x_min":95,"x_max":898,"o":"m 95 737 q 127 852 95 800 q 215 934 160 903 q 336 964 270 964 l 638 964 q 759 934 705 964 q 846 852 813 903 q 878 737 878 800 l 878 674 q 807 514 878 568 q 898 335 898 464 l 898 227 q 865 113 898 164 q 778 31 833 61 q 657 0 724 0 l 311 0 l 311 142 l 650 142 q 725 167 694 142 q 755 227 755 192 l 755 335 q 725 406 755 379 q 644 433 694 433 l 311 433 l 311 576 l 638 576 q 707 605 679 576 q 736 674 736 633 l 736 737 q 707 797 736 772 q 638 822 679 822 l 336 822 q 267 797 296 822 q 238 737 238 772 l 238 0 l 95 0 l 95 737 z "},"T":{"ha":840,"x_min":27,"x_max":812,"o":"m 27 964 l 812 964 l 812 822 l 492 822 l 492 0 l 348 0 l 348 822 l 27 822 l 27 964 z "},"Ŧ":{"ha":840,"x_min":27,"x_max":812,"o":"m 27 964 l 812 964 l 812 822 l 496 822 l 496 574 l 648 574 l 648 430 l 496 430 l 496 0 l 351 0 l 351 430 l 197 430 l 197 574 l 351 574 l 351 822 l 27 822 l 27 964 z "},"Ť":{"ha":840,"x_min":27,"x_max":812,"o":"m 304 1257 l 419 1140 l 535 1257 l 631 1257 l 472 1047 l 367 1047 l 208 1257 l 304 1257 m 27 964 l 812 964 l 812 822 l 492 822 l 492 0 l 348 0 l 348 822 l 27 822 l 27 964 z "},"Ṫ":{"ha":840,"x_min":27,"x_max":812,"o":"m 345 1122 q 367 1175 345 1154 q 420 1197 389 1197 q 473 1175 451 1197 q 494 1122 494 1154 q 473 1069 494 1090 q 420 1047 451 1047 q 367 1069 389 1047 q 345 1122 345 1090 m 27 964 l 812 964 l 812 822 l 492 822 l 492 0 l 348 0 l 348 822 l 27 822 l 27 964 z "},"U":{"ha":975,"x_min":95,"x_max":880,"o":"m 95 964 l 238 964 l 238 271 q 277 180 238 218 q 370 143 315 143 l 606 143 q 699 180 661 143 q 738 271 738 218 l 738 964 l 880 964 l 880 269 q 843 134 880 195 q 744 36 806 73 q 606 0 682 0 l 370 0 q 231 36 294 0 q 132 134 169 73 q 95 269 95 195 l 95 964 z "},"Ú":{"ha":975,"x_min":95,"x_max":880,"o":"m 497 1333 l 621 1274 l 487 1047 l 410 1083 l 497 1333 m 95 964 l 238 964 l 238 271 q 277 180 238 218 q 370 143 315 143 l 606 143 q 699 180 661 143 q 738 271 738 218 l 738 964 l 880 964 l 880 269 q 843 134 880 195 q 744 36 806 73 q 606 0 682 0 l 370 0 q 231 36 294 0 q 132 134 169 73 q 95 269 95 195 l 95 964 z "},"Ŭ":{"ha":975,"x_min":95,"x_max":880,"o":"m 376 1251 q 409 1172 376 1205 q 487 1139 441 1139 q 566 1172 533 1139 q 598 1251 598 1205 l 689 1251 q 662 1149 689 1195 q 588 1076 634 1103 q 487 1048 543 1048 q 386 1076 431 1048 q 312 1149 340 1103 q 285 1251 285 1195 l 376 1251 m 95 964 l 238 964 l 238 271 q 277 180 238 218 q 370 143 315 143 l 606 143 q 699 180 661 143 q 738 271 738 218 l 738 964 l 880 964 l 880 269 q 843 134 880 195 q 744 36 806 73 q 606 0 682 0 l 370 0 q 231 36 294 0 q 132 134 169 73 q 95 269 95 195 l 95 964 z "},"Û":{"ha":975,"x_min":95,"x_max":880,"o":"m 435 1256 l 540 1256 l 699 1046 l 603 1046 l 487 1163 l 372 1046 l 276 1046 l 435 1256 m 95 964 l 238 964 l 238 271 q 277 180 238 218 q 370 143 315 143 l 606 143 q 699 180 661 143 q 738 271 738 218 l 738 964 l 880 964 l 880 269 q 843 134 880 195 q 744 36 806 73 q 606 0 682 0 l 370 0 q 231 36 294 0 q 132 134 169 73 q 95 269 95 195 l 95 964 z "},"Ü":{"ha":975,"x_min":95,"x_max":880,"o":"m 297 1122 q 319 1176 297 1154 q 372 1198 340 1198 q 425 1176 404 1198 q 447 1122 447 1154 q 425 1069 447 1091 q 372 1048 404 1048 q 319 1069 340 1048 q 297 1122 297 1091 m 528 1122 q 549 1176 528 1154 q 602 1198 571 1198 q 656 1176 634 1198 q 677 1122 677 1154 q 656 1069 677 1091 q 602 1048 634 1048 q 549 1069 571 1048 q 528 1122 528 1091 m 95 964 l 238 964 l 238 271 q 277 180 238 218 q 370 143 315 143 l 606 143 q 699 180 661 143 q 738 271 738 218 l 738 964 l 880 964 l 880 269 q 843 134 880 195 q 744 36 806 73 q 606 0 682 0 l 370 0 q 231 36 294 0 q 132 134 169 73 q 95 269 95 195 l 95 964 z "},"Ù":{"ha":975,"x_min":95,"x_max":880,"o":"m 477 1333 l 564 1083 l 487 1047 l 353 1274 l 477 1333 m 95 964 l 238 964 l 238 271 q 277 180 238 218 q 370 143 315 143 l 606 143 q 699 180 661 143 q 738 271 738 218 l 738 964 l 880 964 l 880 269 q 843 134 880 195 q 744 36 806 73 q 606 0 682 0 l 370 0 q 231 36 294 0 q 132 134 169 73 q 95 269 95 195 l 95 964 z "},"Ű":{"ha":975,"x_min":95,"x_max":880,"o":"m 369 1333 l 493 1274 l 359 1047 l 281 1083 l 369 1333 m 627 1333 l 751 1274 l 616 1047 l 539 1083 l 627 1333 m 95 964 l 238 964 l 238 271 q 277 180 238 218 q 370 143 315 143 l 606 143 q 699 180 661 143 q 738 271 738 218 l 738 964 l 880 964 l 880 269 q 843 134 880 195 q 744 36 806 73 q 606 0 682 0 l 370 0 q 231 36 294 0 q 132 134 169 73 q 95 269 95 195 l 95 964 z "},"Ū":{"ha":975,"x_min":95,"x_max":880,"o":"m 284 1147 l 689 1147 l 689 1047 l 284 1047 l 284 1147 m 95 964 l 238 964 l 238 271 q 277 180 238 218 q 370 143 315 143 l 606 143 q 699 180 661 143 q 738 271 738 218 l 738 964 l 880 964 l 880 269 q 843 134 880 195 q 744 36 806 73 q 606 0 682 0 l 370 0 q 231 36 294 0 q 132 134 169 73 q 95 269 95 195 l 95 964 z "},"Ų":{"ha":975,"x_min":95,"x_max":880,"o":"m 410 -120 q 437 0 410 -72 l 370 0 q 231 36 294 0 q 132 134 169 73 q 95 269 95 195 l 95 964 l 238 964 l 238 271 q 277 180 238 218 q 370 143 315 143 l 606 143 q 699 180 661 143 q 738 271 738 218 l 738 964 l 880 964 l 880 269 q 843 134 880 195 q 744 36 806 73 q 606 0 682 0 l 537 0 q 517 -59 522 -43 q 512 -85 512 -75 q 540 -106 512 -106 q 561 -105 549 -106 q 614 -97 573 -104 l 614 -197 q 550 -206 570 -204 q 513 -208 530 -208 q 410 -120 410 -208 z "},"Ů":{"ha":975,"x_min":95,"x_max":880,"o":"m 358 1191 q 392 1272 358 1239 q 473 1305 426 1305 l 500 1305 q 582 1272 549 1305 q 616 1191 616 1239 l 616 1162 q 582 1081 616 1114 q 500 1047 549 1047 l 473 1047 q 392 1081 426 1047 q 358 1162 358 1114 l 358 1191 m 438 1162 q 448 1137 438 1147 q 473 1127 458 1127 l 500 1127 q 526 1137 515 1127 q 536 1162 536 1147 l 536 1191 q 526 1215 536 1205 q 500 1225 515 1225 l 473 1225 q 448 1215 458 1225 q 438 1191 438 1205 l 438 1162 m 95 964 l 238 964 l 238 271 q 277 180 238 218 q 370 143 315 143 l 606 143 q 699 180 661 143 q 738 271 738 218 l 738 964 l 880 964 l 880 269 q 843 134 880 195 q 744 36 806 73 q 606 0 682 0 l 370 0 q 231 36 294 0 q 132 134 169 73 q 95 269 95 195 l 95 964 z "},"Ũ":{"ha":975,"x_min":95,"x_max":880,"o":"m 263 1053 q 301 1160 264 1118 q 395 1202 338 1202 q 430 1197 410 1202 q 484 1177 449 1192 q 539 1157 521 1162 q 572 1152 557 1152 q 603 1199 603 1152 l 709 1199 q 671 1092 709 1136 q 579 1047 633 1047 q 544 1053 564 1047 q 489 1074 525 1059 q 433 1096 451 1090 q 399 1102 414 1102 q 368 1053 368 1102 l 263 1053 m 95 964 l 238 964 l 238 271 q 277 180 238 218 q 370 143 315 143 l 606 143 q 699 180 661 143 q 738 271 738 218 l 738 964 l 880 964 l 880 269 q 843 134 880 195 q 744 36 806 73 q 606 0 682 0 l 370 0 q 231 36 294 0 q 132 134 169 73 q 95 269 95 195 l 95 964 z "},"V":{"ha":923,"x_min":27,"x_max":896,"o":"m 180 964 l 462 174 l 743 964 l 896 964 l 551 0 l 372 0 l 27 964 l 180 964 z "},"W":{"ha":1116,"x_min":47,"x_max":1069,"o":"m 191 964 l 317 237 l 491 553 l 626 553 l 800 237 l 926 964 l 1069 964 l 901 0 l 772 0 l 558 388 l 345 0 l 215 0 l 47 964 l 191 964 z "},"Ẃ":{"ha":1116,"x_min":47,"x_max":1069,"o":"m 568 1333 l 692 1274 l 558 1047 l 481 1083 l 568 1333 m 191 964 l 317 237 l 491 553 l 626 553 l 800 237 l 926 964 l 1069 964 l 901 0 l 772 0 l 558 388 l 345 0 l 215 0 l 47 964 l 191 964 z "},"Ŵ":{"ha":1116,"x_min":47,"x_max":1069,"o":"m 506 1256 l 611 1256 l 770 1046 l 674 1046 l 558 1163 l 443 1046 l 347 1046 l 506 1256 m 191 964 l 317 237 l 491 553 l 626 553 l 800 237 l 926 964 l 1069 964 l 901 0 l 772 0 l 558 388 l 345 0 l 215 0 l 47 964 l 191 964 z "},"Ẅ":{"ha":1116,"x_min":47,"x_max":1069,"o":"m 368 1122 q 390 1176 368 1154 q 443 1198 412 1198 q 496 1176 475 1198 q 518 1122 518 1154 q 496 1069 518 1091 q 443 1048 475 1048 q 390 1069 412 1048 q 368 1122 368 1091 m 599 1122 q 621 1176 599 1154 q 673 1198 642 1198 q 727 1176 705 1198 q 749 1122 749 1154 q 727 1069 749 1091 q 673 1048 705 1048 q 621 1069 642 1048 q 599 1122 599 1091 m 191 964 l 317 237 l 491 553 l 626 553 l 800 237 l 926 964 l 1069 964 l 901 0 l 772 0 l 558 388 l 345 0 l 215 0 l 47 964 l 191 964 z "},"Ẁ":{"ha":1116,"x_min":47,"x_max":1069,"o":"m 548 1333 l 635 1083 l 558 1047 l 424 1274 l 548 1333 m 191 964 l 317 237 l 491 553 l 626 553 l 800 237 l 926 964 l 1069 964 l 901 0 l 772 0 l 558 388 l 345 0 l 215 0 l 47 964 l 191 964 z "},"X":{"ha":930,"x_min":27,"x_max":903,"o":"m 376 482 l 27 964 l 202 964 l 466 599 l 729 964 l 903 964 l 555 482 l 903 0 l 729 0 l 466 366 l 202 0 l 27 0 l 376 482 z "},"Y":{"ha":930,"x_min":27,"x_max":903,"o":"m 201 964 l 466 599 l 729 964 l 903 964 l 539 460 l 539 0 l 393 0 l 393 460 l 27 964 l 201 964 z "},"Ý":{"ha":930,"x_min":27,"x_max":903,"o":"m 475 1333 l 600 1274 l 465 1047 l 388 1083 l 475 1333 m 201 964 l 466 599 l 729 964 l 903 964 l 539 460 l 539 0 l 393 0 l 393 460 l 27 964 l 201 964 z "},"Ŷ":{"ha":930,"x_min":27,"x_max":903,"o":"m 413 1256 l 518 1256 l 677 1046 l 581 1046 l 465 1163 l 350 1046 l 254 1046 l 413 1256 m 201 964 l 466 599 l 729 964 l 903 964 l 539 460 l 539 0 l 393 0 l 393 460 l 27 964 l 201 964 z "},"Ÿ":{"ha":930,"x_min":27,"x_max":903,"o":"m 275 1122 q 297 1176 275 1154 q 350 1198 319 1198 q 404 1176 382 1198 q 425 1122 425 1154 q 404 1069 425 1091 q 350 1048 382 1048 q 297 1069 319 1048 q 275 1122 275 1091 m 506 1122 q 528 1176 506 1154 q 581 1198 549 1198 q 634 1176 612 1198 q 656 1122 656 1154 q 634 1069 656 1091 q 581 1048 612 1048 q 528 1069 549 1048 q 506 1122 506 1091 m 201 964 l 466 599 l 729 964 l 903 964 l 539 460 l 539 0 l 393 0 l 393 460 l 27 964 l 201 964 z "},"Ỳ":{"ha":930,"x_min":27,"x_max":903,"o":"m 455 1333 l 543 1083 l 465 1047 l 331 1274 l 455 1333 m 201 964 l 466 599 l 729 964 l 903 964 l 539 460 l 539 0 l 393 0 l 393 460 l 27 964 l 201 964 z "},"Z":{"ha":913,"x_min":81,"x_max":832,"o":"m 81 105 l 629 822 l 81 822 l 81 964 l 832 964 l 832 858 l 286 141 l 829 141 l 829 0 l 81 0 l 81 105 z "},"Ź":{"ha":913,"x_min":81,"x_max":832,"o":"m 467 1333 l 591 1274 l 457 1047 l 380 1083 l 467 1333 m 81 105 l 629 822 l 81 822 l 81 964 l 832 964 l 832 858 l 286 141 l 829 141 l 829 0 l 81 0 l 81 105 z "},"Ž":{"ha":913,"x_min":81,"x_max":832,"o":"m 341 1257 l 456 1140 l 572 1257 l 668 1257 l 509 1047 l 404 1047 l 245 1257 l 341 1257 m 81 105 l 629 822 l 81 822 l 81 964 l 832 964 l 832 858 l 286 141 l 829 141 l 829 0 l 81 0 l 81 105 z "},"Ż":{"ha":913,"x_min":81,"x_max":832,"o":"m 382 1122 q 404 1175 382 1154 q 457 1197 426 1197 q 510 1175 488 1197 q 532 1122 532 1154 q 510 1069 532 1090 q 457 1047 488 1047 q 404 1069 426 1047 q 382 1122 382 1090 m 81 105 l 629 822 l 81 822 l 81 964 l 832 964 l 832 858 l 286 141 l 829 141 l 829 0 l 81 0 l 81 105 z "},"Ģ":{"ha":964,"x_min":81,"x_max":882,"o":"m 81 693 q 120 830 81 768 q 224 928 159 891 q 369 964 290 964 l 825 964 l 825 822 l 369 822 q 267 784 309 822 q 224 694 224 747 l 224 271 q 267 180 224 218 q 369 142 309 142 l 595 142 q 697 180 655 142 q 739 271 739 218 l 739 397 l 477 397 l 477 539 l 882 539 l 882 271 q 844 135 882 197 q 740 37 805 73 q 595 0 674 0 l 369 0 q 224 37 290 0 q 120 135 159 73 q 81 271 81 197 l 81 693 m 435 -81 l 578 -81 l 491 -362 l 384 -362 l 435 -81 z "},"Ķ":{"ha":945,"x_min":95,"x_max":918,"o":"m 95 964 l 238 964 l 238 574 l 309 574 l 692 964 l 889 964 l 422 488 l 918 0 l 718 0 l 280 431 l 238 431 l 238 0 l 95 0 l 95 964 m 401 -81 l 545 -81 l 457 -362 l 350 -362 l 401 -81 z "},"Ļ":{"ha":869,"x_min":95,"x_max":842,"o":"m 95 964 l 237 964 l 237 270 q 275 180 237 217 q 364 142 312 142 l 842 142 l 842 0 l 364 0 q 229 36 290 0 q 131 134 168 73 q 95 270 95 195 l 95 964 m 388 -81 l 532 -81 l 444 -362 l 337 -362 l 388 -81 z "},"Ņ":{"ha":939,"x_min":95,"x_max":844,"o":"m 95 964 l 281 964 l 701 207 l 701 964 l 844 964 l 844 0 l 658 0 l 238 747 l 238 0 l 95 0 l 95 964 m 422 -81 l 566 -81 l 479 -362 l 372 -362 l 422 -81 z "},"Ŗ":{"ha":932,"x_min":95,"x_max":892,"o":"m 95 964 l 605 964 q 725 932 671 964 q 811 846 779 900 q 843 727 843 793 l 843 631 q 811 512 843 565 q 726 428 780 459 q 604 397 671 397 l 892 0 l 718 0 l 430 397 l 319 397 l 319 539 l 605 539 q 673 567 645 539 q 701 633 701 594 l 701 727 q 673 794 701 766 q 605 822 645 822 l 238 822 l 238 0 l 95 0 l 95 964 m 419 -81 l 563 -81 l 475 -362 l 368 -362 l 419 -81 z "},"Ţ":{"ha":840,"x_min":27,"x_max":812,"o":"m 293 -97 q 347 -105 335 -104 q 368 -106 359 -106 q 395 -85 395 -106 q 391 -59 395 -75 q 370 0 386 -42 l 348 0 l 348 822 l 27 822 l 27 964 l 812 964 l 812 822 l 492 822 l 492 0 l 471 0 q 498 -120 498 -73 q 395 -208 498 -208 q 358 -206 378 -208 q 293 -197 338 -204 l 293 -97 z "},"Ț":{"ha":840,"x_min":27,"x_max":812,"o":"m 348 4 l 348 822 l 27 822 l 27 964 l 812 964 l 812 822 l 492 822 l 492 0 l 490 0 l 404 -277 l 297 -277 l 348 4 z "},"Ḃ":{"ha":955,"x_min":95,"x_max":880,"o":"m 402 1122 q 424 1175 402 1154 q 477 1197 446 1197 q 530 1175 509 1197 q 552 1122 552 1154 q 530 1069 552 1090 q 477 1047 509 1047 q 424 1069 446 1047 q 402 1122 402 1090 m 95 964 l 603 964 q 724 932 670 964 q 811 847 779 901 q 843 727 843 793 l 843 664 q 789 521 843 570 q 859 447 837 490 q 880 339 880 404 l 880 233 q 848 116 880 169 q 762 32 816 63 q 642 0 707 0 l 95 0 l 95 964 m 643 143 q 710 170 682 143 q 738 235 738 197 l 738 341 q 710 406 738 379 q 642 433 682 433 l 319 433 l 319 576 l 603 576 q 672 602 643 576 q 701 665 701 628 l 701 727 q 672 794 701 766 q 603 822 643 822 l 238 822 l 238 143 l 643 143 z "},"Ḟ":{"ha":822,"x_min":95,"x_max":741,"o":"m 336 1122 q 358 1175 336 1154 q 411 1197 380 1197 q 464 1175 442 1197 q 486 1122 486 1154 q 464 1069 486 1090 q 411 1047 442 1047 q 358 1069 380 1047 q 336 1122 336 1090 m 95 964 l 741 964 l 741 822 l 238 822 l 238 0 l 95 0 l 95 964 m 319 573 l 741 573 l 741 431 l 319 431 l 319 573 z "},"a":{"ha":802,"x_min":75,"x_max":720,"o":"m 75 450 q 109 577 75 520 q 201 668 143 634 q 328 703 258 703 l 720 703 l 720 0 l 577 0 l 577 559 l 328 559 q 250 527 283 559 q 218 449 218 495 l 218 255 q 250 176 218 209 q 328 143 283 143 l 496 143 l 496 0 l 328 0 q 201 34 258 0 q 109 126 143 68 q 75 254 75 184 l 75 450 z "},"á":{"ha":802,"x_min":75,"x_max":720,"o":"m 411 1072 l 535 1012 l 401 785 l 323 821 l 411 1072 m 75 450 q 109 577 75 520 q 201 668 143 634 q 328 703 258 703 l 720 703 l 720 0 l 577 0 l 577 559 l 328 559 q 250 527 283 559 q 218 449 218 495 l 218 255 q 250 176 218 209 q 328 143 283 143 l 496 143 l 496 0 l 328 0 q 201 34 258 0 q 109 126 143 68 q 75 254 75 184 l 75 450 z "},"ă":{"ha":802,"x_min":75,"x_max":720,"o":"m 290 989 q 322 910 290 943 q 401 878 355 878 q 479 910 447 878 q 512 989 512 943 l 603 989 q 575 887 603 933 q 502 814 548 842 q 401 787 456 787 q 299 814 345 787 q 226 887 254 842 q 199 989 199 933 l 290 989 m 75 450 q 109 577 75 520 q 201 668 143 634 q 328 703 258 703 l 720 703 l 720 0 l 577 0 l 577 559 l 328 559 q 250 527 283 559 q 218 449 218 495 l 218 255 q 250 176 218 209 q 328 143 283 143 l 496 143 l 496 0 l 328 0 q 201 34 258 0 q 109 126 143 68 q 75 254 75 184 l 75 450 z "},"â":{"ha":802,"x_min":75,"x_max":720,"o":"m 349 994 l 454 994 l 612 785 l 517 785 l 401 901 l 286 785 l 190 785 l 349 994 m 75 450 q 109 577 75 520 q 201 668 143 634 q 328 703 258 703 l 720 703 l 720 0 l 577 0 l 577 559 l 328 559 q 250 527 283 559 q 218 449 218 495 l 218 255 q 250 176 218 209 q 328 143 283 143 l 496 143 l 496 0 l 328 0 q 201 34 258 0 q 109 126 143 68 q 75 254 75 184 l 75 450 z "},"ä":{"ha":802,"x_min":75,"x_max":720,"o":"m 211 861 q 233 914 211 892 q 286 936 254 936 q 339 914 317 936 q 361 861 361 892 q 339 808 361 829 q 286 786 317 786 q 233 808 254 786 q 211 861 211 829 m 441 861 q 463 914 441 892 q 516 936 485 936 q 570 914 548 936 q 591 861 591 892 q 570 808 591 829 q 516 786 548 786 q 463 808 485 786 q 441 861 441 829 m 75 450 q 109 577 75 520 q 201 668 143 634 q 328 703 258 703 l 720 703 l 720 0 l 577 0 l 577 559 l 328 559 q 250 527 283 559 q 218 449 218 495 l 218 255 q 250 176 218 209 q 328 143 283 143 l 496 143 l 496 0 l 328 0 q 201 34 258 0 q 109 126 143 68 q 75 254 75 184 l 75 450 z "},"à":{"ha":802,"x_min":75,"x_max":720,"o":"m 391 1072 l 478 821 l 401 785 l 267 1012 l 391 1072 m 75 450 q 109 577 75 520 q 201 668 143 634 q 328 703 258 703 l 720 703 l 720 0 l 577 0 l 577 559 l 328 559 q 250 527 283 559 q 218 449 218 495 l 218 255 q 250 176 218 209 q 328 143 283 143 l 496 143 l 496 0 l 328 0 q 201 34 258 0 q 109 126 143 68 q 75 254 75 184 l 75 450 z "},"ā":{"ha":802,"x_min":75,"x_max":720,"o":"m 198 885 l 603 885 l 603 785 l 198 785 l 198 885 m 75 450 q 109 577 75 520 q 201 668 143 634 q 328 703 258 703 l 720 703 l 720 0 l 577 0 l 577 559 l 328 559 q 250 527 283 559 q 218 449 218 495 l 218 255 q 250 176 218 209 q 328 143 283 143 l 496 143 l 496 0 l 328 0 q 201 34 258 0 q 109 126 143 68 q 75 254 75 184 l 75 450 z "},"ą":{"ha":802,"x_min":75,"x_max":777,"o":"m 75 450 q 109 577 75 520 q 201 668 143 634 q 328 703 258 703 l 720 703 l 720 0 l 700 0 q 680 -59 684 -43 q 675 -85 675 -75 q 703 -106 675 -106 q 724 -105 711 -106 q 777 -97 736 -104 l 777 -197 q 712 -206 732 -204 q 675 -208 692 -208 q 572 -120 572 -208 q 600 0 572 -72 l 577 0 l 577 559 l 328 559 q 250 527 283 559 q 218 449 218 495 l 218 255 q 250 176 218 209 q 328 143 283 143 l 496 143 l 496 0 l 328 0 q 201 34 258 0 q 109 126 143 68 q 75 254 75 184 l 75 450 z "},"å":{"ha":802,"x_min":75,"x_max":720,"o":"m 272 929 q 306 1010 272 977 q 387 1044 340 1044 l 414 1044 q 496 1010 463 1044 q 530 929 530 977 l 530 900 q 496 819 530 852 q 414 785 463 785 l 387 785 q 306 819 340 785 q 272 900 272 852 l 272 929 m 352 900 q 362 876 352 886 q 387 865 372 865 l 414 865 q 439 876 429 865 q 450 900 450 886 l 450 929 q 439 954 450 943 q 414 964 429 964 l 387 964 q 362 954 372 964 q 352 929 352 943 l 352 900 m 75 450 q 109 577 75 520 q 201 668 143 634 q 328 703 258 703 l 720 703 l 720 0 l 577 0 l 577 559 l 328 559 q 250 527 283 559 q 218 449 218 495 l 218 255 q 250 176 218 209 q 328 143 283 143 l 496 143 l 496 0 l 328 0 q 201 34 258 0 q 109 126 143 68 q 75 254 75 184 l 75 450 z "},"ã":{"ha":802,"x_min":75,"x_max":720,"o":"m 177 791 q 215 898 178 856 q 309 941 252 941 q 343 935 324 941 q 397 916 363 930 q 453 895 435 901 q 486 890 471 890 q 517 937 517 890 l 623 937 q 585 830 623 874 q 493 785 547 785 q 458 791 477 785 q 403 812 439 798 q 347 834 365 829 q 313 840 328 840 q 282 791 282 840 l 177 791 m 75 450 q 109 577 75 520 q 201 668 143 634 q 328 703 258 703 l 720 703 l 720 0 l 577 0 l 577 559 l 328 559 q 250 527 283 559 q 218 449 218 495 l 218 255 q 250 176 218 209 q 328 143 283 143 l 496 143 l 496 0 l 328 0 q 201 34 258 0 q 109 126 143 68 q 75 254 75 184 l 75 450 z "},"æ":{"ha":1297,"x_min":75,"x_max":1223,"o":"m 75 450 q 109 577 75 520 q 201 668 143 634 q 328 703 258 703 l 1020 703 q 1122 675 1076 703 q 1195 601 1168 648 q 1223 498 1223 555 l 1223 479 q 1195 377 1223 423 q 1122 304 1168 332 q 1020 277 1076 277 l 802 277 l 802 419 l 1021 419 q 1063 437 1046 419 q 1080 479 1080 454 l 1080 498 q 1063 542 1080 524 q 1021 559 1046 559 l 720 559 l 720 199 q 736 159 720 176 q 774 143 751 143 l 1173 143 l 1173 0 l 774 0 q 720 7 751 0 l 720 0 l 577 0 l 577 559 l 328 559 q 250 527 283 559 q 218 449 218 495 l 218 255 q 250 176 218 209 q 328 143 283 143 l 496 143 l 496 0 l 328 0 q 201 34 258 0 q 109 126 143 68 q 75 254 75 184 l 75 450 z "},"ǽ":{"ha":1297,"x_min":75,"x_max":1223,"o":"m 659 1072 l 783 1012 l 648 785 l 571 821 l 659 1072 m 75 450 q 109 577 75 520 q 201 668 143 634 q 328 703 258 703 l 1020 703 q 1122 675 1076 703 q 1195 601 1168 648 q 1223 498 1223 555 l 1223 479 q 1195 377 1223 423 q 1122 304 1168 332 q 1020 277 1076 277 l 802 277 l 802 419 l 1021 419 q 1063 437 1046 419 q 1080 479 1080 454 l 1080 498 q 1063 542 1080 524 q 1021 559 1046 559 l 720 559 l 720 199 q 736 159 720 176 q 774 143 751 143 l 1173 143 l 1173 0 l 774 0 q 720 7 751 0 l 720 0 l 577 0 l 577 559 l 328 559 q 250 527 283 559 q 218 449 218 495 l 218 255 q 250 176 218 209 q 328 143 283 143 l 496 143 l 496 0 l 328 0 q 201 34 258 0 q 109 126 143 68 q 75 254 75 184 l 75 450 z "},"b":{"ha":802,"x_min":75,"x_max":720,"o":"m 75 964 l 218 964 l 218 143 l 467 143 q 545 176 513 143 q 577 254 577 208 l 577 448 q 545 527 577 494 q 467 559 513 559 l 299 559 l 299 703 l 467 703 q 594 668 536 703 q 686 576 652 634 q 720 449 720 519 l 720 252 q 686 126 720 183 q 594 34 652 68 q 467 0 536 0 l 218 0 q 117 42 159 0 q 75 143 75 84 l 75 964 z "},"ḃ":{"ha":802,"x_min":75,"x_max":720,"o":"m 75 964 l 218 964 l 218 143 l 467 143 q 545 176 513 143 q 577 254 577 208 l 577 448 q 545 527 577 494 q 467 559 513 559 l 299 559 l 299 703 l 467 703 q 594 668 536 703 q 686 576 652 634 q 720 449 720 519 l 720 252 q 686 126 720 183 q 594 34 652 68 q 467 0 536 0 l 218 0 q 117 42 159 0 q 75 143 75 84 l 75 964 m 326 860 q 348 913 326 892 q 401 935 370 935 q 454 913 433 935 q 476 860 476 892 q 454 807 476 829 q 401 785 433 785 q 348 807 370 785 q 326 860 326 829 z "},"c":{"ha":805,"x_min":75,"x_max":730,"o":"m 75 449 q 110 576 75 519 q 204 668 145 634 q 335 703 263 703 l 730 703 l 730 559 l 335 559 q 252 527 287 559 q 218 447 218 494 l 218 256 q 252 176 218 210 q 335 143 286 143 l 730 143 l 730 0 l 335 0 q 204 35 263 0 q 110 127 145 69 q 75 255 75 185 l 75 449 z "},"ć":{"ha":805,"x_min":75,"x_max":730,"o":"m 450 1072 l 574 1012 l 439 785 l 362 821 l 450 1072 m 75 449 q 110 576 75 519 q 204 668 145 634 q 335 703 263 703 l 730 703 l 730 559 l 335 559 q 252 527 287 559 q 218 447 218 494 l 218 256 q 252 176 218 210 q 335 143 286 143 l 730 143 l 730 0 l 335 0 q 204 35 263 0 q 110 127 145 69 q 75 255 75 185 l 75 449 z "},"č":{"ha":805,"x_min":75,"x_max":730,"o":"m 323 995 l 439 878 l 555 995 l 650 995 l 492 785 l 387 785 l 228 995 l 323 995 m 75 449 q 110 576 75 519 q 204 668 145 634 q 335 703 263 703 l 730 703 l 730 559 l 335 559 q 252 527 287 559 q 218 447 218 494 l 218 256 q 252 176 218 210 q 335 143 286 143 l 730 143 l 730 0 l 335 0 q 204 35 263 0 q 110 127 145 69 q 75 255 75 185 l 75 449 z "},"ç":{"ha":805,"x_min":75,"x_max":730,"o":"m 313 -98 q 367 -106 355 -104 q 387 -107 378 -107 q 415 -86 415 -107 q 410 -59 415 -76 q 390 0 405 -43 l 335 0 q 204 35 263 0 q 110 127 145 69 q 75 255 75 185 l 75 449 q 110 576 75 519 q 204 668 145 634 q 335 703 263 703 l 730 703 l 730 559 l 335 559 q 252 527 287 559 q 218 447 218 494 l 218 256 q 252 176 218 210 q 335 143 286 143 l 730 143 l 730 0 l 490 0 q 517 -121 517 -74 q 414 -209 517 -209 q 377 -207 397 -209 q 313 -198 357 -205 l 313 -98 z "},"ĉ":{"ha":805,"x_min":75,"x_max":730,"o":"m 387 994 l 492 994 l 651 785 l 555 785 l 439 901 l 324 785 l 229 785 l 387 994 m 75 449 q 110 576 75 519 q 204 668 145 634 q 335 703 263 703 l 730 703 l 730 559 l 335 559 q 252 527 287 559 q 218 447 218 494 l 218 256 q 252 176 218 210 q 335 143 286 143 l 730 143 l 730 0 l 335 0 q 204 35 263 0 q 110 127 145 69 q 75 255 75 185 l 75 449 z "},"ċ":{"ha":805,"x_min":75,"x_max":730,"o":"m 364 860 q 386 913 364 892 q 439 935 408 935 q 492 913 471 935 q 514 860 514 892 q 492 807 514 829 q 439 785 471 785 q 386 807 408 785 q 364 860 364 829 m 75 449 q 110 576 75 519 q 204 668 145 634 q 335 703 263 703 l 730 703 l 730 559 l 335 559 q 252 527 287 559 q 218 447 218 494 l 218 256 q 252 176 218 210 q 335 143 286 143 l 730 143 l 730 0 l 335 0 q 204 35 263 0 q 110 127 145 69 q 75 255 75 185 l 75 449 z "},"d":{"ha":802,"x_min":75,"x_max":720,"o":"m 75 449 q 109 576 75 519 q 201 668 143 634 q 328 703 258 703 l 496 703 l 496 559 l 328 559 q 250 527 283 559 q 218 448 218 494 l 218 254 q 250 176 218 208 q 328 143 283 143 l 577 143 l 577 964 l 720 964 l 720 143 q 678 42 720 84 q 577 0 636 0 l 328 0 q 201 34 258 0 q 109 126 143 68 q 75 252 75 183 l 75 449 z "},"ð":{"ha":859,"x_min":75,"x_max":852,"o":"m 75 449 q 109 576 75 519 q 201 668 143 634 q 328 703 258 703 l 496 703 l 496 559 l 328 559 q 250 527 283 559 q 218 448 218 494 l 218 254 q 250 176 218 208 q 328 143 283 143 l 577 143 l 577 711 q 545 791 577 758 q 468 825 513 825 l 218 825 l 218 964 l 467 964 q 659 876 582 964 l 802 959 l 852 873 l 708 789 q 720 711 720 755 l 720 143 q 678 42 720 84 q 577 0 636 0 l 328 0 q 201 34 258 0 q 109 126 143 68 q 75 252 75 183 l 75 449 z "},"ď":{"ha":1022,"x_min":75,"x_max":1056,"o":"m 932 964 l 1056 905 l 922 678 l 844 714 l 932 964 m 75 449 q 109 576 75 519 q 201 668 143 634 q 328 703 258 703 l 496 703 l 496 559 l 328 559 q 250 527 283 559 q 218 448 218 494 l 218 254 q 250 176 218 208 q 328 143 283 143 l 577 143 l 577 964 l 720 964 l 720 143 q 678 42 720 84 q 577 0 636 0 l 328 0 q 201 34 258 0 q 109 126 143 68 q 75 252 75 183 l 75 449 z "},"đ":{"ha":856,"x_min":75,"x_max":829,"o":"m 75 449 q 109 576 75 519 q 201 668 143 634 q 328 703 258 703 l 496 703 l 496 559 l 328 559 q 250 527 283 559 q 218 448 218 494 l 218 254 q 250 176 218 208 q 328 143 283 143 l 577 143 l 577 784 l 469 784 l 469 884 l 577 884 l 577 964 l 720 964 l 720 884 l 829 884 l 829 784 l 720 784 l 720 143 q 678 42 720 84 q 577 0 636 0 l 328 0 q 201 34 258 0 q 109 126 143 68 q 75 252 75 183 l 75 449 z "},"ḋ":{"ha":802,"x_min":75,"x_max":720,"o":"m 75 449 q 109 576 75 519 q 201 668 143 634 q 328 703 258 703 l 496 703 l 496 559 l 328 559 q 250 527 283 559 q 218 448 218 494 l 218 254 q 250 176 218 208 q 328 143 283 143 l 577 143 l 577 964 l 720 964 l 720 143 q 678 42 720 84 q 577 0 636 0 l 328 0 q 201 34 258 0 q 109 126 143 68 q 75 252 75 183 l 75 449 m 326 860 q 348 913 326 892 q 401 935 370 935 q 454 913 433 935 q 476 860 476 892 q 454 807 476 829 q 401 785 433 785 q 348 807 370 785 q 326 860 326 829 z "},"e":{"ha":802,"x_min":81,"x_max":727,"o":"m 81 557 q 125 660 81 618 q 231 703 170 703 l 524 703 q 626 675 581 703 q 700 601 672 648 q 727 498 727 555 l 727 479 q 700 377 727 423 q 626 304 672 332 q 524 277 581 277 l 306 277 l 306 419 l 526 419 q 567 437 550 419 q 585 479 585 454 l 585 498 q 567 542 585 524 q 526 559 550 559 l 224 559 l 224 199 q 240 159 224 176 q 278 143 256 143 l 677 143 l 677 0 l 278 0 q 179 27 224 0 q 108 99 134 54 q 81 198 81 144 l 81 557 z "},"é":{"ha":802,"x_min":81,"x_max":727,"o":"m 411 1072 l 535 1012 l 401 785 l 323 821 l 411 1072 m 81 557 q 125 660 81 618 q 231 703 170 703 l 524 703 q 626 675 581 703 q 700 601 672 648 q 727 498 727 555 l 727 479 q 700 377 727 423 q 626 304 672 332 q 524 277 581 277 l 306 277 l 306 419 l 526 419 q 567 437 550 419 q 585 479 585 454 l 585 498 q 567 542 585 524 q 526 559 550 559 l 224 559 l 224 199 q 240 159 224 176 q 278 143 256 143 l 677 143 l 677 0 l 278 0 q 179 27 224 0 q 108 99 134 54 q 81 198 81 144 l 81 557 z "},"ĕ":{"ha":802,"x_min":81,"x_max":727,"o":"m 290 989 q 322 910 290 943 q 401 878 355 878 q 479 910 447 878 q 512 989 512 943 l 603 989 q 575 887 603 933 q 502 814 548 842 q 401 787 456 787 q 299 814 345 787 q 226 887 254 842 q 199 989 199 933 l 290 989 m 81 557 q 125 660 81 618 q 231 703 170 703 l 524 703 q 626 675 581 703 q 700 601 672 648 q 727 498 727 555 l 727 479 q 700 377 727 423 q 626 304 672 332 q 524 277 581 277 l 306 277 l 306 419 l 526 419 q 567 437 550 419 q 585 479 585 454 l 585 498 q 567 542 585 524 q 526 559 550 559 l 224 559 l 224 199 q 240 159 224 176 q 278 143 256 143 l 677 143 l 677 0 l 278 0 q 179 27 224 0 q 108 99 134 54 q 81 198 81 144 l 81 557 z "},"ě":{"ha":802,"x_min":81,"x_max":727,"o":"m 285 995 l 400 878 l 516 995 l 612 995 l 453 785 l 348 785 l 189 995 l 285 995 m 81 557 q 125 660 81 618 q 231 703 170 703 l 524 703 q 626 675 581 703 q 700 601 672 648 q 727 498 727 555 l 727 479 q 700 377 727 423 q 626 304 672 332 q 524 277 581 277 l 306 277 l 306 419 l 526 419 q 567 437 550 419 q 585 479 585 454 l 585 498 q 567 542 585 524 q 526 559 550 559 l 224 559 l 224 199 q 240 159 224 176 q 278 143 256 143 l 677 143 l 677 0 l 278 0 q 179 27 224 0 q 108 99 134 54 q 81 198 81 144 l 81 557 z "},"ê":{"ha":802,"x_min":81,"x_max":727,"o":"m 349 994 l 454 994 l 612 785 l 517 785 l 401 901 l 286 785 l 190 785 l 349 994 m 81 557 q 125 660 81 618 q 231 703 170 703 l 524 703 q 626 675 581 703 q 700 601 672 648 q 727 498 727 555 l 727 479 q 700 377 727 423 q 626 304 672 332 q 524 277 581 277 l 306 277 l 306 419 l 526 419 q 567 437 550 419 q 585 479 585 454 l 585 498 q 567 542 585 524 q 526 559 550 559 l 224 559 l 224 199 q 240 159 224 176 q 278 143 256 143 l 677 143 l 677 0 l 278 0 q 179 27 224 0 q 108 99 134 54 q 81 198 81 144 l 81 557 z "},"ë":{"ha":802,"x_min":81,"x_max":727,"o":"m 211 861 q 233 914 211 892 q 286 936 254 936 q 339 914 317 936 q 361 861 361 892 q 339 808 361 829 q 286 786 317 786 q 233 808 254 786 q 211 861 211 829 m 441 861 q 463 914 441 892 q 516 936 485 936 q 570 914 548 936 q 591 861 591 892 q 570 808 591 829 q 516 786 548 786 q 463 808 485 786 q 441 861 441 829 m 81 557 q 125 660 81 618 q 231 703 170 703 l 524 703 q 626 675 581 703 q 700 601 672 648 q 727 498 727 555 l 727 479 q 700 377 727 423 q 626 304 672 332 q 524 277 581 277 l 306 277 l 306 419 l 526 419 q 567 437 550 419 q 585 479 585 454 l 585 498 q 567 542 585 524 q 526 559 550 559 l 224 559 l 224 199 q 240 159 224 176 q 278 143 256 143 l 677 143 l 677 0 l 278 0 q 179 27 224 0 q 108 99 134 54 q 81 198 81 144 l 81 557 z "},"ė":{"ha":802,"x_min":81,"x_max":727,"o":"m 326 860 q 348 913 326 892 q 401 935 370 935 q 454 913 432 935 q 475 860 475 892 q 454 807 475 829 q 401 785 432 785 q 348 807 370 785 q 326 860 326 829 m 81 557 q 125 660 81 618 q 231 703 170 703 l 524 703 q 626 675 581 703 q 700 601 672 648 q 727 498 727 555 l 727 479 q 700 377 727 423 q 626 304 672 332 q 524 277 581 277 l 306 277 l 306 419 l 526 419 q 567 437 550 419 q 585 479 585 454 l 585 498 q 567 542 585 524 q 526 559 550 559 l 224 559 l 224 199 q 240 159 224 176 q 278 143 256 143 l 677 143 l 677 0 l 278 0 q 179 27 224 0 q 108 99 134 54 q 81 198 81 144 l 81 557 z "},"è":{"ha":802,"x_min":81,"x_max":727,"o":"m 391 1072 l 478 821 l 401 785 l 267 1012 l 391 1072 m 81 557 q 125 660 81 618 q 231 703 170 703 l 524 703 q 626 675 581 703 q 700 601 672 648 q 727 498 727 555 l 727 479 q 700 377 727 423 q 626 304 672 332 q 524 277 581 277 l 306 277 l 306 419 l 526 419 q 567 437 550 419 q 585 479 585 454 l 585 498 q 567 542 585 524 q 526 559 550 559 l 224 559 l 224 199 q 240 159 224 176 q 278 143 256 143 l 677 143 l 677 0 l 278 0 q 179 27 224 0 q 108 99 134 54 q 81 198 81 144 l 81 557 z "},"ē":{"ha":802,"x_min":81,"x_max":727,"o":"m 198 885 l 603 885 l 603 785 l 198 785 l 198 885 m 81 557 q 125 660 81 618 q 231 703 170 703 l 524 703 q 626 675 581 703 q 700 601 672 648 q 727 498 727 555 l 727 479 q 700 377 727 423 q 626 304 672 332 q 524 277 581 277 l 306 277 l 306 419 l 526 419 q 567 437 550 419 q 585 479 585 454 l 585 498 q 567 542 585 524 q 526 559 550 559 l 224 559 l 224 199 q 240 159 224 176 q 278 143 256 143 l 677 143 l 677 0 l 278 0 q 179 27 224 0 q 108 99 134 54 q 81 198 81 144 l 81 557 z "},"ę":{"ha":802,"x_min":81,"x_max":727,"o":"m 323 -120 q 351 0 323 -72 l 278 0 q 179 27 224 0 q 108 99 134 54 q 81 198 81 144 l 81 557 q 125 660 81 618 q 231 703 170 703 l 524 703 q 626 675 581 703 q 700 601 672 648 q 727 498 727 555 l 727 479 q 700 377 727 423 q 626 304 672 332 q 524 277 581 277 l 306 277 l 306 419 l 526 419 q 567 437 550 419 q 585 479 585 454 l 585 498 q 567 542 585 524 q 526 559 550 559 l 224 559 l 224 199 q 240 159 224 176 q 278 143 256 143 l 677 143 l 677 0 l 451 0 q 431 -59 435 -43 q 426 -85 426 -75 q 454 -106 426 -106 q 475 -105 463 -106 q 528 -97 487 -104 l 528 -197 q 464 -206 484 -204 q 427 -208 444 -208 q 323 -120 323 -208 z "},"f":{"ha":490,"x_min":81,"x_max":443,"o":"m 81 763 q 109 864 81 819 q 182 937 136 910 q 283 964 228 964 l 440 964 l 440 822 l 283 822 q 242 805 259 822 q 224 763 224 787 l 224 703 l 443 703 l 443 560 l 224 560 l 224 0 l 81 0 l 81 763 z "},"g":{"ha":802,"x_min":75,"x_max":720,"o":"m 75 450 q 109 577 75 520 q 201 668 143 634 q 328 703 258 703 l 577 703 q 678 661 636 703 q 720 559 720 618 l 720 -8 q 686 -136 720 -78 q 594 -228 652 -193 q 467 -262 536 -262 l 120 -262 l 120 -119 l 465 -119 q 544 -86 511 -119 q 577 -9 577 -54 l 577 559 l 328 559 q 250 527 283 559 q 218 449 218 495 l 218 254 q 250 176 218 209 q 328 143 283 143 l 496 143 l 496 0 l 328 0 q 201 34 258 0 q 109 126 143 68 q 75 253 75 183 l 75 450 z "},"ğ":{"ha":802,"x_min":75,"x_max":720,"o":"m 290 989 q 322 910 290 943 q 401 878 355 878 q 479 910 447 878 q 512 989 512 943 l 603 989 q 575 887 603 933 q 502 814 548 842 q 401 787 456 787 q 299 814 345 787 q 226 887 254 842 q 199 989 199 933 l 290 989 m 75 450 q 109 577 75 520 q 201 668 143 634 q 328 703 258 703 l 577 703 q 678 661 636 703 q 720 559 720 618 l 720 -8 q 686 -136 720 -78 q 594 -228 652 -193 q 467 -262 536 -262 l 120 -262 l 120 -119 l 465 -119 q 544 -86 511 -119 q 577 -9 577 -54 l 577 559 l 328 559 q 250 527 283 559 q 218 449 218 495 l 218 254 q 250 176 218 209 q 328 143 283 143 l 496 143 l 496 0 l 328 0 q 201 34 258 0 q 109 126 143 68 q 75 253 75 183 l 75 450 z "},"ĝ":{"ha":802,"x_min":75,"x_max":720,"o":"m 349 994 l 454 994 l 612 785 l 517 785 l 401 901 l 286 785 l 190 785 l 349 994 m 75 450 q 109 577 75 520 q 201 668 143 634 q 328 703 258 703 l 577 703 q 678 661 636 703 q 720 559 720 618 l 720 -8 q 686 -136 720 -78 q 594 -228 652 -193 q 467 -262 536 -262 l 120 -262 l 120 -119 l 465 -119 q 544 -86 511 -119 q 577 -9 577 -54 l 577 559 l 328 559 q 250 527 283 559 q 218 449 218 495 l 218 254 q 250 176 218 209 q 328 143 283 143 l 496 143 l 496 0 l 328 0 q 201 34 258 0 q 109 126 143 68 q 75 253 75 183 l 75 450 z "},"ġ":{"ha":802,"x_min":75,"x_max":720,"o":"m 326 860 q 348 913 326 892 q 401 935 370 935 q 454 913 432 935 q 475 860 475 892 q 454 807 475 829 q 401 785 432 785 q 348 807 370 785 q 326 860 326 829 m 75 450 q 109 577 75 520 q 201 668 143 634 q 328 703 258 703 l 577 703 q 678 661 636 703 q 720 559 720 618 l 720 -8 q 686 -136 720 -78 q 594 -228 652 -193 q 467 -262 536 -262 l 120 -262 l 120 -119 l 465 -119 q 544 -86 511 -119 q 577 -9 577 -54 l 577 559 l 328 559 q 250 527 283 559 q 218 449 218 495 l 218 254 q 250 176 218 209 q 328 143 283 143 l 496 143 l 496 0 l 328 0 q 201 34 258 0 q 109 126 143 68 q 75 253 75 183 l 75 450 z "},"h":{"ha":791,"x_min":81,"x_max":710,"o":"m 81 964 l 224 964 l 224 703 l 446 703 q 579 668 519 703 q 674 577 639 634 q 710 450 710 519 l 710 0 l 567 0 l 567 448 q 531 526 567 492 q 446 559 494 559 l 224 559 l 224 0 l 81 0 l 81 964 z "},"ħ":{"ha":873,"x_min":41,"x_max":778,"o":"m 41 884 l 149 884 l 149 964 l 292 964 l 292 884 l 401 884 l 401 784 l 292 784 l 292 703 l 513 703 q 647 668 587 703 q 742 577 707 634 q 778 450 778 519 l 778 0 l 635 0 l 635 448 q 598 526 635 492 q 513 559 562 559 l 292 559 l 292 0 l 149 0 l 149 784 l 41 784 l 41 884 z "},"ĥ":{"ha":791,"x_min":-58,"x_max":710,"o":"m 100 1256 l 205 1256 l 364 1046 l 269 1046 l 153 1163 l 37 1046 l -58 1046 l 100 1256 m 81 964 l 224 964 l 224 703 l 446 703 q 579 668 519 703 q 674 577 639 634 q 710 450 710 519 l 710 0 l 567 0 l 567 448 q 531 526 567 492 q 446 559 494 559 l 224 559 l 224 0 l 81 0 l 81 964 z "},"i":{"ha":307,"x_min":65,"x_max":241,"o":"m 65 894 q 91 956 65 930 q 153 982 117 982 q 216 956 190 982 q 241 894 241 930 q 216 831 241 857 q 153 806 190 806 q 91 831 117 806 q 65 894 65 857 m 81 703 l 225 703 l 225 0 l 81 0 l 81 703 z "},"ı":{"ha":315,"x_min":86,"x_max":229,"o":"m 86 703 l 229 703 l 229 0 l 86 0 l 86 703 z "},"í":{"ha":315,"x_min":80,"x_max":292,"o":"m 168 1072 l 292 1012 l 157 785 l 80 821 l 168 1072 m 86 703 l 229 703 l 229 0 l 86 0 l 86 703 z "},"ĭ":{"ha":315,"x_min":-45,"x_max":359,"o":"m 46 987 q 79 909 46 942 q 157 876 112 876 q 236 909 203 876 q 269 987 269 942 l 359 987 q 332 886 359 932 q 259 813 304 840 q 157 785 213 785 q 56 813 102 785 q -17 886 10 840 q -45 987 -45 932 l 46 987 m 86 703 l 229 703 l 229 0 l 86 0 l 86 703 z "},"î":{"ha":315,"x_min":-54,"x_max":369,"o":"m 105 994 l 210 994 l 369 785 l 273 785 l 157 901 l 42 785 l -54 785 l 105 994 m 86 703 l 229 703 l 229 0 l 86 0 l 86 703 z "},"ï":{"ha":315,"x_min":-33,"x_max":348,"o":"m -33 861 q -11 914 -33 892 q 42 936 11 936 q 96 914 74 936 q 117 861 117 892 q 96 808 117 829 q 42 786 74 786 q -11 808 11 786 q -33 861 -33 829 m 198 861 q 220 914 198 892 q 273 936 241 936 q 326 914 304 936 q 348 861 348 892 q 326 808 348 829 q 273 786 304 786 q 220 808 241 786 q 198 861 198 829 m 86 703 l 229 703 l 229 0 l 86 0 l 86 703 z "},"ì":{"ha":315,"x_min":23,"x_max":235,"o":"m 147 1072 l 235 821 l 157 785 l 23 1012 l 147 1072 m 86 703 l 229 703 l 229 0 l 86 0 l 86 703 z "},"ĳ":{"ha":630,"x_min":65,"x_max":565,"o":"m 389 893 q 415 956 389 930 q 477 982 441 982 q 539 956 513 982 q 565 893 565 930 q 539 831 565 857 q 477 806 514 806 q 414 831 440 806 q 389 893 389 857 m 65 894 q 91 956 65 930 q 153 982 117 982 q 216 956 190 982 q 241 894 241 930 q 216 831 241 857 q 153 806 190 806 q 91 831 117 806 q 65 894 65 857 m 300 -122 q 373 -117 350 -122 q 401 -95 395 -113 q 408 -41 408 -78 l 408 703 l 551 703 l 551 -41 q 528 -175 551 -126 q 451 -245 505 -224 q 300 -265 396 -265 l 300 -122 m 81 703 l 225 703 l 225 0 l 81 0 l 81 703 z "},"ī":{"ha":315,"x_min":-45,"x_max":359,"o":"m -45 885 l 359 885 l 359 785 l -45 785 l -45 885 m 86 703 l 229 703 l 229 0 l 86 0 l 86 703 z "},"į":{"ha":307,"x_min":65,"x_max":281,"o":"m 65 894 q 91 956 65 930 q 153 982 117 982 q 216 956 190 982 q 241 894 241 930 q 216 831 241 857 q 153 806 190 806 q 91 831 117 806 q 65 894 65 857 m 76 -120 q 103 0 76 -72 l 81 0 l 81 703 l 225 703 l 225 0 l 203 0 q 183 -59 188 -43 q 178 -85 178 -75 q 206 -106 178 -106 q 227 -105 215 -106 q 281 -97 239 -104 l 281 -197 q 216 -206 236 -204 q 179 -208 196 -208 q 76 -120 76 -208 z "},"ĩ":{"ha":315,"x_min":-66,"x_max":380,"o":"m -66 791 q -29 898 -66 856 q 65 941 8 941 q 100 935 81 941 q 154 916 119 930 q 209 895 191 901 q 243 890 227 890 q 273 937 273 890 l 380 937 q 342 830 380 874 q 250 785 304 785 q 215 791 234 785 q 159 812 195 798 q 103 834 121 829 q 69 840 85 840 q 39 791 39 840 l -66 791 m 86 703 l 229 703 l 229 0 l 86 0 l 86 703 z "},"j":{"ha":357,"x_min":27,"x_max":292,"o":"m 116 893 q 142 956 116 930 q 205 982 168 982 q 267 956 241 982 q 292 893 292 930 q 267 831 292 857 q 205 806 241 806 q 142 831 168 806 q 116 893 116 857 m 27 -122 q 100 -117 77 -122 q 129 -95 123 -113 q 135 -41 135 -78 l 135 703 l 278 703 l 278 -41 q 255 -175 278 -126 q 178 -245 233 -224 q 27 -265 123 -265 l 27 -122 z "},"ȷ":{"ha":359,"x_min":27,"x_max":278,"o":"m 27 -122 q 100 -117 77 -122 q 129 -95 123 -113 q 135 -41 135 -78 l 135 703 l 278 703 l 278 -41 q 255 -175 278 -126 q 178 -245 233 -224 q 27 -265 123 -265 l 27 -122 z "},"ĵ":{"ha":359,"x_min":-5,"x_max":418,"o":"m 154 994 l 259 994 l 418 785 l 322 785 l 206 901 l 91 785 l -5 785 l 154 994 m 27 -122 q 100 -117 77 -122 q 129 -95 123 -113 q 135 -41 135 -78 l 135 703 l 278 703 l 278 -41 q 255 -175 278 -126 q 178 -245 233 -224 q 27 -265 123 -265 l 27 -122 z "},"k":{"ha":762,"x_min":81,"x_max":741,"o":"m 81 964 l 224 964 l 224 433 l 273 433 l 527 703 l 713 703 l 392 362 l 741 0 l 541 0 l 260 290 l 224 290 l 224 0 l 81 0 l 81 964 z "},"ĸ":{"ha":762,"x_min":81,"x_max":741,"o":"m 81 703 l 224 703 l 224 433 l 273 433 l 527 703 l 713 703 l 392 362 l 741 0 l 541 0 l 260 290 l 224 290 l 224 0 l 81 0 l 81 703 z "},"l":{"ha":306,"x_min":81,"x_max":224,"o":"m 81 964 l 224 964 l 224 0 l 81 0 l 81 964 z "},"ĺ":{"ha":306,"x_min":75,"x_max":287,"o":"m 163 1333 l 287 1274 l 153 1047 l 75 1083 l 163 1333 m 81 964 l 224 964 l 224 0 l 81 0 l 81 964 z "},"ľ":{"ha":533,"x_min":81,"x_max":560,"o":"m 436 964 l 560 905 l 426 678 l 349 714 l 436 964 m 81 964 l 224 964 l 224 0 l 81 0 l 81 964 z "},"ŀ":{"ha":618,"x_min":81,"x_max":537,"o":"m 81 964 l 224 964 l 224 0 l 81 0 l 81 964 m 387 601 q 409 654 387 632 q 462 675 431 675 q 515 654 494 675 q 537 601 537 632 q 515 548 537 570 q 462 526 494 526 q 409 548 431 526 q 387 601 387 570 z "},"ł":{"ha":455,"x_min":27,"x_max":428,"o":"m 156 498 l 156 964 l 299 964 l 299 581 l 378 627 l 428 541 l 299 466 l 299 0 l 156 0 l 156 383 l 77 338 l 27 425 l 156 498 z "},"m":{"ha":1165,"x_min":81,"x_max":1084,"o":"m 81 559 q 123 661 81 618 q 225 703 165 703 l 439 703 q 582 648 526 703 q 724 703 636 703 l 830 703 q 958 668 900 703 q 1049 577 1015 634 q 1084 450 1084 519 l 1084 0 l 941 0 l 941 448 q 909 527 941 494 q 830 560 876 560 l 724 560 q 673 542 694 560 q 652 496 652 523 l 652 0 l 509 0 l 509 496 q 489 542 509 523 q 439 560 469 560 l 224 560 l 224 0 l 81 0 l 81 559 z "},"ṁ":{"ha":1165,"x_min":81,"x_max":1084,"o":"m 509 860 q 531 913 509 892 q 584 935 553 935 q 637 913 615 935 q 659 860 659 892 q 637 807 659 829 q 584 785 615 785 q 531 807 553 785 q 509 860 509 829 m 81 559 q 123 661 81 618 q 225 703 165 703 l 439 703 q 582 648 526 703 q 724 703 636 703 l 830 703 q 958 668 900 703 q 1049 577 1015 634 q 1084 450 1084 519 l 1084 0 l 941 0 l 941 448 q 909 527 941 494 q 830 560 876 560 l 724 560 q 673 542 694 560 q 652 496 652 523 l 652 0 l 509 0 l 509 496 q 489 542 509 523 q 439 560 469 560 l 224 560 l 224 0 l 81 0 l 81 559 z "},"n":{"ha":808,"x_min":81,"x_max":727,"o":"m 81 560 q 124 661 81 619 q 226 703 166 703 l 473 703 q 601 668 543 703 q 693 576 659 634 q 727 449 727 519 l 727 0 l 584 0 l 584 447 q 552 528 584 494 q 473 561 519 561 l 224 561 l 224 0 l 81 0 l 81 560 z "},"ń":{"ha":808,"x_min":81,"x_max":727,"o":"m 414 1072 l 538 1012 l 404 785 l 327 821 l 414 1072 m 81 560 q 124 661 81 619 q 226 703 166 703 l 473 703 q 601 668 543 703 q 693 576 659 634 q 727 449 727 519 l 727 0 l 584 0 l 584 447 q 552 528 584 494 q 473 561 519 561 l 224 561 l 224 0 l 81 0 l 81 560 z "},"ŉ":{"ha":910,"x_min":27,"x_max":829,"o":"m 115 1072 l 239 1012 l 104 785 l 27 821 l 115 1072 m 183 560 q 225 661 183 619 q 328 703 268 703 l 575 703 q 703 668 645 703 q 794 576 760 634 q 829 449 829 519 l 829 0 l 686 0 l 686 447 q 653 528 686 494 q 575 561 621 561 l 326 561 l 326 0 l 183 0 l 183 560 z "},"ň":{"ha":808,"x_min":81,"x_max":727,"o":"m 288 995 l 404 878 l 519 995 l 615 995 l 456 785 l 351 785 l 193 995 l 288 995 m 81 560 q 124 661 81 619 q 226 703 166 703 l 473 703 q 601 668 543 703 q 693 576 659 634 q 727 449 727 519 l 727 0 l 584 0 l 584 447 q 552 528 584 494 q 473 561 519 561 l 224 561 l 224 0 l 81 0 l 81 560 z "},"ñ":{"ha":808,"x_min":81,"x_max":727,"o":"m 180 791 q 218 898 181 856 q 312 941 255 941 q 347 935 328 941 q 401 916 366 930 q 456 895 438 901 q 490 890 474 890 q 520 937 520 890 l 627 937 q 589 830 627 874 q 496 785 551 785 q 461 791 481 785 q 406 812 442 798 q 350 834 368 829 q 316 840 332 840 q 286 791 286 840 l 180 791 m 81 560 q 124 661 81 619 q 226 703 166 703 l 473 703 q 601 668 543 703 q 693 576 659 634 q 727 449 727 519 l 727 0 l 584 0 l 584 447 q 552 528 584 494 q 473 561 519 561 l 224 561 l 224 0 l 81 0 l 81 560 z "},"ŋ":{"ha":808,"x_min":81,"x_max":727,"o":"m 81 560 q 124 661 81 619 q 226 703 166 703 l 473 703 q 601 668 543 703 q 693 576 659 634 q 727 449 727 519 l 727 -41 q 704 -175 727 -126 q 627 -245 682 -224 q 476 -265 572 -265 l 476 -122 q 549 -117 526 -122 q 578 -95 572 -113 q 584 -41 584 -78 l 584 447 q 552 528 584 494 q 473 561 519 561 l 224 561 l 224 0 l 81 0 l 81 560 z "},"o":{"ha":810,"x_min":75,"x_max":735,"o":"m 75 449 q 109 576 75 519 q 201 668 143 634 q 328 703 258 703 l 481 703 q 609 668 551 703 q 701 576 667 634 q 735 449 735 519 l 735 254 q 701 126 735 184 q 609 34 667 68 q 481 0 551 0 l 328 0 q 201 34 258 0 q 109 126 143 68 q 75 254 75 184 l 75 449 m 218 255 q 250 176 218 209 q 328 143 283 143 l 481 143 q 560 176 528 143 q 592 255 592 209 l 592 448 q 560 527 592 494 q 481 559 528 559 l 328 559 q 250 527 283 559 q 218 448 218 494 l 218 255 z "},"ó":{"ha":810,"x_min":75,"x_max":735,"o":"m 415 1072 l 539 1012 l 405 785 l 328 821 l 415 1072 m 75 449 q 109 576 75 519 q 201 668 143 634 q 328 703 258 703 l 481 703 q 609 668 551 703 q 701 576 667 634 q 735 449 735 519 l 735 254 q 701 126 735 184 q 609 34 667 68 q 481 0 551 0 l 328 0 q 201 34 258 0 q 109 126 143 68 q 75 254 75 184 l 75 449 m 218 255 q 250 176 218 209 q 328 143 283 143 l 481 143 q 560 176 528 143 q 592 255 592 209 l 592 448 q 560 527 592 494 q 481 559 528 559 l 328 559 q 250 527 283 559 q 218 448 218 494 l 218 255 z "},"ŏ":{"ha":810,"x_min":75,"x_max":735,"o":"m 294 989 q 327 910 294 943 q 405 878 359 878 q 484 910 451 878 q 516 989 516 943 l 607 989 q 579 887 607 933 q 506 814 552 842 q 405 787 460 787 q 303 814 349 787 q 230 887 258 842 q 203 989 203 933 l 294 989 m 75 449 q 109 576 75 519 q 201 668 143 634 q 328 703 258 703 l 481 703 q 609 668 551 703 q 701 576 667 634 q 735 449 735 519 l 735 254 q 701 126 735 184 q 609 34 667 68 q 481 0 551 0 l 328 0 q 201 34 258 0 q 109 126 143 68 q 75 254 75 184 l 75 449 m 218 255 q 250 176 218 209 q 328 143 283 143 l 481 143 q 560 176 528 143 q 592 255 592 209 l 592 448 q 560 527 592 494 q 481 559 528 559 l 328 559 q 250 527 283 559 q 218 448 218 494 l 218 255 z "},"ô":{"ha":810,"x_min":75,"x_max":735,"o":"m 353 994 l 458 994 l 616 785 l 521 785 l 405 901 l 290 785 l 194 785 l 353 994 m 75 449 q 109 576 75 519 q 201 668 143 634 q 328 703 258 703 l 481 703 q 609 668 551 703 q 701 576 667 634 q 735 449 735 519 l 735 254 q 701 126 735 184 q 609 34 667 68 q 481 0 551 0 l 328 0 q 201 34 258 0 q 109 126 143 68 q 75 254 75 184 l 75 449 m 218 255 q 250 176 218 209 q 328 143 283 143 l 481 143 q 560 176 528 143 q 592 255 592 209 l 592 448 q 560 527 592 494 q 481 559 528 559 l 328 559 q 250 527 283 559 q 218 448 218 494 l 218 255 z "},"ö":{"ha":810,"x_min":75,"x_max":735,"o":"m 215 861 q 237 914 215 892 q 290 936 258 936 q 343 914 321 936 q 365 861 365 892 q 343 808 365 829 q 290 786 321 786 q 237 808 258 786 q 215 861 215 829 m 446 861 q 467 914 446 892 q 520 936 489 936 q 574 914 552 936 q 595 861 595 892 q 574 808 595 829 q 520 786 552 786 q 467 808 489 786 q 446 861 446 829 m 75 449 q 109 576 75 519 q 201 668 143 634 q 328 703 258 703 l 481 703 q 609 668 551 703 q 701 576 667 634 q 735 449 735 519 l 735 254 q 701 126 735 184 q 609 34 667 68 q 481 0 551 0 l 328 0 q 201 34 258 0 q 109 126 143 68 q 75 254 75 184 l 75 449 m 218 255 q 250 176 218 209 q 328 143 283 143 l 481 143 q 560 176 528 143 q 592 255 592 209 l 592 448 q 560 527 592 494 q 481 559 528 559 l 328 559 q 250 527 283 559 q 218 448 218 494 l 218 255 z "},"ò":{"ha":810,"x_min":75,"x_max":735,"o":"m 395 1072 l 482 821 l 405 785 l 271 1012 l 395 1072 m 75 449 q 109 576 75 519 q 201 668 143 634 q 328 703 258 703 l 481 703 q 609 668 551 703 q 701 576 667 634 q 735 449 735 519 l 735 254 q 701 126 735 184 q 609 34 667 68 q 481 0 551 0 l 328 0 q 201 34 258 0 q 109 126 143 68 q 75 254 75 184 l 75 449 m 218 255 q 250 176 218 209 q 328 143 283 143 l 481 143 q 560 176 528 143 q 592 255 592 209 l 592 448 q 560 527 592 494 q 481 559 528 559 l 328 559 q 250 527 283 559 q 218 448 218 494 l 218 255 z "},"ő":{"ha":810,"x_min":75,"x_max":735,"o":"m 286 1072 l 410 1012 l 276 785 l 199 821 l 286 1072 m 544 1072 l 668 1012 l 534 785 l 456 821 l 544 1072 m 75 449 q 109 576 75 519 q 201 668 143 634 q 328 703 258 703 l 481 703 q 609 668 551 703 q 701 576 667 634 q 735 449 735 519 l 735 254 q 701 126 735 184 q 609 34 667 68 q 481 0 551 0 l 328 0 q 201 34 258 0 q 109 126 143 68 q 75 254 75 184 l 75 449 m 218 255 q 250 176 218 209 q 328 143 283 143 l 481 143 q 560 176 528 143 q 592 255 592 209 l 592 448 q 560 527 592 494 q 481 559 528 559 l 328 559 q 250 527 283 559 q 218 448 218 494 l 218 255 z "},"ō":{"ha":810,"x_min":75,"x_max":735,"o":"m 202 885 l 607 885 l 607 785 l 202 785 l 202 885 m 75 449 q 109 576 75 519 q 201 668 143 634 q 328 703 258 703 l 481 703 q 609 668 551 703 q 701 576 667 634 q 735 449 735 519 l 735 254 q 701 126 735 184 q 609 34 667 68 q 481 0 551 0 l 328 0 q 201 34 258 0 q 109 126 143 68 q 75 254 75 184 l 75 449 m 218 255 q 250 176 218 209 q 328 143 283 143 l 481 143 q 560 176 528 143 q 592 255 592 209 l 592 448 q 560 527 592 494 q 481 559 528 559 l 328 559 q 250 527 283 559 q 218 448 218 494 l 218 255 z "},"ø":{"ha":810,"x_min":75,"x_max":735,"o":"m 75 449 q 109 576 75 519 q 201 668 143 634 q 328 703 258 703 l 481 703 q 560 690 526 703 l 622 779 l 727 705 l 668 621 q 735 449 735 547 l 735 254 q 701 126 735 184 q 609 34 667 68 q 481 0 551 0 l 328 0 q 243 14 283 0 l 180 -75 l 75 -2 l 138 87 q 75 254 75 159 l 75 449 m 218 255 q 226 213 218 233 l 469 559 l 328 559 q 250 527 283 559 q 218 448 218 494 l 218 255 m 481 143 q 560 176 528 143 q 592 255 592 209 l 592 448 q 581 496 592 475 l 334 143 l 481 143 z "},"ǿ":{"ha":810,"x_min":75,"x_max":735,"o":"m 415 1072 l 539 1012 l 405 785 l 328 821 l 415 1072 m 75 449 q 109 576 75 519 q 201 668 143 634 q 328 703 258 703 l 481 703 q 560 690 526 703 l 622 779 l 727 705 l 668 621 q 735 449 735 547 l 735 254 q 701 126 735 184 q 609 34 667 68 q 481 0 551 0 l 328 0 q 243 14 283 0 l 180 -75 l 75 -2 l 138 87 q 75 254 75 159 l 75 449 m 218 255 q 226 213 218 233 l 469 559 l 328 559 q 250 527 283 559 q 218 448 218 494 l 218 255 m 481 143 q 560 176 528 143 q 592 255 592 209 l 592 448 q 581 496 592 475 l 334 143 l 481 143 z "},"õ":{"ha":810,"x_min":75,"x_max":735,"o":"m 181 791 q 219 898 182 856 q 313 941 256 941 q 348 935 328 941 q 401 916 367 930 q 457 895 439 901 q 490 890 475 890 q 521 937 521 890 l 627 937 q 589 830 627 874 q 497 785 551 785 q 462 791 481 785 q 407 812 443 798 q 351 834 369 829 q 317 840 332 840 q 286 791 286 840 l 181 791 m 75 449 q 109 576 75 519 q 201 668 143 634 q 328 703 258 703 l 481 703 q 609 668 551 703 q 701 576 667 634 q 735 449 735 519 l 735 254 q 701 126 735 184 q 609 34 667 68 q 481 0 551 0 l 328 0 q 201 34 258 0 q 109 126 143 68 q 75 254 75 184 l 75 449 m 218 255 q 250 176 218 209 q 328 143 283 143 l 481 143 q 560 176 528 143 q 592 255 592 209 l 592 448 q 560 527 592 494 q 481 559 528 559 l 328 559 q 250 527 283 559 q 218 448 218 494 l 218 255 z "},"œ":{"ha":1314,"x_min":75,"x_max":1239,"o":"m 75 450 q 112 577 75 520 q 211 668 149 634 q 349 703 273 703 l 462 703 q 628 650 554 703 q 743 703 673 703 l 1036 703 q 1138 675 1093 703 q 1212 601 1184 648 q 1239 498 1239 555 l 1239 479 q 1212 377 1239 423 q 1138 304 1184 332 q 1036 277 1093 277 l 818 277 l 818 419 l 1038 419 q 1079 437 1062 419 q 1097 479 1097 454 l 1097 498 q 1079 542 1097 524 q 1038 559 1062 559 l 736 559 l 736 199 q 752 159 736 176 q 790 143 768 143 l 1190 143 l 1190 0 l 790 0 q 644 65 703 0 q 462 0 566 0 l 349 0 q 211 34 273 0 q 112 126 149 68 q 75 254 75 184 l 75 450 m 218 253 q 256 175 218 208 q 350 143 295 143 l 462 143 q 555 175 516 143 q 593 252 593 207 l 593 449 q 554 528 593 495 q 460 560 515 560 l 349 560 q 256 528 294 560 q 218 450 218 496 l 218 253 z "},"p":{"ha":802,"x_min":75,"x_max":720,"o":"m 75 559 q 117 661 75 618 q 218 703 159 703 l 467 703 q 594 668 536 703 q 686 577 652 634 q 720 450 720 520 l 720 254 q 686 126 720 184 q 594 34 652 68 q 467 0 536 0 l 299 0 l 299 143 l 467 143 q 545 176 513 143 q 577 255 577 209 l 577 449 q 545 527 577 495 q 467 559 513 559 l 218 559 l 218 -262 l 75 -262 l 75 559 z "},"ṗ":{"ha":802,"x_min":75,"x_max":720,"o":"m 326 860 q 348 913 326 892 q 401 935 370 935 q 454 913 433 935 q 476 860 476 892 q 454 807 476 829 q 401 785 433 785 q 348 807 370 785 q 326 860 326 829 m 75 559 q 117 661 75 618 q 218 703 159 703 l 467 703 q 594 668 536 703 q 686 577 652 634 q 720 450 720 520 l 720 254 q 686 126 720 184 q 594 34 652 68 q 467 0 536 0 l 299 0 l 299 143 l 467 143 q 545 176 513 143 q 577 255 577 209 l 577 449 q 545 527 577 495 q 467 559 513 559 l 218 559 l 218 -262 l 75 -262 l 75 559 z "},"þ":{"ha":830,"x_min":95,"x_max":755,"o":"m 95 964 l 238 964 l 238 677 q 349 703 288 703 l 502 703 q 629 668 572 703 q 721 576 687 634 q 755 449 755 519 l 755 254 q 721 126 755 184 q 629 34 687 68 q 502 0 572 0 l 349 0 q 238 25 288 0 l 238 -264 l 95 -264 l 95 964 m 238 255 q 271 176 238 209 q 349 143 303 143 l 502 143 q 580 176 548 143 q 612 255 612 209 l 612 448 q 580 527 612 494 q 502 559 548 559 l 349 559 q 271 527 303 559 q 238 448 238 494 l 238 255 z "},"q":{"ha":802,"x_min":75,"x_max":720,"o":"m 75 450 q 109 577 75 520 q 201 668 143 634 q 328 703 258 703 l 577 703 q 678 661 636 703 q 720 559 720 618 l 720 -262 l 577 -262 l 577 559 l 328 559 q 250 527 283 559 q 218 449 218 495 l 218 255 q 250 176 218 209 q 328 143 283 143 l 496 143 l 496 0 l 328 0 q 201 34 258 0 q 109 126 143 68 q 75 254 75 184 l 75 450 z "},"r":{"ha":488,"x_min":81,"x_max":440,"o":"m 81 506 q 109 605 81 560 q 182 676 136 650 q 283 703 228 703 l 440 703 l 440 560 l 283 560 q 242 544 259 560 q 224 503 224 527 l 224 0 l 81 0 l 81 506 z "},"ŕ":{"ha":488,"x_min":81,"x_max":440,"o":"m 254 1072 l 378 1012 l 244 785 l 167 821 l 254 1072 m 81 506 q 109 605 81 560 q 182 676 136 650 q 283 703 228 703 l 440 703 l 440 560 l 283 560 q 242 544 259 560 q 224 503 224 527 l 224 0 l 81 0 l 81 506 z "},"ř":{"ha":488,"x_min":33,"x_max":455,"o":"m 128 995 l 243 878 l 359 995 l 455 995 l 296 785 l 191 785 l 33 995 l 128 995 m 81 506 q 109 605 81 560 q 182 676 136 650 q 283 703 228 703 l 440 703 l 440 560 l 283 560 q 242 544 259 560 q 224 503 224 527 l 224 0 l 81 0 l 81 506 z "},"s":{"ha":809,"x_min":75,"x_max":734,"o":"m 75 505 q 102 605 75 560 q 175 676 130 650 q 277 703 221 703 l 689 703 l 689 559 l 277 559 q 235 544 252 559 q 218 505 218 528 l 218 488 q 235 449 218 465 q 277 433 252 433 l 533 433 q 634 406 589 433 q 707 334 680 379 q 734 235 734 290 l 734 198 q 707 99 734 144 q 634 27 680 54 q 533 0 589 0 l 106 0 l 106 143 l 533 143 q 575 159 557 143 q 592 199 592 176 l 592 234 q 575 274 592 258 q 533 290 557 290 l 277 290 q 175 317 221 290 q 102 389 130 344 q 75 488 75 434 l 75 505 z "},"ś":{"ha":809,"x_min":75,"x_max":734,"o":"m 414 1072 l 538 1012 l 404 785 l 327 821 l 414 1072 m 75 505 q 102 605 75 560 q 175 676 130 650 q 277 703 221 703 l 689 703 l 689 559 l 277 559 q 235 544 252 559 q 218 505 218 528 l 218 488 q 235 449 218 465 q 277 433 252 433 l 533 433 q 634 406 589 433 q 707 334 680 379 q 734 235 734 290 l 734 198 q 707 99 734 144 q 634 27 680 54 q 533 0 589 0 l 106 0 l 106 143 l 533 143 q 575 159 557 143 q 592 199 592 176 l 592 234 q 575 274 592 258 q 533 290 557 290 l 277 290 q 175 317 221 290 q 102 389 130 344 q 75 488 75 434 l 75 505 z "},"š":{"ha":809,"x_min":75,"x_max":734,"o":"m 288 995 l 404 878 l 519 995 l 615 995 l 456 785 l 351 785 l 193 995 l 288 995 m 75 505 q 102 605 75 560 q 175 676 130 650 q 277 703 221 703 l 689 703 l 689 559 l 277 559 q 235 544 252 559 q 218 505 218 528 l 218 488 q 235 449 218 465 q 277 433 252 433 l 533 433 q 634 406 589 433 q 707 334 680 379 q 734 235 734 290 l 734 198 q 707 99 734 144 q 634 27 680 54 q 533 0 589 0 l 106 0 l 106 143 l 533 143 q 575 159 557 143 q 592 199 592 176 l 592 234 q 575 274 592 258 q 533 290 557 290 l 277 290 q 175 317 221 290 q 102 389 130 344 q 75 488 75 434 l 75 505 z "},"ş":{"ha":809,"x_min":75,"x_max":734,"o":"m 277 -97 q 331 -105 319 -104 q 352 -106 343 -106 q 380 -85 380 -106 q 375 -59 380 -75 q 355 0 370 -42 l 106 0 l 106 143 l 533 143 q 575 159 557 143 q 592 199 592 176 l 592 234 q 575 274 592 258 q 533 290 557 290 l 277 290 q 175 317 221 290 q 102 389 130 344 q 75 488 75 434 l 75 505 q 102 605 75 560 q 175 676 130 650 q 277 703 221 703 l 689 703 l 689 559 l 277 559 q 235 544 252 559 q 218 505 218 528 l 218 488 q 235 449 218 465 q 277 433 252 433 l 533 433 q 634 406 589 433 q 707 334 680 379 q 734 235 734 290 l 734 198 q 707 99 734 144 q 634 27 680 54 q 533 0 589 0 l 455 0 q 482 -120 482 -73 q 379 -208 482 -208 q 342 -206 362 -208 q 277 -197 322 -204 l 277 -97 z "},"ŝ":{"ha":809,"x_min":75,"x_max":734,"o":"m 352 994 l 457 994 l 616 785 l 520 785 l 404 901 l 289 785 l 193 785 l 352 994 m 75 505 q 102 605 75 560 q 175 676 130 650 q 277 703 221 703 l 689 703 l 689 559 l 277 559 q 235 544 252 559 q 218 505 218 528 l 218 488 q 235 449 218 465 q 277 433 252 433 l 533 433 q 634 406 589 433 q 707 334 680 379 q 734 235 734 290 l 734 198 q 707 99 734 144 q 634 27 680 54 q 533 0 589 0 l 106 0 l 106 143 l 533 143 q 575 159 557 143 q 592 199 592 176 l 592 234 q 575 274 592 258 q 533 290 557 290 l 277 290 q 175 317 221 290 q 102 389 130 344 q 75 488 75 434 l 75 505 z "},"ṡ":{"ha":809,"x_min":75,"x_max":734,"o":"m 329 860 q 351 913 329 892 q 404 935 373 935 q 457 913 435 935 q 479 860 479 892 q 457 807 479 829 q 404 785 435 785 q 351 807 373 785 q 329 860 329 829 m 75 505 q 102 605 75 560 q 175 676 130 650 q 277 703 221 703 l 689 703 l 689 559 l 277 559 q 235 544 252 559 q 218 505 218 528 l 218 488 q 235 449 218 465 q 277 433 252 433 l 533 433 q 634 406 589 433 q 707 334 680 379 q 734 235 734 290 l 734 198 q 707 99 734 144 q 634 27 680 54 q 533 0 589 0 l 106 0 l 106 143 l 533 143 q 575 159 557 143 q 592 199 592 176 l 592 234 q 575 274 592 258 q 533 290 557 290 l 277 290 q 175 317 221 290 q 102 389 130 344 q 75 488 75 434 l 75 505 z "},"ß":{"ha":816,"x_min":95,"x_max":734,"o":"m 95 737 q 127 852 95 800 q 215 934 160 903 q 336 964 269 964 l 475 964 q 595 934 541 964 q 682 852 650 903 q 715 737 715 800 l 715 674 q 644 514 715 568 q 734 335 734 464 l 734 227 q 702 113 734 164 q 615 31 669 61 q 494 0 560 0 l 311 0 l 311 142 l 486 142 q 561 167 530 142 q 592 227 592 192 l 592 335 q 561 406 592 379 q 480 433 530 433 l 311 433 l 311 576 l 475 576 q 544 605 515 576 q 572 674 572 633 l 572 737 q 544 797 572 772 q 475 822 515 822 l 336 822 q 266 797 295 822 q 237 737 237 772 l 237 0 l 95 0 l 95 737 z "},"t":{"ha":546,"x_min":47,"x_max":498,"o":"m 47 703 l 139 703 l 139 964 l 282 964 l 282 703 l 498 703 l 498 559 l 282 559 l 282 199 q 300 160 282 176 q 343 143 318 143 l 498 143 l 498 0 l 341 0 q 240 27 286 0 q 166 99 194 54 q 139 199 139 144 l 139 559 l 47 559 l 47 703 z "},"ŧ":{"ha":587,"x_min":68,"x_max":519,"o":"m 68 703 l 159 703 l 159 964 l 302 964 l 302 703 l 519 703 l 519 559 l 302 559 l 302 472 l 519 472 l 519 328 l 302 328 l 302 199 q 320 160 302 176 q 363 143 338 143 l 519 143 l 519 0 l 361 0 q 260 27 306 0 q 187 99 214 54 q 159 199 159 144 l 159 328 l 68 328 l 68 472 l 159 472 l 159 559 l 68 559 l 68 703 z "},"ť":{"ha":807,"x_min":47,"x_max":834,"o":"m 710 964 l 834 905 l 700 678 l 623 714 l 710 964 m 47 703 l 139 703 l 139 964 l 282 964 l 282 703 l 498 703 l 498 559 l 282 559 l 282 199 q 300 160 282 176 q 343 143 318 143 l 498 143 l 498 0 l 341 0 q 240 27 286 0 q 166 99 194 54 q 139 199 139 144 l 139 559 l 47 559 l 47 703 z "},"ṫ":{"ha":546,"x_min":47,"x_max":498,"o":"m 136 1122 q 158 1175 136 1154 q 211 1197 180 1197 q 264 1175 242 1197 q 286 1122 286 1154 q 264 1069 286 1090 q 211 1047 242 1047 q 158 1069 180 1047 q 136 1122 136 1090 m 47 703 l 139 703 l 139 964 l 282 964 l 282 703 l 498 703 l 498 559 l 282 559 l 282 199 q 300 160 282 176 q 343 143 318 143 l 498 143 l 498 0 l 341 0 q 240 27 286 0 q 166 99 194 54 q 139 199 139 144 l 139 559 l 47 559 l 47 703 z "},"u":{"ha":808,"x_min":81,"x_max":727,"o":"m 81 703 l 224 703 l 224 256 q 257 175 224 208 q 335 142 290 142 l 584 142 l 584 703 l 727 703 l 727 142 q 685 42 727 83 q 583 0 643 0 l 335 0 q 208 34 265 0 q 116 126 150 68 q 81 254 81 184 l 81 703 z "},"ú":{"ha":808,"x_min":81,"x_max":727,"o":"m 414 1072 l 538 1012 l 404 785 l 327 821 l 414 1072 m 81 703 l 224 703 l 224 256 q 257 175 224 208 q 335 142 290 142 l 584 142 l 584 703 l 727 703 l 727 142 q 685 42 727 83 q 583 0 643 0 l 335 0 q 208 34 265 0 q 116 126 150 68 q 81 254 81 184 l 81 703 z "},"ŭ":{"ha":808,"x_min":81,"x_max":727,"o":"m 293 989 q 326 910 293 943 q 404 878 359 878 q 483 910 450 878 q 515 989 515 943 l 606 989 q 579 887 606 933 q 506 814 551 842 q 404 787 460 787 q 303 814 349 787 q 230 887 257 842 q 202 989 202 933 l 293 989 m 81 703 l 224 703 l 224 256 q 257 175 224 208 q 335 142 290 142 l 584 142 l 584 703 l 727 703 l 727 142 q 685 42 727 83 q 583 0 643 0 l 335 0 q 208 34 265 0 q 116 126 150 68 q 81 254 81 184 l 81 703 z "},"û":{"ha":808,"x_min":81,"x_max":727,"o":"m 352 994 l 457 994 l 616 785 l 520 785 l 404 901 l 289 785 l 193 785 l 352 994 m 81 703 l 224 703 l 224 256 q 257 175 224 208 q 335 142 290 142 l 584 142 l 584 703 l 727 703 l 727 142 q 685 42 727 83 q 583 0 643 0 l 335 0 q 208 34 265 0 q 116 126 150 68 q 81 254 81 184 l 81 703 z "},"ü":{"ha":808,"x_min":81,"x_max":727,"o":"m 214 861 q 236 914 214 892 q 289 936 258 936 q 342 914 321 936 q 364 861 364 892 q 342 808 364 829 q 289 786 321 786 q 236 808 258 786 q 214 861 214 829 m 445 861 q 467 914 445 892 q 519 936 488 936 q 573 914 551 936 q 595 861 595 892 q 573 808 595 829 q 519 786 551 786 q 467 808 488 786 q 445 861 445 829 m 81 703 l 224 703 l 224 256 q 257 175 224 208 q 335 142 290 142 l 584 142 l 584 703 l 727 703 l 727 142 q 685 42 727 83 q 583 0 643 0 l 335 0 q 208 34 265 0 q 116 126 150 68 q 81 254 81 184 l 81 703 z "},"ù":{"ha":808,"x_min":81,"x_max":727,"o":"m 394 1072 l 481 821 l 404 785 l 270 1012 l 394 1072 m 81 703 l 224 703 l 224 256 q 257 175 224 208 q 335 142 290 142 l 584 142 l 584 703 l 727 703 l 727 142 q 685 42 727 83 q 583 0 643 0 l 335 0 q 208 34 265 0 q 116 126 150 68 q 81 254 81 184 l 81 703 z "},"ű":{"ha":808,"x_min":81,"x_max":727,"o":"m 286 1072 l 410 1012 l 275 785 l 198 821 l 286 1072 m 543 1072 l 667 1012 l 533 785 l 456 821 l 543 1072 m 81 703 l 224 703 l 224 256 q 257 175 224 208 q 335 142 290 142 l 584 142 l 584 703 l 727 703 l 727 142 q 685 42 727 83 q 583 0 643 0 l 335 0 q 208 34 265 0 q 116 126 150 68 q 81 254 81 184 l 81 703 z "},"ū":{"ha":808,"x_min":81,"x_max":727,"o":"m 201 885 l 606 885 l 606 785 l 201 785 l 201 885 m 81 703 l 224 703 l 224 256 q 257 175 224 208 q 335 142 290 142 l 584 142 l 584 703 l 727 703 l 727 142 q 685 42 727 83 q 583 0 643 0 l 335 0 q 208 34 265 0 q 116 126 150 68 q 81 254 81 184 l 81 703 z "},"ģ":{"ha":802,"x_min":75,"x_max":720,"o":"m 426 1072 l 503 1036 l 416 785 l 292 845 l 426 1072 m 75 450 q 109 577 75 520 q 201 668 143 634 q 328 703 258 703 l 577 703 q 678 661 636 703 q 720 559 720 618 l 720 -8 q 686 -136 720 -78 q 594 -228 652 -193 q 467 -262 536 -262 l 120 -262 l 120 -119 l 465 -119 q 544 -86 511 -119 q 577 -9 577 -54 l 577 559 l 328 559 q 250 527 283 559 q 218 449 218 495 l 218 254 q 250 176 218 209 q 328 143 283 143 l 496 143 l 496 0 l 328 0 q 201 34 258 0 q 109 126 143 68 q 75 253 75 183 l 75 450 z "},"ķ":{"ha":762,"x_min":81,"x_max":741,"o":"m 81 964 l 224 964 l 224 433 l 273 433 l 527 703 l 713 703 l 392 362 l 741 0 l 541 0 l 260 290 l 224 290 l 224 0 l 81 0 l 81 964 m 309 -81 l 453 -81 l 366 -362 l 258 -362 l 309 -81 z "},"ļ":{"ha":306,"x_min":55,"x_max":250,"o":"m 81 964 l 224 964 l 224 0 l 81 0 l 81 964 m 106 -81 l 250 -81 l 162 -362 l 55 -362 l 106 -81 z "},"ņ":{"ha":808,"x_min":81,"x_max":727,"o":"m 81 560 q 124 661 81 619 q 226 703 166 703 l 473 703 q 601 668 543 703 q 693 576 659 634 q 727 449 727 519 l 727 0 l 584 0 l 584 447 q 552 528 584 494 q 473 561 519 561 l 224 561 l 224 0 l 81 0 l 81 560 m 357 -81 l 501 -81 l 414 -362 l 307 -362 l 357 -81 z "},"ŗ":{"ha":488,"x_min":56,"x_max":440,"o":"m 81 506 q 109 605 81 560 q 182 676 136 650 q 283 703 228 703 l 440 703 l 440 560 l 283 560 q 242 544 259 560 q 224 503 224 527 l 224 0 l 81 0 l 81 506 m 106 -81 l 250 -81 l 163 -362 l 56 -362 l 106 -81 z "},"ţ":{"ha":546,"x_min":47,"x_max":498,"o":"m 249 -97 q 303 -105 291 -104 q 323 -106 315 -106 q 351 -85 351 -106 q 346 -59 351 -75 q 326 1 341 -42 q 232 32 274 4 q 164 103 189 59 q 139 199 139 146 l 139 559 l 47 559 l 47 703 l 139 703 l 139 964 l 282 964 l 282 703 l 498 703 l 498 559 l 282 559 l 282 199 q 300 160 282 176 q 343 143 318 143 l 498 143 l 498 0 l 427 0 q 454 -120 454 -73 q 351 -208 454 -208 q 314 -206 334 -208 q 249 -197 294 -204 l 249 -97 z "},"ș":{"ha":809,"x_min":75,"x_max":734,"o":"m 75 505 q 102 605 75 560 q 175 676 130 650 q 277 703 221 703 l 689 703 l 689 559 l 277 559 q 235 544 252 559 q 218 505 218 528 l 218 488 q 235 449 218 465 q 277 433 252 433 l 533 433 q 634 406 589 433 q 707 334 680 379 q 734 235 734 290 l 734 198 q 707 99 734 144 q 634 27 680 54 q 533 0 589 0 l 475 0 l 389 -277 l 281 -277 l 332 0 l 106 0 l 106 143 l 533 143 q 575 159 557 143 q 592 199 592 176 l 592 234 q 575 274 592 258 q 533 290 557 290 l 277 290 q 175 317 221 290 q 102 389 130 344 q 75 488 75 434 l 75 505 z "},"ț":{"ha":546,"x_min":47,"x_max":498,"o":"m 47 703 l 139 703 l 139 964 l 282 964 l 282 703 l 498 703 l 498 559 l 282 559 l 282 199 q 300 160 282 176 q 343 143 318 143 l 498 143 l 498 0 l 446 0 l 360 -277 l 253 -277 l 304 3 q 186 71 233 16 q 139 199 139 125 l 139 559 l 47 559 l 47 703 z "},"ḟ":{"ha":490,"x_min":81,"x_max":443,"o":"m 169 1122 q 191 1175 169 1154 q 244 1197 213 1197 q 297 1175 275 1197 q 319 1122 319 1154 q 297 1069 319 1090 q 244 1047 275 1047 q 191 1069 213 1047 q 169 1122 169 1090 m 81 763 q 109 864 81 819 q 182 937 136 910 q 283 964 228 964 l 440 964 l 440 822 l 283 822 q 242 805 259 822 q 224 763 224 787 l 224 703 l 443 703 l 443 560 l 224 560 l 224 0 l 81 0 l 81 763 z "},"ų":{"ha":808,"x_min":81,"x_max":727,"o":"m 481 -120 q 509 0 481 -72 l 335 0 q 208 34 265 0 q 116 126 150 68 q 81 254 81 184 l 81 703 l 224 703 l 224 256 q 257 175 224 208 q 335 142 290 142 l 584 142 l 584 703 l 727 703 l 727 142 q 693 51 727 90 q 610 3 660 12 q 589 -59 594 -42 q 584 -85 584 -75 q 612 -106 584 -106 q 633 -105 621 -106 q 686 -97 645 -104 l 686 -197 q 622 -206 642 -204 q 585 -208 602 -208 q 481 -120 481 -208 z "},"ů":{"ha":808,"x_min":81,"x_max":727,"o":"m 275 929 q 309 1010 275 977 q 391 1044 343 1044 l 418 1044 q 499 1010 466 1044 q 533 929 533 977 l 533 900 q 499 819 533 852 q 418 785 466 785 l 391 785 q 309 819 343 785 q 275 900 275 852 l 275 929 m 355 900 q 366 876 355 886 q 391 865 376 865 l 418 865 q 443 876 433 865 q 453 900 453 886 l 453 929 q 443 954 453 943 q 418 964 433 964 l 391 964 q 366 954 376 964 q 355 929 355 943 l 355 900 m 81 703 l 224 703 l 224 256 q 257 175 224 208 q 335 142 290 142 l 584 142 l 584 703 l 727 703 l 727 142 q 685 42 727 83 q 583 0 643 0 l 335 0 q 208 34 265 0 q 116 126 150 68 q 81 254 81 184 l 81 703 z "},"ũ":{"ha":808,"x_min":81,"x_max":727,"o":"m 180 791 q 218 898 181 856 q 312 941 255 941 q 347 935 328 941 q 401 916 366 930 q 456 895 438 901 q 490 890 474 890 q 520 937 520 890 l 627 937 q 589 830 627 874 q 496 785 551 785 q 461 791 481 785 q 406 812 442 798 q 350 834 368 829 q 316 840 332 840 q 286 791 286 840 l 180 791 m 81 703 l 224 703 l 224 256 q 257 175 224 208 q 335 142 290 142 l 584 142 l 584 703 l 727 703 l 727 142 q 685 42 727 83 q 583 0 643 0 l 335 0 q 208 34 265 0 q 116 126 150 68 q 81 254 81 184 l 81 703 z "},"v":{"ha":730,"x_min":27,"x_max":703,"o":"m 178 703 l 366 207 l 552 703 l 703 703 l 435 0 l 294 0 l 27 703 l 178 703 z "},"w":{"ha":1012,"x_min":41,"x_max":971,"o":"m 184 703 l 265 237 l 439 534 l 574 534 l 747 237 l 828 703 l 971 703 l 850 0 l 724 0 l 507 368 l 288 0 l 163 0 l 41 703 l 184 703 z "},"ẃ":{"ha":1012,"x_min":41,"x_max":971,"o":"m 516 1072 l 640 1012 l 506 785 l 429 821 l 516 1072 m 184 703 l 265 237 l 439 534 l 574 534 l 747 237 l 828 703 l 971 703 l 850 0 l 724 0 l 507 368 l 288 0 l 163 0 l 41 703 l 184 703 z "},"ŵ":{"ha":1012,"x_min":41,"x_max":971,"o":"m 454 994 l 559 994 l 718 785 l 622 785 l 506 901 l 391 785 l 295 785 l 454 994 m 184 703 l 265 237 l 439 534 l 574 534 l 747 237 l 828 703 l 971 703 l 850 0 l 724 0 l 507 368 l 288 0 l 163 0 l 41 703 l 184 703 z "},"ẅ":{"ha":1012,"x_min":41,"x_max":971,"o":"m 316 861 q 338 914 316 892 q 391 936 359 936 q 444 914 422 936 q 466 861 466 892 q 444 808 466 829 q 391 786 422 786 q 338 808 359 786 q 316 861 316 829 m 547 861 q 568 914 547 892 q 621 936 590 936 q 675 914 653 936 q 696 861 696 892 q 675 808 696 829 q 621 786 653 786 q 568 808 590 786 q 547 861 547 829 m 184 703 l 265 237 l 439 534 l 574 534 l 747 237 l 828 703 l 971 703 l 850 0 l 724 0 l 507 368 l 288 0 l 163 0 l 41 703 l 184 703 z "},"ẁ":{"ha":1012,"x_min":41,"x_max":971,"o":"m 496 1072 l 583 821 l 506 785 l 372 1012 l 496 1072 m 184 703 l 265 237 l 439 534 l 574 534 l 747 237 l 828 703 l 971 703 l 850 0 l 724 0 l 507 368 l 288 0 l 163 0 l 41 703 l 184 703 z "},"x":{"ha":813,"x_min":27,"x_max":786,"o":"m 313 352 l 27 703 l 210 703 l 407 459 l 604 703 l 786 703 l 500 352 l 786 0 l 605 0 l 407 243 l 209 0 l 27 0 l 313 352 z "},"y":{"ha":760,"x_min":41,"x_max":720,"o":"m 193 703 l 375 216 l 562 703 l 720 703 l 347 -264 l 190 -264 l 299 23 l 41 703 l 193 703 z "},"ý":{"ha":760,"x_min":41,"x_max":720,"o":"m 391 1072 l 515 1012 l 380 785 l 303 821 l 391 1072 m 193 703 l 375 216 l 562 703 l 720 703 l 347 -264 l 190 -264 l 299 23 l 41 703 l 193 703 z "},"ŷ":{"ha":760,"x_min":41,"x_max":720,"o":"m 328 994 l 433 994 l 591 785 l 496 785 l 380 901 l 264 785 l 169 785 l 328 994 m 193 703 l 375 216 l 562 703 l 720 703 l 347 -264 l 190 -264 l 299 23 l 41 703 l 193 703 z "},"ÿ":{"ha":760,"x_min":41,"x_max":720,"o":"m 190 861 q 212 914 190 892 q 264 936 233 936 q 318 914 296 936 q 340 861 340 892 q 318 808 340 829 q 264 786 296 786 q 212 808 233 786 q 190 861 190 829 m 420 861 q 442 914 420 892 q 495 936 464 936 q 549 914 527 936 q 570 861 570 892 q 549 808 570 829 q 495 786 527 786 q 442 808 464 786 q 420 861 420 829 m 193 703 l 375 216 l 562 703 l 720 703 l 347 -264 l 190 -264 l 299 23 l 41 703 l 193 703 z "},"ỳ":{"ha":760,"x_min":41,"x_max":720,"o":"m 370 1072 l 457 821 l 380 785 l 245 1012 l 370 1072 m 193 703 l 375 216 l 562 703 l 720 703 l 347 -264 l 190 -264 l 299 23 l 41 703 l 193 703 z "},"z":{"ha":797,"x_min":75,"x_max":722,"o":"m 75 109 l 497 560 l 75 560 l 75 703 l 722 703 l 722 595 l 298 142 l 722 142 l 722 0 l 75 0 l 75 109 z "},"ź":{"ha":797,"x_min":75,"x_max":722,"o":"m 408 1072 l 532 1012 l 398 785 l 321 821 l 408 1072 m 75 109 l 497 560 l 75 560 l 75 703 l 722 703 l 722 595 l 298 142 l 722 142 l 722 0 l 75 0 l 75 109 z "},"ž":{"ha":797,"x_min":75,"x_max":722,"o":"m 282 995 l 397 878 l 513 995 l 609 995 l 450 785 l 345 785 l 186 995 l 282 995 m 75 109 l 497 560 l 75 560 l 75 703 l 722 703 l 722 595 l 298 142 l 722 142 l 722 0 l 75 0 l 75 109 z "},"ż":{"ha":797,"x_min":75,"x_max":722,"o":"m 323 860 q 345 913 323 892 q 398 935 367 935 q 451 913 429 935 q 473 860 473 892 q 451 807 473 829 q 398 785 429 785 q 345 807 367 785 q 323 860 323 829 m 75 109 l 497 560 l 75 560 l 75 703 l 722 703 l 722 595 l 298 142 l 722 142 l 722 0 l 75 0 l 75 109 z "},"ﬁ":{"ha":797,"x_min":81,"x_max":729,"o":"m 553 894 q 578 956 553 930 q 641 982 604 982 q 703 956 677 982 q 729 894 729 930 q 703 831 729 857 q 641 806 677 806 q 578 831 604 806 q 553 894 553 857 m 81 763 q 109 864 81 819 q 182 937 136 910 q 283 964 228 964 l 440 964 l 440 822 l 283 822 q 242 805 259 822 q 224 763 224 787 l 224 703 l 713 703 l 713 0 l 569 0 l 569 560 l 224 560 l 224 0 l 81 0 l 81 763 z "},"ﬂ":{"ha":793,"x_min":81,"x_max":712,"o":"m 81 763 q 109 864 81 819 q 182 937 136 910 q 283 964 228 964 l 712 964 l 712 0 l 569 0 l 569 822 l 283 822 q 242 805 259 822 q 224 763 224 787 l 224 703 l 443 703 l 443 560 l 224 560 l 224 0 l 81 0 l 81 763 z "},"ª":{"ha":563,"x_min":81,"x_max":481,"o":"m 81 810 q 130 919 81 874 q 250 964 179 964 l 481 964 l 481 527 l 250 527 q 131 572 180 527 q 81 682 81 617 l 81 810 m 168 683 q 192 634 168 654 q 250 614 216 614 l 395 614 l 395 878 l 250 878 q 192 858 216 878 q 168 809 168 838 l 168 683 z "},"º":{"ha":549,"x_min":81,"x_max":467,"o":"m 81 814 q 126 920 81 876 q 233 964 170 964 l 316 964 q 423 920 378 964 q 467 814 467 876 l 467 675 q 423 569 467 613 q 316 525 378 525 l 233 525 q 126 569 170 525 q 81 675 81 613 l 81 814 m 168 683 q 169 667 168 671 q 191 628 172 644 q 233 612 209 612 l 316 612 q 361 630 342 612 q 380 675 380 649 l 380 806 q 380 822 380 819 q 358 862 377 846 q 316 878 340 878 l 233 878 q 187 859 206 878 q 168 814 168 840 l 168 683 z "},"⁄":{"ha":594,"x_min":-98,"x_max":692,"o":"m 577 964 l 692 964 l 17 0 l -98 0 l 577 964 z "},"½":{"ha":1377,"x_min":81,"x_max":1295,"o":"m 81 964 l 267 964 l 267 399 l 178 399 l 178 876 l 81 876 l 81 964 m 863 964 l 972 964 l 288 0 l 180 0 l 863 964 m 855 191 q 878 259 855 237 q 956 292 900 281 l 1164 332 q 1195 351 1183 335 q 1207 386 1207 366 l 1207 422 q 1192 459 1207 444 q 1155 474 1177 474 l 884 474 l 884 563 l 1155 563 q 1254 523 1213 563 q 1295 425 1295 482 l 1295 385 q 1267 297 1295 335 q 1196 250 1239 258 l 962 206 q 944 192 944 203 l 944 89 l 1295 89 l 1295 0 l 855 0 l 855 191 z "},"¼":{"ha":1385,"x_min":81,"x_max":1304,"o":"m 81 964 l 267 964 l 267 399 l 178 399 l 178 876 l 81 876 l 81 964 m 863 964 l 972 964 l 289 0 l 180 0 l 863 964 m 885 563 l 973 563 l 973 368 q 988 331 973 347 q 1025 316 1003 316 l 1216 316 l 1216 563 l 1304 563 l 1304 0 l 1216 0 l 1216 227 l 1025 227 q 926 268 967 227 q 885 367 885 309 l 885 563 z "},"¾":{"ha":1579,"x_min":81,"x_max":1491,"o":"m 81 493 l 381 493 q 418 508 403 493 q 434 544 434 523 l 434 597 q 413 638 434 621 q 362 656 392 656 l 230 656 l 230 744 l 362 744 q 406 761 388 744 q 423 800 423 777 l 423 825 q 408 861 423 846 q 370 876 392 876 l 81 876 l 81 964 l 369 964 q 470 924 428 964 q 511 827 511 884 l 511 799 q 466 704 511 739 q 522 596 522 668 l 522 543 q 480 445 522 486 q 380 404 439 404 l 81 404 l 81 493 m 1052 964 l 1160 964 l 482 0 l 374 0 l 1052 964 m 1072 563 l 1160 563 l 1160 368 q 1175 331 1160 347 q 1212 316 1190 316 l 1403 316 l 1403 563 l 1491 563 l 1491 0 l 1403 0 l 1403 227 l 1213 227 q 1113 268 1154 227 q 1072 367 1072 309 l 1072 563 z "},"¹":{"ha":280,"x_min":27,"x_max":212,"o":"m 27 964 l 212 964 l 212 404 l 124 404 l 124 876 l 27 876 l 27 964 z "},"²":{"ha":533,"x_min":47,"x_max":486,"o":"m 47 596 q 70 665 47 642 q 146 698 92 688 l 355 736 q 386 755 374 740 q 397 789 397 770 l 397 825 q 382 861 397 846 q 345 876 367 876 l 75 876 l 75 964 l 345 964 q 445 925 404 964 q 486 829 486 885 l 486 789 q 457 702 486 740 q 387 655 429 663 l 153 611 q 136 597 136 608 l 136 493 l 485 493 l 485 404 l 47 404 l 47 596 z "},"³":{"ha":536,"x_min":47,"x_max":488,"o":"m 47 493 l 347 493 q 385 508 369 493 q 400 544 400 523 l 400 597 q 379 638 400 621 q 328 656 358 656 l 196 656 l 196 744 l 328 744 q 372 761 354 744 q 389 800 389 777 l 389 825 q 374 861 389 846 q 336 876 358 876 l 47 876 l 47 964 l 335 964 q 436 924 394 964 q 477 827 477 884 l 477 799 q 432 704 477 739 q 488 596 488 668 l 488 543 q 447 445 488 486 q 347 404 405 404 l 47 404 l 47 493 z "},"\r":{"ha":407,"x_min":0,"x_max":0,"o":""},"\u0000":{"ha":0,"x_min":0,"x_max":0,"o":""}," ":{"ha":407,"x_min":0,"x_max":0,"o":""}," ":{"ha":407,"x_min":0,"x_max":0,"o":""},".":{"ha":332,"x_min":78,"x_max":254,"o":"m 78 81 q 104 144 78 118 q 166 170 130 170 q 229 144 203 170 q 254 81 254 119 q 229 19 254 44 q 166 -7 203 -7 q 104 19 130 -7 q 78 81 78 45 z "},",":{"ha":319,"x_min":27,"x_max":237,"o":"m 102 149 l 237 149 l 136 -102 l 27 -102 l 102 149 z "},":":{"ha":339,"x_min":81,"x_max":258,"o":"m 81 599 q 107 661 81 635 q 170 687 133 687 q 232 662 207 687 q 258 599 258 636 q 232 536 258 562 q 170 511 207 511 q 107 536 132 511 q 81 599 81 562 m 81 81 q 107 144 81 118 q 170 170 133 170 q 232 144 207 170 q 258 81 258 119 q 232 19 258 44 q 170 -7 207 -7 q 107 19 133 -7 q 81 81 81 45 z "},";":{"ha":339,"x_min":27,"x_max":258,"o":"m 81 599 q 107 661 81 635 q 170 687 133 687 q 232 662 207 687 q 258 599 258 636 q 232 536 258 562 q 170 511 207 511 q 107 536 132 511 q 81 599 81 562 m 102 149 l 237 149 l 136 -102 l 27 -102 l 102 149 z "},"…":{"ha":863,"x_min":81,"x_max":781,"o":"m 81 81 q 107 144 81 118 q 170 170 133 170 q 232 144 207 170 q 258 81 258 119 q 232 19 258 44 q 170 -7 207 -7 q 107 19 133 -7 q 81 81 81 45 m 343 81 q 369 144 343 118 q 431 170 395 170 q 494 144 469 170 q 519 81 519 119 q 494 19 519 44 q 431 -7 469 -7 q 369 19 395 -7 q 343 81 343 45 m 605 81 q 631 144 605 118 q 693 170 656 170 q 756 144 730 170 q 781 81 781 119 q 756 19 781 44 q 693 -7 730 -7 q 631 19 656 -7 q 605 81 605 45 z "},"!":{"ha":366,"x_min":95,"x_max":271,"o":"m 112 964 l 255 964 l 255 226 l 112 226 l 112 964 m 95 81 q 121 144 95 118 q 183 170 146 170 q 246 144 220 170 q 271 81 271 119 q 246 19 271 44 q 183 -7 220 -7 q 121 19 146 -7 q 95 81 95 45 z "},"¡":{"ha":339,"x_min":81,"x_max":258,"o":"m 81 762 q 107 824 81 798 q 170 850 133 850 q 232 824 206 850 q 258 762 258 798 q 232 699 258 725 q 170 673 206 673 q 107 699 133 673 q 81 762 81 725 m 98 570 l 241 570 l 241 -264 l 98 -264 l 98 570 z "},"?":{"ha":779,"x_min":61,"x_max":698,"o":"m 61 964 l 481 964 q 591 936 542 964 q 669 858 640 907 q 698 748 698 809 l 698 652 q 677 543 698 588 q 607 464 656 498 q 477 401 559 431 q 386 360 410 376 q 361 324 361 344 l 361 208 l 218 208 l 218 324 q 270 448 218 399 q 450 542 322 496 q 531 588 507 562 q 555 656 555 614 l 555 748 q 533 800 555 779 q 481 822 511 822 l 61 822 l 61 964 m 209 74 q 233 131 209 108 q 290 155 256 155 q 347 131 323 155 q 370 74 370 108 q 347 17 370 41 q 290 -7 323 -7 q 233 17 256 -7 q 209 74 209 41 z "},"¿":{"ha":779,"x_min":61,"x_max":698,"o":"m 389 626 q 412 683 389 660 q 469 707 436 707 q 527 683 503 707 q 550 626 550 660 q 527 569 550 593 q 469 545 503 545 q 412 569 436 545 q 389 626 389 593 m 61 49 q 82 157 61 113 q 151 236 102 202 q 282 300 199 269 q 373 339 349 323 q 397 376 397 355 l 397 492 l 541 492 l 541 376 q 488 252 541 302 q 309 159 435 203 q 228 112 252 138 q 204 45 204 87 l 204 -48 q 226 -100 204 -79 q 278 -122 248 -122 l 698 -122 l 698 -264 l 278 -264 q 168 -236 217 -264 q 90 -159 119 -208 q 61 -49 61 -110 l 61 49 z "},"·":{"ha":313,"x_min":81,"x_max":231,"o":"m 81 601 q 103 654 81 632 q 156 675 125 675 q 210 654 188 675 q 231 601 231 632 q 210 548 231 570 q 156 526 188 526 q 103 548 125 526 q 81 601 81 570 z "},"•":{"ha":475,"x_min":81,"x_max":393,"o":"m 81 502 q 127 612 81 567 q 237 658 172 658 q 348 612 302 658 q 393 502 393 567 q 348 391 393 437 q 237 346 302 346 q 127 391 172 346 q 81 502 81 437 z "},"*":{"ha":597,"x_min":81,"x_max":516,"o":"m 131 522 l 248 454 l 248 591 l 348 591 l 348 454 l 468 522 l 515 436 l 397 368 l 516 299 l 467 214 l 348 282 l 348 144 l 248 144 l 248 281 l 131 213 l 82 300 l 199 369 l 81 437 l 131 522 z "},"#":{"ha":911,"x_min":81,"x_max":830,"o":"m 90 461 l 241 461 l 247 548 l 96 548 l 106 676 l 256 676 l 276 964 l 404 964 l 384 676 l 552 676 l 572 964 l 700 964 l 680 676 l 830 676 l 820 548 l 670 548 l 665 461 l 814 461 l 805 334 l 655 334 l 632 0 l 505 0 l 528 334 l 359 334 l 336 0 l 208 0 l 232 334 l 81 334 l 90 461 m 537 461 l 543 548 l 375 548 l 368 461 l 537 461 z "},"/":{"ha":943,"x_min":14,"x_max":930,"o":"m 767 1044 l 930 1044 l 176 -28 l 14 -28 l 767 1044 z "},"\\":{"ha":943,"x_min":14,"x_max":930,"o":"m 176 1044 l 930 -28 l 767 -28 l 14 1044 l 176 1044 z "},"-":{"ha":588,"x_min":81,"x_max":507,"o":"m 81 435 l 507 435 l 507 316 l 81 316 l 81 435 z "},"­":{"ha":574,"x_min":75,"x_max":500,"o":"m 75 435 l 500 435 l 500 316 l 75 316 l 75 435 z "},"–":{"ha":694,"x_min":75,"x_max":620,"o":"m 75 435 l 620 435 l 620 316 l 75 316 l 75 435 z "},"—":{"ha":1389,"x_min":75,"x_max":1314,"o":"m 75 435 l 1314 435 l 1314 316 l 75 316 l 75 435 z "},"_":{"ha":869,"x_min":75,"x_max":794,"o":"m 794 0 l 794 -119 l 75 -119 l 75 0 l 794 0 z "},"(":{"ha":459,"x_min":95,"x_max":432,"o":"m 95 882 q 125 1016 95 968 q 229 1085 155 1065 q 432 1105 302 1105 l 432 962 q 311 956 353 962 q 254 932 269 949 q 238 882 238 915 l 238 -41 q 254 -91 238 -74 q 312 -115 270 -109 q 432 -122 354 -122 l 432 -264 q 229 -244 302 -264 q 125 -176 155 -224 q 95 -41 95 -127 l 95 882 z "},")":{"ha":459,"x_min":27,"x_max":364,"o":"m 27 -124 q 149 -117 106 -124 q 207 -93 191 -111 q 223 -43 223 -75 l 223 884 q 207 934 223 917 q 149 958 191 951 q 27 964 107 964 l 27 1105 q 231 1086 158 1105 q 334 1018 304 1066 q 364 884 364 970 l 364 -43 q 335 -177 364 -129 q 232 -245 305 -226 q 27 -264 159 -264 l 27 -124 z "},"{":{"ha":492,"x_min":61,"x_max":465,"o":"m 61 498 q 121 503 102 498 q 146 525 140 508 q 151 578 151 542 l 151 855 q 163 985 151 935 q 209 1061 176 1034 q 303 1097 241 1087 q 465 1107 365 1107 l 465 964 q 348 959 383 964 q 303 930 312 954 q 294 855 294 907 l 294 578 q 249 427 294 489 q 294 275 294 368 l 294 -26 q 306 -88 294 -67 q 355 -115 318 -109 q 465 -122 391 -122 l 465 -264 q 304 -255 366 -264 q 210 -220 243 -245 q 164 -148 176 -195 q 151 -26 151 -101 l 151 275 q 133 337 151 321 q 61 353 114 353 l 61 498 z "},"}":{"ha":492,"x_min":27,"x_max":431,"o":"m 27 -122 q 137 -115 101 -122 q 185 -88 174 -109 q 197 -26 197 -67 l 197 275 q 243 427 197 368 q 197 578 197 489 l 197 855 q 189 930 197 907 q 144 959 180 954 q 27 964 109 964 l 27 1107 q 189 1097 127 1107 q 283 1061 250 1087 q 328 985 316 1034 q 340 855 340 935 l 340 578 q 346 525 340 542 q 370 503 351 508 q 431 498 389 498 l 431 353 q 359 337 378 353 q 340 275 340 321 l 340 -26 q 328 -148 340 -101 q 282 -220 315 -195 q 187 -255 249 -245 q 27 -264 125 -264 l 27 -122 z "},"[":{"ha":414,"x_min":78,"x_max":390,"o":"m 78 1105 l 390 1105 l 390 964 l 219 964 l 219 -124 l 390 -124 l 390 -264 l 78 -264 l 78 1105 z "},"]":{"ha":414,"x_min":24,"x_max":336,"o":"m 195 -124 l 195 964 l 24 964 l 24 1105 l 336 1105 l 336 -264 l 24 -264 l 24 -124 l 195 -124 z "},"‚":{"ha":330,"x_min":68,"x_max":262,"o":"m 119 144 l 262 144 l 175 -137 l 68 -137 l 119 144 z "},"„":{"ha":568,"x_min":68,"x_max":500,"o":"m 119 144 l 262 144 l 175 -137 l 68 -137 l 119 144 m 356 144 l 500 144 l 412 -137 l 305 -137 l 356 144 z "},"“":{"ha":568,"x_min":68,"x_max":500,"o":"m 155 964 l 262 964 l 212 684 l 68 684 l 155 964 m 392 964 l 500 964 l 449 684 l 305 684 l 392 964 z "},"”":{"ha":568,"x_min":68,"x_max":500,"o":"m 118 964 l 262 964 l 175 684 l 68 684 l 118 964 m 355 964 l 500 964 l 412 684 l 305 684 l 355 964 z "},"‘":{"ha":347,"x_min":68,"x_max":279,"o":"m 202 1080 l 279 1044 l 192 793 l 68 853 l 202 1080 z "},"’":{"ha":347,"x_min":68,"x_max":279,"o":"m 155 1080 l 279 1020 l 145 793 l 68 829 l 155 1080 z "},"«":{"ha":873,"x_min":75,"x_max":799,"o":"m 75 410 l 465 683 l 465 531 l 241 372 l 465 215 l 465 64 l 75 337 l 75 410 m 409 410 l 799 683 l 799 531 l 575 372 l 799 215 l 799 64 l 409 337 l 409 410 z "},"»":{"ha":873,"x_min":75,"x_max":799,"o":"m 75 215 l 298 372 l 75 531 l 75 683 l 465 410 l 465 337 l 75 64 l 75 215 m 408 215 l 633 372 l 408 531 l 408 683 l 799 410 l 799 337 l 408 64 l 408 215 z "},"‹":{"ha":834,"x_min":75,"x_max":760,"o":"m 75 428 l 760 677 l 760 536 l 319 375 l 760 215 l 760 73 l 75 322 l 75 428 z "},"›":{"ha":834,"x_min":75,"x_max":760,"o":"m 75 215 l 515 375 l 75 536 l 75 677 l 760 428 l 760 322 l 75 73 l 75 215 z "},"\"":{"ha":422,"x_min":81,"x_max":340,"o":"m 182 964 l 178 789 l 86 789 l 81 964 l 182 964 m 340 964 l 336 789 l 244 789 l 239 964 l 340 964 z "},"'":{"ha":264,"x_min":81,"x_max":182,"o":"m 182 964 l 178 777 l 86 777 l 81 964 l 182 964 z "},"ƒ":{"ha":534,"x_min":-88,"x_max":486,"o":"m 69 -122 q 110 -104 92 -122 q 127 -63 127 -85 l 127 762 q 155 864 127 819 q 228 937 182 910 q 330 964 274 964 l 486 964 l 486 821 l 330 821 q 289 803 307 821 q 271 762 271 785 l 271 703 l 408 703 l 408 561 l 271 561 l 271 -63 q 243 -164 271 -119 q 171 -237 216 -210 q 69 -264 125 -264 l -88 -264 l -88 -122 l 69 -122 z "},"@":{"ha":1069,"x_min":95,"x_max":975,"o":"m 95 698 q 131 832 95 772 q 228 928 168 892 q 362 964 289 964 l 707 964 q 842 929 781 964 q 938 836 902 895 q 975 707 975 778 l 975 495 q 934 355 975 415 q 821 262 894 295 q 651 229 749 229 l 651 620 l 500 620 q 438 598 460 620 q 415 538 415 576 l 415 414 q 438 364 415 383 q 497 345 461 345 l 570 345 l 570 229 l 500 229 q 397 253 442 229 q 325 319 351 277 q 299 414 299 361 l 299 552 q 325 646 299 604 q 396 712 351 688 q 497 736 441 736 l 766 736 l 766 364 q 833 419 808 382 q 859 497 859 456 l 859 705 q 838 775 859 743 q 782 828 817 808 q 709 848 748 848 l 363 848 q 289 827 323 848 q 232 771 254 806 q 211 696 211 736 l 211 267 q 246 159 211 201 q 336 116 281 116 l 570 116 l 570 0 l 332 0 q 210 35 264 0 q 125 130 156 69 q 95 267 95 190 l 95 698 z "},"&":{"ha":957,"x_min":81,"x_max":930,"o":"m 81 325 q 103 433 81 382 q 165 516 125 483 q 119 709 119 596 l 119 734 q 150 850 119 798 q 233 933 181 902 q 349 964 286 964 l 750 964 l 750 822 l 349 822 q 287 796 313 822 q 261 734 261 770 l 261 709 q 281 608 261 655 q 334 533 301 561 l 607 312 l 607 555 l 750 555 l 750 181 l 930 0 l 728 0 l 688 40 q 552 0 632 0 l 311 0 q 196 31 248 0 q 113 115 144 62 q 81 231 81 167 l 81 325 m 224 231 q 250 169 224 195 q 311 143 275 143 l 515 143 q 572 148 551 143 l 262 406 q 224 325 224 370 l 224 231 z "},"¶":{"ha":705,"x_min":61,"x_max":610,"o":"m 61 725 q 96 849 61 795 q 194 933 132 903 q 337 964 256 964 l 425 964 l 425 0 l 326 0 l 326 488 q 134 557 207 491 q 61 725 61 623 m 510 964 l 610 964 l 610 0 l 510 0 l 510 964 z "},"§":{"ha":808,"x_min":81,"x_max":727,"o":"m 81 521 q 122 659 81 608 q 105 751 105 699 l 105 766 q 132 866 105 821 q 204 938 159 911 q 304 964 250 964 l 677 964 l 677 822 l 304 822 q 265 806 281 822 q 248 766 248 789 l 248 751 q 261 717 248 731 q 292 703 273 703 l 547 703 q 637 678 597 703 q 703 612 678 654 q 727 520 727 571 l 727 462 q 662 309 727 366 q 673 222 673 270 l 673 204 q 647 101 673 148 q 577 27 621 55 q 480 0 534 0 l 111 0 l 111 143 l 479 143 q 515 160 500 143 q 530 202 530 178 l 530 222 q 515 263 530 244 q 479 281 499 281 l 262 281 q 171 306 212 281 q 106 371 130 330 q 81 462 81 412 l 81 521 m 224 468 q 236 437 224 450 q 262 425 247 425 l 549 425 q 574 437 564 425 q 585 468 585 450 l 585 516 q 574 547 585 534 q 549 559 564 559 l 262 559 q 236 547 247 559 q 224 516 224 534 l 224 468 z "},"©":{"ha":866,"x_min":95,"x_max":771,"o":"m 95 774 q 121 870 95 827 q 190 939 146 913 q 286 964 233 964 l 581 964 q 676 939 633 964 q 745 870 720 913 q 771 774 771 827 l 771 437 q 745 342 771 385 q 676 273 720 298 q 581 247 633 247 l 286 247 q 190 273 233 247 q 121 342 146 298 q 95 437 95 385 l 95 774 m 181 437 q 212 363 181 394 q 286 333 242 333 l 581 333 q 654 363 624 333 q 685 437 685 394 l 685 774 q 654 848 685 817 q 581 878 624 878 l 286 878 q 212 848 242 878 q 181 774 181 817 l 181 437 m 253 669 q 274 747 253 711 q 330 803 295 782 q 408 823 366 823 l 591 823 l 591 737 l 408 737 q 360 717 380 737 q 340 669 340 696 l 340 545 q 360 497 340 517 q 408 477 380 477 l 591 477 l 591 391 l 408 391 q 330 412 366 391 q 274 468 295 433 q 253 545 253 503 l 253 669 z "},"®":{"ha":866,"x_min":95,"x_max":771,"o":"m 95 774 q 121 870 95 827 q 190 939 146 913 q 286 964 233 964 l 581 964 q 676 939 633 964 q 745 870 720 913 q 771 774 771 827 l 771 437 q 745 342 771 385 q 676 273 720 298 q 581 247 633 247 l 286 247 q 190 273 233 247 q 121 342 146 298 q 95 437 95 385 l 95 774 m 181 437 q 212 363 181 394 q 286 333 242 333 l 581 333 q 654 363 624 333 q 685 437 685 394 l 685 774 q 654 848 685 817 q 581 878 624 878 l 286 878 q 212 848 242 878 q 181 774 181 817 l 181 437 m 263 823 l 480 823 q 559 789 526 823 q 593 707 593 755 l 593 676 q 563 598 593 631 q 490 559 534 565 l 618 390 l 519 390 l 391 558 l 349 558 l 349 390 l 263 390 l 263 823 m 480 644 q 499 654 491 644 q 507 676 507 663 l 507 707 q 499 730 507 720 q 480 739 491 739 l 349 739 l 349 644 l 480 644 z "},"™":{"ha":972,"x_min":81,"x_max":890,"o":"m 81 964 l 439 964 l 439 879 l 304 879 l 304 531 l 218 531 l 218 879 l 81 879 l 81 964 m 490 964 l 564 964 l 690 812 l 817 964 l 890 964 l 890 531 l 804 531 l 804 813 l 721 715 l 660 715 l 576 813 l 576 531 l 490 531 l 490 964 z "},"°":{"ha":487,"x_min":81,"x_max":406,"o":"m 81 821 q 124 922 81 880 q 226 964 166 964 l 261 964 q 363 922 321 964 q 406 821 406 880 l 406 764 q 363 663 406 705 q 261 621 321 621 l 226 621 q 124 663 166 621 q 81 764 81 705 l 81 821 m 161 764 q 180 719 161 738 q 226 701 199 701 l 261 701 q 307 719 288 701 q 326 764 326 738 l 326 821 q 307 866 326 847 q 261 884 288 884 l 226 884 q 180 866 199 884 q 161 821 161 847 l 161 764 z "},"|":{"ha":290,"x_min":81,"x_max":210,"o":"m 81 1039 l 210 1039 l 210 -259 l 81 -259 l 81 1039 z "},"¦":{"ha":296,"x_min":81,"x_max":215,"o":"m 81 1044 l 215 1044 l 215 492 l 81 492 l 81 1044 m 81 288 l 215 288 l 215 -264 l 81 -264 l 81 288 z "},"†":{"ha":827,"x_min":68,"x_max":759,"o":"m 68 697 l 342 697 l 342 964 l 485 964 l 485 697 l 759 697 l 759 554 l 485 554 l 485 0 l 342 0 l 342 554 l 68 554 l 68 697 z "},"‡":{"ha":827,"x_min":68,"x_max":759,"o":"m 68 416 l 342 416 l 342 554 l 68 554 l 68 697 l 342 697 l 342 964 l 485 964 l 485 697 l 759 697 l 759 554 l 485 554 l 485 416 l 759 416 l 759 274 l 485 274 l 485 0 l 342 0 l 342 274 l 68 274 l 68 416 z "},"€":{"ha":937,"x_min":31,"x_max":859,"o":"m 31 442 l 144 442 l 144 523 l 31 523 l 31 650 l 144 650 l 144 693 q 181 830 144 768 q 280 928 218 892 q 419 964 343 964 l 859 964 l 859 822 l 419 822 q 326 784 364 822 q 287 693 287 747 l 287 650 l 658 650 l 658 523 l 287 523 l 287 442 l 658 442 l 658 315 l 287 315 l 287 269 q 325 180 287 216 q 419 143 363 143 l 859 143 l 859 0 l 419 0 q 280 36 342 0 q 181 132 218 72 q 144 267 144 193 l 144 315 l 31 315 l 31 442 z "},"¢":{"ha":815,"x_min":81,"x_max":738,"o":"m 81 582 q 117 710 81 652 q 211 802 152 768 q 342 836 270 836 l 397 836 l 397 964 l 522 964 l 522 836 l 738 836 l 738 693 l 522 693 l 522 276 l 738 276 l 738 134 l 522 134 l 522 0 l 397 0 l 397 134 l 342 134 q 211 168 270 134 q 117 260 152 202 q 81 388 81 318 l 81 582 m 224 390 q 259 309 224 342 q 342 276 294 276 l 397 276 l 397 693 l 342 693 q 259 660 294 693 q 224 581 224 627 l 224 390 z "},"¤":{"ha":694,"x_min":75,"x_max":620,"o":"m 136 303 q 94 443 94 366 q 136 583 94 516 l 75 645 l 144 716 l 207 653 q 347 696 272 696 q 488 653 422 696 l 549 716 l 620 645 l 558 583 q 600 443 600 516 q 558 303 600 366 l 620 241 l 549 170 l 488 233 q 347 189 421 189 q 207 233 274 189 l 144 170 l 75 241 l 136 303 m 203 443 q 245 340 203 383 q 347 298 288 298 q 450 340 408 298 q 492 443 492 383 q 450 546 492 503 q 347 588 408 588 q 245 546 288 588 q 203 443 203 503 z "},"$":{"ha":976,"x_min":95,"x_max":881,"o":"m 95 731 q 127 849 95 796 q 214 933 159 902 q 334 964 269 964 l 424 964 l 424 1041 l 550 1041 l 550 964 l 833 964 l 833 822 l 550 822 l 550 573 l 642 573 q 762 542 708 573 q 849 457 817 510 q 881 339 881 404 l 881 234 q 849 116 881 169 q 762 32 817 63 q 642 0 708 0 l 550 0 l 550 -77 l 424 -77 l 424 0 l 96 0 l 96 143 l 424 143 l 424 431 l 334 431 q 214 461 268 431 q 127 545 159 492 q 95 660 95 597 l 95 731 m 238 661 q 266 598 238 624 q 334 573 294 573 l 424 573 l 424 822 l 334 822 q 266 794 294 822 q 238 727 238 767 l 238 661 m 642 143 q 710 170 682 143 q 738 235 738 196 l 738 339 q 710 404 738 377 q 642 431 682 431 l 550 431 l 550 143 l 642 143 z "},"£":{"ha":823,"x_min":75,"x_max":742,"o":"m 75 574 l 152 574 q 149 655 150 616 q 148 722 148 694 q 183 847 148 792 q 280 933 218 901 q 420 964 341 964 l 742 964 l 742 822 l 420 822 q 326 795 361 822 q 291 722 291 768 q 292 641 291 685 q 294 574 293 597 l 652 574 l 652 431 l 297 431 l 297 301 q 292 203 297 238 q 273 143 286 169 l 742 143 l 742 0 l 99 0 l 99 113 q 141 187 128 143 q 154 301 154 231 l 154 431 l 75 431 l 75 574 z "},"¥":{"ha":961,"x_min":43,"x_max":918,"o":"m 217 964 l 481 599 l 745 964 l 918 964 l 600 522 l 789 522 l 789 396 l 555 396 l 555 315 l 789 315 l 789 187 l 555 187 l 555 0 l 408 0 l 408 187 l 174 187 l 174 315 l 408 315 l 408 396 l 174 396 l 174 522 l 363 522 l 43 964 l 217 964 z "},"+":{"ha":864,"x_min":95,"x_max":769,"o":"m 95 435 l 372 435 l 372 706 l 492 706 l 492 435 l 769 435 l 769 316 l 492 316 l 492 46 l 372 46 l 372 316 l 95 316 l 95 435 z "},"−":{"ha":574,"x_min":75,"x_max":500,"o":"m 75 435 l 500 435 l 500 316 l 75 316 l 75 435 z "},"×":{"ha":701,"x_min":61,"x_max":641,"o":"m 256 366 l 61 560 l 155 656 l 351 459 l 547 656 l 641 560 l 445 366 l 640 170 l 547 75 l 351 271 l 155 75 l 61 170 l 256 366 z "},"÷":{"ha":839,"x_min":81,"x_max":758,"o":"m 345 578 q 366 632 345 610 q 419 654 388 654 q 473 632 451 654 q 494 578 494 610 q 473 525 494 547 q 419 503 451 503 q 366 525 388 503 q 345 578 345 547 m 81 435 l 758 435 l 758 315 l 81 315 l 81 435 m 345 172 q 366 225 345 203 q 419 247 388 247 q 473 225 451 247 q 494 172 494 203 q 473 119 494 141 q 419 98 451 98 q 366 119 388 98 q 345 172 345 141 z "},"=":{"ha":836,"x_min":75,"x_max":762,"o":"m 75 554 l 762 554 l 762 435 l 75 435 l 75 554 m 75 316 l 762 316 l 762 197 l 75 197 l 75 316 z "},">":{"ha":834,"x_min":75,"x_max":760,"o":"m 75 215 l 515 375 l 75 536 l 75 677 l 760 428 l 760 322 l 75 73 l 75 215 z "},"<":{"ha":834,"x_min":75,"x_max":760,"o":"m 75 428 l 760 677 l 760 536 l 319 375 l 760 215 l 760 73 l 75 322 l 75 428 z "},"±":{"ha":823,"x_min":75,"x_max":749,"o":"m 75 567 l 352 567 l 352 837 l 471 837 l 471 567 l 749 567 l 749 448 l 471 448 l 471 178 l 352 178 l 352 448 l 75 448 l 75 567 m 75 117 l 749 117 l 749 -2 l 75 -2 l 75 117 z "},"≈":{"ha":865,"x_min":75,"x_max":790,"o":"m 75 546 q 131 694 75 636 q 276 752 188 752 q 362 742 318 752 q 463 708 406 732 q 533 686 505 692 q 586 679 562 679 q 654 753 652 679 l 790 753 q 733 600 789 654 q 576 546 677 546 q 495 556 536 546 q 380 592 454 566 q 318 611 342 606 q 275 617 293 617 q 212 546 212 617 l 75 546 m 75 248 q 131 396 75 338 q 276 454 188 454 q 362 444 318 454 q 463 410 406 433 q 533 387 505 394 q 586 380 562 380 q 654 454 652 380 l 790 454 q 733 302 789 356 q 576 248 677 248 q 495 257 536 248 q 380 294 454 267 q 318 313 342 307 q 275 319 293 319 q 212 248 212 319 l 75 248 z "},"~":{"ha":865,"x_min":75,"x_max":790,"o":"m 75 273 q 131 421 75 363 q 276 479 188 479 q 362 469 318 479 q 463 435 406 458 q 533 412 505 419 q 586 406 562 406 q 654 479 654 406 l 790 479 q 733 327 790 382 q 576 273 677 273 q 495 282 536 273 q 380 319 454 292 q 318 338 342 332 q 275 344 293 344 q 212 273 212 344 l 75 273 z "},"¬":{"ha":836,"x_min":75,"x_max":762,"o":"m 75 435 l 762 435 l 762 157 l 643 157 l 643 316 l 75 316 l 75 435 z "},"^":{"ha":592,"x_min":68,"x_max":524,"o":"m 256 964 l 336 964 l 524 693 l 417 693 l 296 861 l 174 693 l 68 693 l 256 964 z "},"µ":{"ha":808,"x_min":81,"x_max":727,"o":"m 81 703 l 224 703 l 224 256 q 257 175 224 208 q 335 142 290 142 l 584 142 l 584 703 l 727 703 l 727 142 q 685 42 727 83 q 583 0 643 0 l 335 0 q 224 26 279 0 l 224 -264 l 81 -264 l 81 703 z "},"∂":{"ha":802,"x_min":75,"x_max":720,"o":"m 75 449 q 109 576 75 519 q 201 668 143 634 q 328 703 258 703 l 496 703 l 496 559 l 328 559 q 250 527 283 559 q 218 448 218 494 l 218 254 q 250 176 218 208 q 328 143 283 143 l 577 143 l 577 711 q 545 789 577 757 q 468 821 513 821 l 218 821 l 218 964 l 467 964 q 594 930 536 964 q 686 838 652 896 q 720 711 720 781 l 720 143 q 678 42 720 84 q 577 0 636 0 l 328 0 q 201 34 258 0 q 109 126 143 68 q 75 252 75 183 l 75 449 z "},"%":{"ha":1426,"x_min":81,"x_max":1345,"o":"m 81 774 q 107 870 81 827 q 176 939 133 913 q 273 964 220 964 l 346 964 q 442 939 399 964 q 511 870 486 913 q 537 774 537 827 l 537 583 q 511 488 537 531 q 442 418 486 444 q 346 393 399 393 l 273 393 q 176 418 220 393 q 107 488 133 444 q 81 583 81 531 l 81 774 m 972 964 l 1128 964 l 453 0 l 297 0 l 972 964 m 210 583 q 228 538 210 557 q 273 520 247 520 l 346 520 q 391 538 372 520 q 410 583 410 557 l 410 774 q 391 819 410 800 q 346 837 372 837 l 273 837 q 228 819 247 837 q 210 774 210 800 l 210 583 m 889 381 q 915 477 889 434 q 984 546 941 520 q 1080 572 1027 572 l 1154 572 q 1250 546 1206 572 q 1319 477 1293 520 q 1345 381 1345 434 l 1345 191 q 1319 95 1345 138 q 1250 26 1293 52 q 1154 0 1206 0 l 1080 0 q 984 26 1027 0 q 915 95 941 52 q 889 191 889 138 l 889 381 m 1017 190 q 1036 146 1017 164 q 1080 127 1055 127 l 1154 127 q 1199 146 1180 127 q 1217 190 1217 164 l 1217 382 q 1199 426 1217 408 q 1154 444 1180 444 l 1080 444 q 1036 426 1055 444 q 1017 382 1017 408 l 1017 190 z "},"‰":{"ha":1978,"x_min":81,"x_max":1897,"o":"m 81 774 q 107 870 81 827 q 176 939 133 913 q 273 964 220 964 l 346 964 q 442 939 399 964 q 511 870 486 913 q 537 774 537 827 l 537 583 q 511 488 537 531 q 442 418 486 444 q 346 393 399 393 l 273 393 q 176 418 220 393 q 107 488 133 444 q 81 583 81 531 l 81 774 m 972 964 l 1128 964 l 453 0 l 297 0 l 972 964 m 210 583 q 228 538 210 557 q 273 520 247 520 l 346 520 q 391 538 372 520 q 410 583 410 557 l 410 774 q 391 819 410 800 q 346 837 372 837 l 273 837 q 228 819 247 837 q 210 774 210 800 l 210 583 m 889 381 q 915 477 889 434 q 984 546 941 520 q 1080 572 1027 572 l 1154 572 q 1250 546 1206 572 q 1319 477 1293 520 q 1345 381 1345 434 l 1345 191 q 1319 95 1345 138 q 1250 26 1293 52 q 1154 0 1206 0 l 1080 0 q 984 26 1027 0 q 915 95 941 52 q 889 191 889 138 l 889 381 m 1441 381 q 1467 477 1441 434 q 1536 546 1493 520 q 1632 572 1579 572 l 1706 572 q 1802 546 1758 572 q 1871 477 1845 520 q 1897 381 1897 434 l 1897 191 q 1871 95 1897 138 q 1802 26 1845 52 q 1706 0 1758 0 l 1632 0 q 1536 26 1579 0 q 1467 95 1493 52 q 1441 191 1441 138 l 1441 381 m 1017 190 q 1036 146 1017 164 q 1080 127 1055 127 l 1154 127 q 1199 146 1180 127 q 1217 190 1217 164 l 1217 382 q 1199 426 1217 408 q 1154 444 1180 444 l 1080 444 q 1036 426 1055 444 q 1017 382 1017 408 l 1017 190 m 1569 190 q 1588 146 1569 164 q 1632 127 1607 127 l 1706 127 q 1751 146 1732 127 q 1769 190 1769 164 l 1769 382 q 1751 426 1769 408 q 1706 444 1732 444 l 1632 444 q 1588 426 1607 444 q 1569 382 1569 408 l 1569 190 z "},"̈":{"ha":0,"x_min":81,"x_max":462,"o":"m 81 889 q 103 943 81 921 q 156 964 125 964 q 210 943 188 964 q 231 889 231 921 q 210 836 231 858 q 156 814 188 814 q 103 836 125 814 q 81 889 81 858 m 312 889 q 334 943 312 921 q 387 964 355 964 q 440 943 418 964 q 462 889 462 921 q 440 836 462 858 q 387 814 418 814 q 334 836 355 814 q 312 889 312 858 z "},"̇":{"ha":0,"x_min":64,"x_max":214,"o":"m 64 897 q 86 950 64 928 q 140 972 109 972 q 193 950 171 972 q 214 897 214 928 q 193 844 214 865 q 140 822 171 822 q 86 844 109 822 q 64 897 64 865 z "},"̀":{"ha":0,"x_min":68,"x_max":279,"o":"m 192 1080 l 279 829 l 202 793 l 68 1020 l 192 1080 z "},"́":{"ha":0,"x_min":68,"x_max":279,"o":"m 155 1080 l 279 1020 l 145 793 l 68 829 l 155 1080 z "},"̋":{"ha":0,"x_min":68,"x_max":537,"o":"m 155 1080 l 279 1020 l 145 793 l 68 829 l 155 1080 m 413 1080 l 537 1020 l 403 793 l 326 829 l 413 1080 z "},"̂":{"ha":0,"x_min":68,"x_max":490,"o":"m 227 964 l 332 964 l 490 755 l 395 755 l 279 871 l 163 755 l 68 755 l 227 964 z "},"̌":{"ha":0,"x_min":68,"x_max":490,"o":"m 163 964 l 279 848 l 395 964 l 490 964 l 332 755 l 227 755 l 68 964 l 163 964 z "},"̆":{"ha":0,"x_min":68,"x_max":472,"o":"m 159 964 q 192 886 159 919 q 270 853 224 853 q 349 886 316 853 q 381 964 381 919 l 472 964 q 445 863 472 909 q 371 790 417 817 q 270 762 326 762 q 169 790 214 762 q 95 863 123 817 q 68 964 68 909 l 159 964 z "},"̊":{"ha":0,"x_min":68,"x_max":326,"o":"m 68 850 q 102 931 68 898 q 183 964 136 964 l 210 964 q 292 931 258 964 q 326 850 326 898 l 326 821 q 292 740 326 773 q 210 706 258 706 l 183 706 q 102 740 136 706 q 68 821 68 773 l 68 850 m 148 821 q 158 796 148 806 q 183 786 168 786 l 210 786 q 235 796 225 786 q 245 821 245 806 l 245 850 q 235 874 245 864 q 210 884 225 884 l 183 884 q 158 874 168 884 q 148 850 148 864 l 148 821 z "},"̃":{"ha":0,"x_min":81,"x_max":528,"o":"m 81 818 q 119 925 82 883 q 213 968 156 968 q 248 962 229 968 q 302 943 267 957 q 357 922 339 928 q 391 917 375 917 q 421 964 421 917 l 528 964 q 490 857 528 901 q 397 812 452 812 q 362 819 382 812 q 307 840 343 825 q 251 862 269 856 q 217 867 233 867 q 186 818 186 867 l 81 818 z "},"̄":{"ha":0,"x_min":81,"x_max":486,"o":"m 81 964 l 486 964 l 486 865 l 81 865 l 81 964 z "},"̒":{"ha":0,"x_min":68,"x_max":279,"o":"m 202 1080 l 279 1044 l 192 793 l 68 853 l 202 1080 z "},"̕":{"ha":0,"x_min":68,"x_max":279,"o":"m 155 1080 l 279 1020 l 145 793 l 68 829 l 155 1080 z "},"̦":{"ha":0,"x_min":68,"x_max":262,"o":"m 119 144 l 262 144 l 175 -137 l 68 -137 l 119 144 z "},"̧":{"ha":0,"x_min":68,"x_max":273,"o":"m 68 -101 q 122 -109 110 -108 q 142 -111 134 -111 q 170 -90 170 -111 q 165 -62 170 -79 q 144 0 160 -45 l 244 0 q 273 -124 273 -76 q 170 -212 273 -212 q 133 -210 153 -212 q 68 -201 113 -208 l 68 -101 z "},"̨":{"ha":0,"x_min":87,"x_max":292,"o":"m 87 -124 q 115 0 87 -76 l 216 0 q 194 -62 199 -45 q 189 -90 189 -79 q 217 -111 189 -111 q 238 -109 226 -111 q 292 -101 250 -108 l 292 -201 q 227 -210 247 -208 q 190 -212 207 -212 q 87 -124 87 -212 z "},"¨":{"ha":543,"x_min":81,"x_max":462,"o":"m 81 889 q 103 943 81 921 q 156 964 125 964 q 210 943 188 964 q 231 889 231 921 q 210 836 231 858 q 156 814 188 814 q 103 836 125 814 q 81 889 81 858 m 312 889 q 334 943 312 921 q 387 964 355 964 q 440 943 418 964 q 462 889 462 921 q 440 836 462 858 q 387 814 418 814 q 334 836 355 814 q 312 889 312 858 z "},"˙":{"ha":279,"x_min":64,"x_max":214,"o":"m 64 897 q 86 950 64 928 q 140 972 109 972 q 193 950 171 972 q 214 897 214 928 q 193 844 214 865 q 140 822 171 822 q 86 844 109 822 q 64 897 64 865 z "},"`":{"ha":347,"x_min":68,"x_max":279,"o":"m 192 1080 l 279 829 l 202 793 l 68 1020 l 192 1080 z "},"´":{"ha":347,"x_min":68,"x_max":279,"o":"m 155 1080 l 279 1020 l 145 793 l 68 829 l 155 1080 z "},"˝":{"ha":605,"x_min":68,"x_max":537,"o":"m 155 1080 l 279 1020 l 145 793 l 68 829 l 155 1080 m 413 1080 l 537 1020 l 403 793 l 326 829 l 413 1080 z "},"ˆ":{"ha":558,"x_min":68,"x_max":490,"o":"m 227 964 l 332 964 l 490 755 l 395 755 l 279 871 l 163 755 l 68 755 l 227 964 z "},"ˇ":{"ha":558,"x_min":68,"x_max":490,"o":"m 163 964 l 279 848 l 395 964 l 490 964 l 332 755 l 227 755 l 68 964 l 163 964 z "},"˘":{"ha":540,"x_min":68,"x_max":472,"o":"m 159 964 q 192 886 159 919 q 270 853 224 853 q 349 886 316 853 q 381 964 381 919 l 472 964 q 445 863 472 909 q 371 790 417 817 q 270 762 326 762 q 169 790 214 762 q 95 863 123 817 q 68 964 68 909 l 159 964 z "},"˚":{"ha":393,"x_min":68,"x_max":326,"o":"m 68 850 q 102 931 68 898 q 183 964 136 964 l 210 964 q 292 931 258 964 q 326 850 326 898 l 326 821 q 292 740 326 773 q 210 706 258 706 l 183 706 q 102 740 136 706 q 68 821 68 773 l 68 850 m 148 821 q 158 796 148 806 q 183 786 168 786 l 210 786 q 235 796 225 786 q 245 821 245 806 l 245 850 q 235 874 245 864 q 210 884 225 884 l 183 884 q 158 874 168 884 q 148 850 148 864 l 148 821 z "},"˜":{"ha":609,"x_min":81,"x_max":528,"o":"m 81 818 q 119 925 82 883 q 213 968 156 968 q 248 962 229 968 q 302 943 267 957 q 357 922 339 928 q 391 917 375 917 q 421 964 421 917 l 528 964 q 490 857 528 901 q 397 812 452 812 q 362 819 382 812 q 307 840 343 825 q 251 862 269 856 q 217 867 233 867 q 186 818 186 867 l 81 818 z "},"¯":{"ha":568,"x_min":81,"x_max":486,"o":"m 81 964 l 486 964 l 486 865 l 81 865 l 81 964 z "},"¸":{"ha":340,"x_min":68,"x_max":273,"o":"m 68 -101 q 122 -109 110 -108 q 142 -111 134 -111 q 170 -90 170 -111 q 165 -62 170 -79 q 144 0 160 -45 l 244 0 q 273 -124 273 -76 q 170 -212 273 -212 q 133 -210 153 -212 q 68 -201 113 -208 l 68 -101 z "},"˛":{"ha":332,"x_min":87,"x_max":292,"o":"m 87 -124 q 115 0 87 -76 l 216 0 q 194 -62 199 -45 q 189 -90 189 -79 q 217 -111 189 -111 q 238 -109 226 -111 q 292 -101 250 -108 l 292 -201 q 227 -210 247 -208 q 190 -212 207 -212 q 87 -124 87 -212 z "}}}
